<?xml version="1.0" encoding="UTF-8" standalone="no"?>
<!-- Generator: Adobe Illustrator 16.0.4, SVG Export Plug-In . SVG Version: 6.00 Build 0)  -->

<svg
   xmlns:dc="http://purl.org/dc/elements/1.1/"
   xmlns:cc="http://creativecommons.org/ns#"
   xmlns:rdf="http://www.w3.org/1999/02/22-rdf-syntax-ns#"
   xmlns:svg="http://www.w3.org/2000/svg"
   xmlns="http://www.w3.org/2000/svg"
   xmlns:sodipodi="http://sodipodi.sourceforge.net/DTD/sodipodi-0.dtd"
   xmlns:inkscape="http://www.inkscape.org/namespaces/inkscape"
   version="1.2"
   id="Layer_1"
   x="0px"
   y="0px"
   width="160"
   height="160"
   viewBox="0 0 160 160"
   overflow="visible"
   xml:space="preserve"
   inkscape:version="0.91 r13258 custom"
   sodipodi:docname="logo.svg"
   style="overflow:visible"><metadata
     id="metadata71"><rdf:RDF><cc:Work
         rdf:about=""><dc:format>image/svg+xml</dc:format><dc:type
           rdf:resource="http://purl.org/dc/dcmitype/StillImage" /><dc:title /></cc:Work></rdf:RDF></metadata><defs
     id="defs69" /><sodipodi:namedview
     pagecolor="#131313"
     bordercolor="#666666"
     borderopacity="1"
     objecttolerance="10"
     gridtolerance="10"
     guidetolerance="10"
     inkscape:pageopacity="0"
     inkscape:pageshadow="2"
     inkscape:window-width="640"
     inkscape:window-height="480"
     id="namedview67"
     showgrid="true"
     fit-margin-top="10"
     fit-margin-left="10"
     fit-margin-right="10"
     fit-margin-bottom="10"
     inkscape:current-layer="g3380"><inkscape:grid
       type="xygrid"
       id="grid3359" /></sodipodi:namedview><g
     id="g3325"
     transform="matrix(3.3333333,0,0,3.3333333,10,-216.66666)"><g
       id="g3"><g
         id="g3380"
         transform="matrix(0.37282345,0,0,0.37282345,3.5538355,68.694645)"><g
           transform="matrix(1.0436363,0,0,1.0436363,-2.1000002,-2.3999909)"
           id="g5"><path
             style="fill:#ffffff"
             inkscape:connector-curvature="0"
             d="m 11.697,109.759 -3.372,0 -0.578,-3.848 -4.101,0 -0.579,3.848 -3.067,0 3.403,-21.202 4.892,0 3.402,21.202 z m -7.627,-6.724 3.22,0 -1.61,-10.722 -1.61,10.722 z"
             id="path7" /><path
             style="fill:#ffffff"
             inkscape:connector-curvature="0"
             d="m 16.953,88.558 10.329,0 0,3.028 -3.492,0 0,18.173 -3.344,0 0,-18.173 -3.493,0 0,-3.028 z"
             id="path9" /><path
             style="fill:#ffffff"
             inkscape:connector-curvature="0"
             d="m 34.299,93.646 c 0,-3.393 1.793,-5.33 5.073,-5.33 3.282,0 5.074,1.938 5.074,5.33 l 0,11.023 c 0,3.394 -1.792,5.331 -5.074,5.331 -3.28,0 -5.073,-1.937 -5.073,-5.331 l 0,-11.023 z m 3.342,11.237 c 0,1.513 0.669,2.089 1.73,2.089 1.064,0 1.732,-0.576 1.732,-2.089 l 0,-11.449 c 0,-1.515 -0.668,-2.09 -1.732,-2.09 -1.062,0 -1.73,0.575 -1.73,2.09 l 0,11.449 z"
             id="path11" /><path
             style="fill:#ffffff"
             inkscape:connector-curvature="0"
             d="m 59.513,103.61 2.279,-15.053 4.647,0 0,21.202 -3.159,0 0,-15.205 -2.31,15.205 -3.159,0 -2.491,-14.993 0,14.993 -2.916,0 0,-21.201 4.647,0 2.462,15.052 z"
             id="path13" /><path
             style="fill:#ffffff"
             inkscape:connector-curvature="0"
             d="m 74.704,88.558 3.34,0 0,21.202 -3.34,0 0,-21.202 z"
             id="path15" /><path
             style="fill:#ffffff"
             inkscape:connector-curvature="0"
             d="m 96,101.854 0,2.815 c 0,3.394 -1.701,5.331 -4.982,5.331 -3.281,0 -4.982,-1.937 -4.982,-5.331 l 0,-11.023 c 0,-3.393 1.701,-5.33 4.982,-5.33 3.281,0 4.982,1.938 4.982,5.33 l 0,2.059 -3.16,0 0,-2.271 c 0,-1.515 -0.668,-2.09 -1.732,-2.09 -1.064,0 -1.731,0.575 -1.731,2.09 l 0,11.449 c 0,1.513 0.667,2.059 1.731,2.059 1.064,0 1.732,-0.546 1.732,-2.059 l 0,-3.029 3.16,0 z"
             id="path17" /></g><path
           style="fill:#41d305"
           inkscape:connector-curvature="0"
           d="m 47.993497,41.431689 c -3.136127,0 -7.911806,-0.279694 -7.911806,-0.279694 -0.499902,-0.02922 -0.668971,-0.383015 -0.373622,-0.787946 0,0 2.962883,-4.06705 5.11173,-6.61561 1.062422,-1.252364 2.563171,-2.911745 2.563171,-2.911745 0.336051,-0.371535 0.885004,-0.371535 1.221055,0 0,0 1.499705,1.659381 2.562127,2.911745 2.150934,2.547516 5.114861,6.61561 5.114861,6.61561 0.294306,0.404931 0.127324,0.758724 -0.373622,0.787946 -10e-4,0 -4.780898,0.279694 -7.913894,0.279694 z"
           id="path63" /><path
           style="fill:#6b6b6b"
           inkscape:connector-curvature="0"
           d="m 94.390436,37.747653 c -0.01774,-4.529381 -11.021843,-8.421101 -26.878853,-10.193195 -0.949709,-0.04175 -1.443349,0.655403 -1.456916,1.327505 -0.02714,0.533298 0.343356,1.190789 1.017545,1.300371 0.12628,0.01983 0.233775,0.04592 0.374666,0.06784 12.776195,1.330636 21.475947,3.942858 21.488471,6.957923 0.01461,2.942011 -8.225941,5.516662 -20.466751,6.907829 C 65.269852,38.906089 61.366653,33.312199 56.910326,27.665083 54.808442,25.001723 52.688817,22.465687 50.583803,20.067411 61.439707,8.0321974 71.006721,0.71735067 73.773401,2.8755905 c 2.139454,1.6687744 -0.29848,8.7268865 -5.761916,17.9912455 -0.171156,0.29848 -0.312047,1.177222 0.365273,1.633291 0.637661,0.431022 1.499705,0.193073 1.87437,-0.411193 0.05323,-0.09288 0.153415,-0.234818 0.20664,-0.327701 C 77.192353,10.028674 79.916244,0.7872743 76.684102,-1.734151 72.734983,-4.8149653 61.128704,3.0436159 48.512185,16.63176 l 0,-0.0031 c -0.1722,0.185768 -0.345444,0.369448 -0.519731,0.558346 -0.173244,-0.188898 -0.346488,-0.372578 -0.518688,-0.558346 l 0,0.0031 C 34.858291,3.0436159 23.253056,-4.8149653 19.303936,-1.734151 c -3.233185,2.52246894 -0.508251,11.762825 6.226334,23.495384 0.05323,0.09288 0.152371,0.235861 0.20664,0.327701 0.375709,0.604266 1.235665,0.842215 1.875414,0.411193 0.676277,-0.456069 0.535386,-1.335854 0.364229,-1.633291 C 22.513118,11.603521 20.075183,4.5443649 22.214638,2.8755905 24.982361,0.71735067 34.548331,8.0311537 45.405279,20.069498 43.301309,22.466731 41.18064,25.003811 39.0798,27.66717 34.622429,33.314286 30.71923,38.908177 27.520484,44.118009 15.278631,42.726842 7.0380791,40.152191 7.0537336,37.210181 c 0.013567,-3.016109 8.7122754,-5.627287 21.4884704,-6.957924 0.141935,-0.02192 0.249429,-0.04801 0.374666,-0.06784 0.674189,-0.109582 1.043636,-0.767073 1.016502,-1.300371 -0.01357,-0.672102 -0.508251,-1.369251 -1.456917,-1.327505 -15.858053,1.770007 -26.86111,5.661727 -26.8798955,10.191108 -0.018785,4.243425 9.6004095,7.951465 23.8251725,9.897847 -6.664661,11.654286 -9.337414,20.814282 -6.11884,23.325271 3.484702,2.717628 12.936916,-3.086033 23.78134,-13.826094 0.361098,-0.328745 0.58548,-1.200182 -0.07201,-1.838887 -0.421629,-0.411193 -1.177221,-0.496771 -1.699039,-0.112713 -0.204553,0.14924 -0.39867,0.341269 -0.540604,0.474855 -8.457628,8.459715 -15.382155,13.149817 -17.664588,11.36833 -2.219814,-1.728262 0.483204,-9.14121 6.380792,-18.896079 5.517705,0.590698 11.59793,0.926749 17.984984,0.95284 l 0,0 c 0.08871,0 0.177419,0 0.267171,0.001 0.06784,0 0.136717,10e-4 0.205597,10e-4 0.01565,0 0.03131,0 0.04488,0 0.0167,0 0.03131,0 0.04696,0 0.06888,0 0.136716,-10e-4 0.205596,-10e-4 0.08975,0 0.177418,-0.001 0.266127,-0.001 l 0,0 c 6.388098,-0.02505 12.467279,-0.362142 17.986028,-0.95284 5.897589,9.754869 8.60165,17.167817 6.380792,18.896079 -2.283476,1.781487 -9.206959,-2.908615 -17.663544,-11.36833 -0.142978,-0.133586 -0.337094,-0.325615 -0.541647,-0.474855 -0.521818,-0.383014 -1.277411,-0.29848 -1.697996,0.112713 -0.657491,0.638705 -0.434153,1.509098 -0.07201,1.838887 10.845468,10.741105 20.296638,16.544766 23.782383,13.827137 3.217531,-2.510989 0.546866,-11.672028 -6.118839,-23.325271 14.223719,-1.947425 23.843958,-5.654421 23.825173,-9.89889 z M 48.14065,45.20026 c -0.04905,0 -0.0981,0 -0.148196,0 -0.04801,0 -0.09706,0 -0.146109,0 -5.720171,-0.0083 -11.16169,-0.248386 -16.103308,-0.666884 2.937836,-4.538774 6.456978,-9.459519 10.41549,-14.472104 1.778356,-2.252167 3.555669,-4.402058 5.315239,-6.45489 l 0,0.0042 c 0.1722,-0.201422 0.346488,-0.408062 0.518688,-0.607396 0.173243,0.199334 0.347531,0.405974 0.519731,0.607396 l 0,-0.0042 c 1.760614,2.052832 3.537927,4.202723 5.315239,6.45489 3.959556,5.012585 7.478698,9.93333 10.416534,14.472104 -4.940574,0.418498 -10.383137,0.658535 -16.103308,0.666884 z"
           id="path65" /></g><path
         d="m 12.58023,99.13962 c -0.01226,-0.0434 -0.03254,-0.0815 -0.05891,-0.11106 -0.02654,-0.0328 -0.06253,-0.0584 -0.109901,-0.0794 -0.03939,-0.0169 -0.08708,-0.0297 -0.14573,-0.0377 -0.05529,-0.008 -0.121148,-0.0115 -0.195303,-0.0115 l -0.970392,9.6e-4 0.0011,1.49904 0.332997,-4.8e-4 7.7e-5,-0.51134 0.537315,-3.9e-4 c 0.09497,-4.7e-4 0.171635,-0.004 0.235894,-0.0122 0.06667,-0.009 0.124836,-0.022 0.171263,-0.0396 0.05232,-0.0202 0.09449,-0.0471 0.12532,-0.0794 0.03163,-0.0333 0.05566,-0.0733 0.0713,-0.1197 0.01237,-0.04 0.01996,-0.0837 0.02243,-0.13009 0.0018,-0.0387 0.0023,-0.0814 0.0023,-0.12641 -4.5e-4,-0.0433 -8.7e-4,-0.0834 -0.0017,-0.11937 -0.0011,-0.0442 -0.0073,-0.0844 -0.01807,-0.1214 z m -0.314472,0.33763 c -0.0011,0.0204 -0.0041,0.0323 -0.0092,0.0422 0,0 -0.0073,0.005 -0.03105,0.0111 -0.02386,0.006 -0.05538,0.01 -0.09512,0.0116 -0.04538,0.003 -0.0991,0.004 -0.158468,0.004 l -0.537859,1.2e-4 -1.74e-4,-0.30317 0.537311,-6.9e-4 c 0.06395,6.1e-4 0.117688,10e-4 0.160956,0.002 0.03884,0.001 0.07084,0.005 0.09507,0.01 0.02477,0.005 0.0337,0.0115 0.03341,0.009 0.0017,0.002 0.0042,0.0106 0.005,0.0295 0.0016,0.0241 0.0019,0.0537 0.0013,0.0874 3.9e-4,0.037 8.1e-5,0.0687 -0.0013,0.097 z"
         id="path4280-8"
         inkscape:connector-curvature="0"
         style="color:#000000;color-interpolation:sRGB;color-interpolation-filters:linearRGB;fill:#46d200;fill-opacity:1;fill-rule:nonzero;stroke-width:1;stroke-linecap:butt;stroke-linejoin:miter;stroke-miterlimit:4;stroke-opacity:1;stroke-dasharray:none;stroke-dashoffset:0;marker:none;visibility:visible;display:inline;overflow:visible;isolation:auto;mix-blend-mode:normal;enable-background:accumulate;clip-rule:nonzero;color-rendering:auto;image-rendering:auto;shape-rendering:auto;text-rendering:auto"
         inkscape:export-filename="/home/tigert/SparkleShare/atomic-design/social-media/askbot/polygon4292-8.png"
         inkscape:export-xdpi="205.75999"
         inkscape:export-ydpi="205.75999" /><path
         d="m 15.874469,99.13355 c -0.01473,-0.0443 -0.0395,-0.082 -0.07074,-0.11239 -0.02954,-0.0307 -0.07016,-0.0546 -0.122535,-0.0739 -0.04487,-0.0159 -0.09952,-0.028 -0.166066,-0.0356 -0.06523,-0.008 -0.142355,-0.0112 -0.229274,-0.0116 l -0.897354,0.001 8.1e-4,1.49877 0.325254,-1.9e-4 -4.5e-4,-0.51134 0.548774,-1.1e-4 c 0.05689,-5e-4 0.108952,9.8e-4 0.155775,0.003 0.03554,0.002 0.06745,0.006 0.09202,0.0119 0.02366,0.006 0.03053,0.0112 0.03318,0.0142 0.0018,0.005 0.0048,0.0179 0.006,0.0395 0.0016,0.0273 0.0019,0.0592 0.0017,0.0969 l -4.6e-5,0.34555 0.325121,-1.9e-4 4.5e-5,-0.34555 c -5.4e-4,-0.0534 -0.0023,-0.0987 -0.007,-0.13983 -0.0059,-0.049 -0.01789,-0.0933 -0.03608,-0.1326 -0.008,-0.0167 -0.0176,-0.0323 -0.02826,-0.0466 0.01349,-0.0158 0.026,-0.0341 0.03735,-0.0528 0.02188,-0.0401 0.03727,-0.0873 0.04616,-0.14141 0.0074,-0.0474 0.01131,-0.10126 0.01125,-0.15984 -3.1e-5,-0.0436 -8.4e-4,-0.0847 -0.0028,-0.12129 -0.0022,-0.0459 -0.01021,-0.0879 -0.02291,-0.12579 z m -0.588661,0.41281 -0.571451,4.1e-4 -6.9e-5,-0.30347 0.571319,-4.1e-4 c 0.06266,-3.1e-4 0.114591,10e-4 0.157597,0.002 0.03764,0.002 0.06861,0.005 0.09252,0.01 0.02483,0.005 0.0334,0.0103 0.03287,0.009 6.6e-4,0.002 0.0039,0.0104 0.0044,0.0289 0.0018,0.0247 0.0021,0.0537 0.002,0.0883 1.75e-4,0.0369 -5.7e-4,0.0688 -0.0017,0.0961 -0.0013,0.0207 -0.004,0.0326 -0.0085,0.0425 0,0 -0.0072,0.006 -0.0307,0.0108 -0.02314,0.006 -0.05457,0.01 -0.0927,0.0122 -0.04455,0.003 -0.09646,0.003 -0.155576,0.004 z"
         id="path4282-9"
         inkscape:connector-curvature="0"
         style="color:#000000;color-interpolation:sRGB;color-interpolation-filters:linearRGB;fill:#46d200;fill-opacity:1;fill-rule:nonzero;stroke-width:1;stroke-linecap:butt;stroke-linejoin:miter;stroke-miterlimit:4;stroke-opacity:1;stroke-dasharray:none;stroke-dashoffset:0;marker:none;visibility:visible;display:inline;overflow:visible;isolation:auto;mix-blend-mode:normal;enable-background:accumulate;clip-rule:nonzero;color-rendering:auto;image-rendering:auto;shape-rendering:auto;text-rendering:auto"
         inkscape:export-filename="/home/tigert/SparkleShare/atomic-design/social-media/askbot/polygon4292-8.png"
         inkscape:export-xdpi="205.75999"
         inkscape:export-ydpi="205.75999" /><path
         d="m 19.17992,99.26284 c -0.011,-0.0587 -0.02864,-0.11201 -0.05238,-0.15791 -0.02662,-0.0493 -0.06398,-0.0903 -0.110284,-0.12152 -0.04343,-0.0291 -0.0957,-0.0502 -0.158965,-0.0643 -0.05957,-0.013 -0.129413,-0.0192 -0.2143,-0.0191 l -0.388872,6.3e-4 c -0.08513,-3.4e-4 -0.155093,0.006 -0.214052,0.0192 -0.06371,0.0138 -0.116175,0.0352 -0.158942,0.0639 -0.0469,0.0321 -0.08408,0.0727 -0.110359,0.12212 -0.02429,0.046 -0.0421,0.0991 -0.05306,0.15923 -0.01008,0.0543 -0.01508,0.11434 -0.01696,0.18141 -8.7e-4,0.0618 -0.0016,0.12952 -0.0017,0.20475 3.6e-4,0.0744 0.0011,0.14211 0.0024,0.20411 0.0014,0.0665 0.007,0.12783 0.01703,0.18152 0.01079,0.0596 0.02889,0.11288 0.05286,0.15792 0.02603,0.0493 0.06304,0.0911 0.111019,0.12351 0.04319,0.0283 0.09689,0.0496 0.158474,0.0626 0.05958,0.0135 0.129773,0.0192 0.214295,0.0191 l 0.388758,-3.3e-4 c 0.08477,3.5e-4 0.154855,-0.006 0.2137,-0.0189 0.06181,-0.0138 0.115107,-0.0352 0.159416,-0.0639 0.04701,-0.0318 0.08419,-0.0735 0.110117,-0.1227 0.02394,-0.0457 0.04139,-0.0985 0.05235,-0.15863 0.0096,-0.0537 0.01589,-0.11465 0.01719,-0.18171 0.0015,-0.0615 0.0023,-0.12953 0.0023,-0.20389 5.1e-4,-0.0751 -0.0011,-0.14298 -0.0024,-0.20469 -0.0022,-0.0676 -0.0078,-0.12724 -0.01766,-0.18237 z m -0.535204,0.80604 -0.388876,3.5e-4 c -0.05385,4.3e-4 -0.100113,-0.001 -0.137244,-0.005 -0.03189,-0.003 -0.05609,-0.009 -0.07305,-0.0175 -0.011,-0.005 -0.0184,-0.0115 -0.02252,-0.0182 -0.0051,-0.009 -0.01131,-0.0248 -0.01621,-0.0551 -0.0052,-0.0328 -0.0086,-0.0747 -0.0097,-0.12462 -6.6e-4,-0.055 -0.0017,-0.12115 -0.0019,-0.19824 -1.7e-4,-0.0771 7.8e-4,-0.14329 0.0016,-0.19943 7.8e-4,-0.0497 0.0033,-0.0909 0.0086,-0.12373 0.0039,-0.0239 0.0099,-0.0425 0.01611,-0.0532 0.0047,-0.008 0.01271,-0.0143 0.02288,-0.0197 0.0175,-0.008 0.04231,-0.0144 0.07342,-0.0181 0.03706,-0.004 0.08352,-0.006 0.137972,-0.006 l 0.388403,-3.5e-4 c 0.05456,-4.4e-4 0.101187,0.002 0.13796,0.006 0.03118,0.003 0.05585,0.009 0.0727,0.0178 0.0105,0.005 0.01803,0.0112 0.02241,0.0188 0.0066,0.0114 0.01238,0.0304 0.01654,0.0542 0.0052,0.0322 0.0083,0.074 0.0097,0.12405 8.1e-4,0.0558 0.0013,0.12202 0.0019,0.1991 -4.8e-4,0.0771 -7.8e-4,0.143 -0.0018,0.198 -0.0012,0.0506 -0.0042,0.0928 -0.0094,0.1246 -0.0052,0.0301 -0.01181,0.0461 -0.01589,0.0538 -0.0047,0.008 -0.01246,0.0136 -0.02419,0.0195 -0.01657,0.008 -0.04112,0.0147 -0.07176,0.0178 -0.03824,0.004 -0.08448,0.005 -0.137619,0.005 z"
         id="path4284-5"
         inkscape:connector-curvature="0"
         style="color:#000000;color-interpolation:sRGB;color-interpolation-filters:linearRGB;fill:#46d200;fill-opacity:1;fill-rule:nonzero;stroke-width:1;stroke-linecap:butt;stroke-linejoin:miter;stroke-miterlimit:4;stroke-opacity:1;stroke-dasharray:none;stroke-dashoffset:0;marker:none;visibility:visible;display:inline;overflow:visible;isolation:auto;mix-blend-mode:normal;enable-background:accumulate;clip-rule:nonzero;color-rendering:auto;image-rendering:auto;shape-rendering:auto;text-rendering:auto"
         inkscape:export-filename="/home/tigert/SparkleShare/atomic-design/social-media/askbot/polygon4292-8.png"
         inkscape:export-xdpi="205.75999"
         inkscape:export-ydpi="205.75999" /><path
         d="m 22.121148,99.91634 c 1.56e-4,0.0332 -0.003,0.061 -0.0098,0.0829 -0.0033,0.0132 -0.0088,0.023 -0.01578,0.0289 -0.0083,0.008 -0.02253,0.0145 -0.04075,0.0187 -0.02001,0.005 -0.05663,0.011 -0.117042,0.0107 l -0.417225,2.8e-4 c -0.03653,2.2e-4 -0.06652,-0.002 -0.08813,-0.006 -0.0061,-0.002 -0.0071,-0.003 -0.0094,-0.004 -2.23e-4,-6.9e-4 -0.0089,-0.0103 -0.01534,-0.0425 -0.0063,-0.0322 -0.01055,-0.0792 -0.01067,-0.13938 l -1.57e-4,-0.15719 -0.408,2.2e-4 -5.6e-5,0.15748 c 2.8e-4,0.0874 0.0057,0.15907 0.01661,0.22082 0.01313,0.0721 0.04118,0.13267 0.08392,0.18101 0.04474,0.0498 0.106921,0.0863 0.183052,0.10652 0.06605,0.0173 0.147303,0.0258 0.248528,0.0258 l 0.416889,-2.8e-4 c 0.09957,-2.9e-4 0.183075,-0.008 0.253644,-0.0244 0.07911,-0.0182 0.145047,-0.0485 0.195546,-0.0901 0.05278,-0.0429 0.09059,-0.0982 0.11232,-0.16326 0.01986,-0.0577 0.02985,-0.12612 0.02952,-0.20329 l -3e-4,-1.01869 -0.408504,-8e-5 0.0012,1.0163 z"
         id="path4286-9"
         inkscape:connector-curvature="0"
         style="color:#000000;color-interpolation:sRGB;color-interpolation-filters:linearRGB;fill:#46d200;fill-opacity:1;fill-rule:nonzero;stroke-width:1;stroke-linecap:butt;stroke-linejoin:miter;stroke-miterlimit:4;stroke-opacity:1;stroke-dasharray:none;stroke-dashoffset:0;marker:none;visibility:visible;display:inline;overflow:visible;isolation:auto;mix-blend-mode:normal;enable-background:accumulate;clip-rule:nonzero;color-rendering:auto;image-rendering:auto;shape-rendering:auto;text-rendering:auto"
         inkscape:export-filename="/home/tigert/SparkleShare/atomic-design/social-media/askbot/polygon4292-8.png"
         inkscape:export-xdpi="205.75999"
         inkscape:export-ydpi="205.75999" /><polygon
         points="278.755,305.994 278.774,304.312 286.013,304.393 286.036,302.09 278.798,302.008 278.813,300.514 286.418,300.596 286.44,298.293 276.36,298.186 276.251,308.268 286.331,308.377 286.358,306.076 "
         id="polygon4288-4"
         style="color:#000000;color-interpolation:sRGB;color-interpolation-filters:linearRGB;fill:#46d200;fill-opacity:1;fill-rule:nonzero;stroke-width:1.58688974;stroke-linecap:butt;stroke-linejoin:miter;stroke-miterlimit:4;stroke-opacity:1;stroke-dasharray:none;stroke-dashoffset:0;marker:none;visibility:visible;display:inline;overflow:visible;isolation:auto;mix-blend-mode:normal;enable-background:accumulate;clip-rule:nonzero;color-rendering:auto;image-rendering:auto;shape-rendering:auto;text-rendering:auto"
         transform="matrix(0.1401522,-0.00169949,0.00160242,0.14863999,-14.620851,55.048535)"
         inkscape:export-filename="/home/tigert/SparkleShare/atomic-design/social-media/askbot/polygon4292-8.png"
         inkscape:export-xdpi="205.75999"
         inkscape:export-ydpi="205.75999" /><path
         d="m 29.350143,99.13436 c -0.02025,-0.0432 -0.04699,-0.0807 -0.07959,-0.11054 -0.03236,-0.0305 -0.07198,-0.0552 -0.1191,-0.0736 -0.0427,-0.0174 -0.09405,-0.0299 -0.15066,-0.0381 -0.05536,-0.008 -0.119499,-0.0123 -0.190788,-0.0122 l -0.32088,5e-5 c -0.08971,4.1e-4 -0.164346,0.007 -0.226674,0.0198 -0.06787,0.0138 -0.123306,0.0349 -0.168822,0.064 -0.04965,0.0315 -0.08885,0.0727 -0.117384,0.12216 -0.02553,0.0451 -0.04443,0.0991 -0.05645,0.15899 -0.01029,0.0549 -0.01584,0.11581 -0.01734,0.18203 -0.0015,0.0612 -0.0024,0.12899 -0.0024,0.20425 -6e-4,0.0747 0.0015,0.14215 0.0021,0.20332 0.0021,0.0667 0.0077,0.12785 0.0186,0.18228 0.01119,0.0599 0.03041,0.11291 0.0561,0.15824 0.02787,0.0499 0.06741,0.0912 0.11808,0.12355 0.04583,0.0277 0.102582,0.0495 0.167943,0.0623 0.06171,0.013 0.138738,0.0191 0.227196,0.0191 l 0.320625,-3e-4 c 0.07394,-2.1e-4 0.135984,-0.004 0.190668,-0.0114 0.05934,-0.009 0.108423,-0.0216 0.151899,-0.0399 0.047,-0.0194 0.08724,-0.0458 0.119475,-0.0772 0.03249,-0.0319 0.05897,-0.0706 0.07922,-0.11548 0.01875,-0.0417 0.03191,-0.0893 0.03832,-0.14267 0.0063,-0.0463 0.0095,-0.0989 0.0094,-0.15551 l 2.34e-4,-0.1001 -0.312804,1.6e-4 3e-4,0.0998 c -1.2e-5,0.0398 -0.0018,0.0735 -0.0044,0.1013 -0.0031,0.0286 -0.0079,0.0445 -0.01161,0.0534 -0.0035,0.009 -0.0081,0.0155 -0.01377,0.0207 -0.0051,0.005 -0.01566,0.0111 -0.03578,0.0178 -0.02025,0.007 -0.0472,0.0118 -0.08048,0.0143 -0.03442,0.003 -0.07731,0.004 -0.130551,0.005 l -0.32088,3e-4 c -0.05639,2.3e-4 -0.10626,-0.002 -0.145665,-0.005 -0.0336,-0.003 -0.05952,-0.009 -0.07766,-0.0178 -0.01722,-0.008 -0.0225,-0.016 -0.02328,-0.0185 -0.0057,-0.008 -0.01287,-0.0242 -0.01785,-0.0545 -0.0058,-0.0322 -0.0095,-0.0745 -0.01032,-0.12466 -0.0012,-0.055 -0.0018,-0.12118 -0.0018,-0.19801 3.6e-5,-0.0777 9e-4,-0.14419 0.0015,-0.19949 9e-4,-0.05 0.004,-0.0921 0.0096,-0.12406 0.0041,-0.0233 0.0102,-0.0425 0.01701,-0.0535 0.0051,-0.008 0.01299,-0.0142 0.02442,-0.0194 0.01833,-0.008 0.04465,-0.0144 0.07793,-0.0178 0.03921,-0.004 0.08814,-0.006 0.145806,-0.006 l 0.320754,-4e-5 c 0.06574,-1.2e-4 0.120405,0.002 0.162597,0.008 0.04194,0.004 0.06451,0.0156 0.07658,0.0234 0.0075,0.005 0.01704,0.0136 0.02421,0.0353 0.0056,0.0182 0.01332,0.0534 0.01344,0.11873 l -3e-4,0.10067 0.312924,-1.5e-4 -6e-4,-0.10038 c 6e-4,-0.0521 -0.0027,-0.10121 -0.0093,-0.1465 -0.0076,-0.0506 -0.021,-0.0955 -0.03971,-0.13491 z"
         id="path4290-5"
         inkscape:connector-curvature="0"
         style="color:#000000;color-interpolation:sRGB;color-interpolation-filters:linearRGB;fill:#46d200;fill-opacity:1;fill-rule:nonzero;stroke-width:1;stroke-linecap:butt;stroke-linejoin:miter;stroke-miterlimit:4;stroke-opacity:1;stroke-dasharray:none;stroke-dashoffset:0;marker:none;visibility:visible;display:inline;overflow:visible;isolation:auto;mix-blend-mode:normal;enable-background:accumulate;clip-rule:nonzero;color-rendering:auto;image-rendering:auto;shape-rendering:auto;text-rendering:auto"
         inkscape:export-filename="/home/tigert/SparkleShare/atomic-design/social-media/askbot/polygon4292-8.png"
         inkscape:export-xdpi="205.75999"
         inkscape:export-ydpi="205.75999" /><polygon
         points="326.608,301.029 330.955,301.078 330.87,308.857 333.349,308.883 333.435,301.104 337.776,301.15 337.802,298.848 326.634,298.729 "
         id="polygon4292-8"
         style="color:#000000;color-interpolation:sRGB;color-interpolation-filters:linearRGB;fill:#46d200;fill-opacity:1;fill-rule:nonzero;stroke-width:1.58688974;stroke-linecap:butt;stroke-linejoin:miter;stroke-miterlimit:4;stroke-opacity:1;stroke-dasharray:none;stroke-dashoffset:0;marker:none;visibility:visible;display:inline;overflow:visible;isolation:auto;mix-blend-mode:normal;enable-background:accumulate;clip-rule:nonzero;color-rendering:auto;image-rendering:auto;shape-rendering:auto;text-rendering:auto"
         transform="matrix(0.13512307,-0.00170003,0.00154493,0.14868775,-13.097303,55.039238)"
         inkscape:export-filename="/home/tigert/SparkleShare/atomic-design/social-media/askbot/polygon4292-8.png"
         inkscape:export-xdpi="205.75999"
         inkscape:export-ydpi="205.75999" /></g></g></svg>