<?xml version="1.0" encoding="UTF-8" standalone="no"?>
<!-- Generator: Adobe Illustrator 16.0.4, SVG Export Plug-In . SVG Version: 6.00 Build 0)  -->

<svg
   xmlns:dc="http://purl.org/dc/elements/1.1/"
   xmlns:cc="http://creativecommons.org/ns#"
   xmlns:rdf="http://www.w3.org/1999/02/22-rdf-syntax-ns#"
   xmlns:svg="http://www.w3.org/2000/svg"
   xmlns="http://www.w3.org/2000/svg"
   xmlns:sodipodi="http://sodipodi.sourceforge.net/DTD/sodipodi-0.dtd"
   xmlns:inkscape="http://www.inkscape.org/namespaces/inkscape"
   version="1.1"
   id="Layer_1"
   x="0px"
   y="0px"
   width="396.539"
   height="27.937"
   viewBox="0 0 396.539 27.937"
   enable-background="new 0 0 790.5 523"
   xml:space="preserve"
   inkscape:version="0.48.4 r9939"
   sodipodi:docname="RH_JBoss_AMQ_logotype_interface_LL_white.svg"><metadata
     id="metadata43"><rdf:RDF><cc:Work
         rdf:about=""><dc:format>image/svg+xml</dc:format><dc:type
           rdf:resource="http://purl.org/dc/dcmitype/StillImage" /></cc:Work></rdf:RDF></metadata><defs
     id="defs41" /><sodipodi:namedview
     pagecolor="#ffffff"
     bordercolor="#666666"
     borderopacity="1"
     objecttolerance="10"
     gridtolerance="10"
     guidetolerance="10"
     inkscape:pageopacity="0"
     inkscape:pageshadow="2"
     inkscape:window-width="640"
     inkscape:window-height="480"
     id="namedview39"
     showgrid="false"
     fit-margin-top="0"
     fit-margin-left="0"
     fit-margin-right="0"
     fit-margin-bottom="0"
     inkscape:zoom="0.3655914"
     inkscape:cx="207.201"
     inkscape:cy="7.313"
     inkscape:window-x="2749"
     inkscape:window-y="200"
     inkscape:window-maximized="0"
     inkscape:current-layer="Layer_1" /><g
     id="g3"
     transform="translate(-188.049,-240.876)"><path
       d="m 201.818,266.473 -4.114,-8.496 h -2.815 v 8.496 h -6.84 v -25.2 h 11.268 c 1.463,0 2.802,0.15 4.014,0.45 1.212,0.3 2.25,0.774 3.114,1.422 0.864,0.648 1.53,1.494 1.998,2.538 0.468,1.044 0.702,2.31 0.702,3.798 0,1.896 -0.409,3.444 -1.227,4.644 -0.818,1.201 -1.925,2.112 -3.32,2.736 l 5.051,9.612 h -7.831 z m -0.327,-18.756 c -0.47,-0.504 -1.26,-0.756 -2.37,-0.756 h -4.233 v 5.508 h 4.124 c 1.158,0 1.978,-0.24 2.46,-0.72 0.483,-0.479 0.724,-1.175 0.724,-2.088 0.001,-0.792 -0.235,-1.44 -0.705,-1.944 z"
       id="path5"
       inkscape:connector-curvature="0"
       style="fill:#ffffff" /><path
       d="m 213.824,266.473 v -25.2 h 19.296 v 5.868 h -12.384 v 3.384 h 7.452 v 5.76 h -7.452 v 4.32 h 12.636 v 5.868 h -19.548 z"
       id="path7"
       inkscape:connector-curvature="0"
       style="fill:#ffffff" /><path
       d="m 258.752,259.723 c -0.576,1.62 -1.44,2.928 -2.592,3.924 -1.152,0.996 -2.574,1.717 -4.266,2.16 -1.692,0.444 -3.654,0.666 -5.886,0.666 h -8.172 v -25.2 h 8.82 c 1.968,0 3.756,0.205 5.364,0.612 1.607,0.408 2.97,1.098 4.086,2.07 1.116,0.972 1.98,2.25 2.592,3.834 0.612,1.584 0.918,3.564 0.918,5.94 0,2.376 -0.288,4.374 -0.864,5.994 z m -6.606,-8.874 c -0.205,-0.84 -0.535,-1.524 -0.99,-2.052 -0.456,-0.528 -1.056,-0.918 -1.8,-1.17 -0.744,-0.252 -1.656,-0.378 -2.736,-0.378 h -1.728 v 13.248 h 1.512 c 1.08,0 2.003,-0.114 2.772,-0.342 0.768,-0.228 1.398,-0.6 1.89,-1.116 0.492,-0.516 0.846,-1.2 1.062,-2.052 0.216,-0.852 0.324,-1.902 0.324,-3.15 0,-1.152 -0.102,-2.148 -0.306,-2.988 z"
       id="path9"
       inkscape:connector-curvature="0"
       style="fill:#ffffff" /><path
       d="m 289.243,266.473 v -9.936 h -7.848 v 9.936 h -7.128 v -25.2 h 7.128 v 9.18 h 7.848 v -9.18 h 7.128 v 25.2 h -7.128 z"
       id="path11"
       inkscape:connector-curvature="0"
       style="fill:#ffffff" /><path
       d="m 317.755,266.473 -1.368,-4.428 h -7.56 l -1.368,4.428 h -7.488 l 9.144,-25.2 h 7.056 l 9.144,25.2 h -7.56 z m -3.528,-11.628 c -0.216,-0.816 -0.408,-1.524 -0.576,-2.124 -0.168,-0.6 -0.318,-1.14 -0.45,-1.62 -0.132,-0.48 -0.246,-0.918 -0.342,-1.314 -0.096,-0.396 -0.18,-0.81 -0.252,-1.242 -0.072,0.432 -0.157,0.853 -0.252,1.26 -0.096,0.408 -0.21,0.852 -0.342,1.332 -0.132,0.48 -0.282,1.021 -0.45,1.62 -0.168,0.6 -0.36,1.296 -0.576,2.088 l -0.468,1.656 h 4.176 l -0.468,-1.656 z"
       id="path13"
       inkscape:connector-curvature="0"
       style="fill:#ffffff" /><path
       d="m 338.491,247.356 v 19.116 h -6.984 v -19.116 h -7.056 v -6.084 h 21.096 v 6.084 h -7.056 z"
       id="path15"
       inkscape:connector-curvature="0"
       style="fill:#ffffff" /><path
       d="m 353.76,245.023 c -0.128,0.308 -0.306,0.575 -0.532,0.802 -0.227,0.227 -0.494,0.404 -0.802,0.532 -0.308,0.128 -0.642,0.193 -1.001,0.193 -0.359,0 -0.693,-0.064 -1.001,-0.193 -0.308,-0.128 -0.575,-0.305 -0.801,-0.532 -0.227,-0.227 -0.404,-0.494 -0.532,-0.802 -0.128,-0.308 -0.192,-0.642 -0.192,-1.001 0,-0.359 0.064,-0.693 0.192,-1.001 0.128,-0.308 0.306,-0.575 0.532,-0.801 0.226,-0.227 0.494,-0.404 0.801,-0.532 0.308,-0.128 0.642,-0.192 1.001,-0.192 0.359,0 0.693,0.064 1.001,0.192 0.308,0.128 0.575,0.306 0.802,0.532 0.226,0.227 0.404,0.494 0.532,0.801 0.128,0.308 0.192,0.642 0.192,1.001 0,0.36 -0.064,0.694 -0.192,1.001 z m -0.375,-1.837 c -0.107,-0.259 -0.257,-0.484 -0.448,-0.675 -0.191,-0.191 -0.417,-0.341 -0.675,-0.448 -0.259,-0.107 -0.538,-0.161 -0.837,-0.161 -0.303,0 -0.583,0.054 -0.84,0.161 -0.257,0.107 -0.48,0.257 -0.672,0.448 -0.192,0.191 -0.341,0.417 -0.448,0.675 -0.107,0.259 -0.161,0.538 -0.161,0.836 0,0.304 0.053,0.583 0.161,0.84 0.107,0.256 0.257,0.48 0.448,0.672 0.191,0.192 0.415,0.341 0.672,0.448 0.257,0.107 0.537,0.161 0.84,0.161 0.299,0 0.578,-0.054 0.837,-0.161 0.259,-0.107 0.484,-0.256 0.675,-0.448 0.191,-0.192 0.341,-0.416 0.448,-0.672 0.107,-0.257 0.161,-0.537 0.161,-0.84 0,-0.298 -0.054,-0.577 -0.161,-0.836 z m -0.973,0.773 c -0.107,0.136 -0.25,0.229 -0.427,0.28 l 0.567,1.113 h -0.551 l -0.537,-1.064 h -0.53 v 1.064 h -0.469 v -2.758 h 1.207 c 0.121,0 0.236,0.016 0.346,0.049 0.109,0.033 0.205,0.083 0.286,0.15 0.082,0.068 0.146,0.154 0.195,0.259 0.049,0.105 0.074,0.23 0.074,0.375 0,0.22 -0.053,0.397 -0.161,0.532 z m -0.434,-0.812 c -0.084,-0.065 -0.189,-0.098 -0.315,-0.098 h -0.728 v 0.784 h 0.728 c 0.126,0 0.231,-0.031 0.315,-0.094 0.084,-0.063 0.126,-0.162 0.126,-0.297 0,-0.131 -0.042,-0.229 -0.126,-0.295 z"
       id="path17"
       inkscape:connector-curvature="0"
       style="fill:#ffffff" /><path
       d="m 377.295,260.659 c -0.432,1.308 -1.086,2.424 -1.962,3.348 -0.876,0.924 -1.98,1.632 -3.312,2.124 -1.332,0.491 -2.886,0.738 -4.662,0.738 -1.68,0 -3.132,-0.205 -4.356,-0.612 -1.224,-0.408 -2.274,-0.99 -3.15,-1.746 -0.876,-0.756 -1.596,-1.675 -2.16,-2.754 -0.564,-1.08 -1.002,-2.28 -1.314,-3.6 l 6.84,-1.8 c 0.432,1.44 0.948,2.526 1.548,3.258 0.6,0.732 1.5,1.098 2.7,1.098 1.128,0 1.968,-0.354 2.52,-1.062 0.552,-0.708 0.828,-1.674 0.828,-2.898 v -15.48 h 7.128 v 14.94 c 0,1.656 -0.216,3.138 -0.648,4.446 z"
       id="path19"
       inkscape:connector-curvature="0"
       style="fill:#ffffff" /><path
       d="m 402.17,264.352 c -1.561,1.414 -3.936,2.121 -7.127,2.121 h -12.096 v -25.2 h 12.167 c 3.121,0 5.371,0.565 6.75,1.696 1.381,1.13 2.07,2.753 2.07,4.869 0,1.371 -0.293,2.417 -0.881,3.138 -0.59,0.721 -1.303,1.323 -2.143,1.804 1.152,0.479 2.039,1.168 2.664,2.066 0.623,0.899 0.936,2.067 0.936,3.504 0,2.588 -0.78,4.588 -2.34,6.002 z m -5.543,-16.99 c -0.312,-0.388 -0.889,-0.582 -1.729,-0.582 h -5.256 v 3.996 h 5.256 c 0.815,0 1.385,-0.181 1.709,-0.545 0.324,-0.363 0.486,-0.848 0.486,-1.453 10e-4,-0.556 -0.155,-1.028 -0.466,-1.416 z m 0.432,9.355 c -0.408,-0.432 -1.033,-0.648 -1.873,-0.648 h -5.544 v 4.896 h 5.508 c 0.864,0 1.5,-0.234 1.909,-0.702 0.408,-0.468 0.611,-1.062 0.611,-1.782 0,-0.744 -0.203,-1.333 -0.611,-1.764 z"
       id="path21"
       inkscape:connector-curvature="0"
       style="fill:#ffffff" /><path
       d="m 429.926,259.398 c -0.574,1.62 -1.379,2.982 -2.41,4.086 -1.033,1.104 -2.27,1.944 -3.709,2.521 -1.439,0.575 -3.012,0.864 -4.717,0.864 -1.703,0 -3.27,-0.283 -4.697,-0.847 -1.427,-0.564 -2.658,-1.392 -3.689,-2.483 -1.033,-1.092 -1.83,-2.448 -2.395,-4.068 -0.565,-1.62 -0.846,-3.474 -0.846,-5.562 0,-2.088 0.287,-3.942 0.863,-5.562 0.576,-1.62 1.381,-2.982 2.412,-4.086 1.031,-1.104 2.268,-1.944 3.709,-2.52 1.439,-0.576 3.012,-0.864 4.715,-0.864 1.705,0 3.27,0.283 4.699,0.846 1.428,0.564 2.65,1.392 3.672,2.484 1.02,1.092 1.818,2.448 2.393,4.068 0.576,1.62 0.865,3.474 0.865,5.562 0,2.088 -0.289,3.942 -0.865,5.561 z m -7.541,-10.673 c -0.779,-1.176 -1.879,-1.764 -3.295,-1.764 -1.416,0 -2.502,0.576 -3.258,1.728 -0.756,1.152 -1.133,2.868 -1.133,5.148 0,2.281 0.389,4.009 1.17,5.184 0.779,1.176 1.877,1.764 3.293,1.764 1.416,0 2.502,-0.576 3.258,-1.728 0.756,-1.152 1.135,-2.868 1.135,-5.148 0,-2.28 -0.391,-4.008 -1.17,-5.184 z"
       id="path23"
       inkscape:connector-curvature="0"
       style="fill:#ffffff" /><path
       d="m 453.596,262.44 c -0.516,1.032 -1.236,1.872 -2.16,2.521 -0.924,0.649 -2.021,1.128 -3.293,1.439 -1.273,0.312 -2.664,0.469 -4.176,0.469 -2.041,0 -3.99,-0.295 -5.852,-0.883 -1.859,-0.588 -3.449,-1.313 -4.77,-2.178 l 3.385,-5.472 c 0.455,0.312 0.99,0.619 1.602,0.918 0.611,0.3 1.248,0.57 1.908,0.81 0.66,0.24 1.326,0.432 1.998,0.576 0.672,0.144 1.297,0.216 1.871,0.216 1.248,0 2.107,-0.12 2.574,-0.36 0.469,-0.24 0.703,-0.66 0.703,-1.26 0,-0.24 -0.066,-0.456 -0.199,-0.648 -0.131,-0.192 -0.359,-0.378 -0.684,-0.558 -0.324,-0.18 -0.762,-0.36 -1.314,-0.54 -0.551,-0.18 -1.248,-0.366 -2.088,-0.558 -1.512,-0.36 -2.832,-0.744 -3.959,-1.152 -1.129,-0.408 -2.064,-0.918 -2.809,-1.53 -0.744,-0.612 -1.303,-1.35 -1.674,-2.214 -0.373,-0.864 -0.559,-1.932 -0.559,-3.204 0,-1.175 0.234,-2.255 0.703,-3.24 0.467,-0.984 1.133,-1.824 1.998,-2.52 0.863,-0.696 1.908,-1.236 3.131,-1.62 1.225,-0.384 2.592,-0.576 4.105,-0.576 2.158,0 4.037,0.252 5.633,0.756 1.596,0.504 3.066,1.224 4.41,2.16 l -3.385,5.472 c -1.127,-0.768 -2.256,-1.355 -3.383,-1.764 -1.129,-0.408 -2.34,-0.612 -3.637,-0.612 -1.057,0 -1.752,0.144 -2.088,0.432 -0.336,0.288 -0.504,0.66 -0.504,1.116 0,0.24 0.066,0.45 0.199,0.63 0.131,0.18 0.354,0.348 0.666,0.504 0.311,0.156 0.73,0.312 1.26,0.468 0.527,0.156 1.199,0.33 2.016,0.522 1.584,0.384 2.951,0.805 4.104,1.26 1.152,0.456 2.1,0.996 2.844,1.62 0.744,0.625 1.297,1.368 1.656,2.232 0.359,0.864 0.541,1.884 0.541,3.06 0.002,1.441 -0.258,2.677 -0.773,3.708 z"
       id="path25"
       inkscape:connector-curvature="0"
       style="fill:#ffffff" /><path
       d="m 477.5,262.44 c -0.518,1.032 -1.236,1.872 -2.16,2.521 -0.924,0.649 -2.023,1.128 -3.295,1.439 -1.271,0.312 -2.664,0.469 -4.176,0.469 -2.039,0 -3.99,-0.295 -5.85,-0.883 -1.86,-0.588 -3.451,-1.313 -4.77,-2.178 l 3.383,-5.472 c 0.457,0.312 0.99,0.619 1.604,0.918 0.611,0.3 1.246,0.57 1.906,0.81 0.66,0.24 1.326,0.432 1.998,0.576 0.672,0.144 1.297,0.216 1.873,0.216 1.248,0 2.105,-0.12 2.574,-0.36 0.467,-0.24 0.701,-0.66 0.701,-1.26 0,-0.24 -0.066,-0.456 -0.197,-0.648 -0.133,-0.192 -0.359,-0.378 -0.684,-0.558 -0.324,-0.18 -0.764,-0.36 -1.314,-0.54 -0.553,-0.18 -1.248,-0.366 -2.088,-0.558 -1.512,-0.36 -2.832,-0.744 -3.961,-1.152 -1.127,-0.408 -2.064,-0.918 -2.807,-1.53 -0.744,-0.612 -1.303,-1.35 -1.674,-2.214 -0.373,-0.864 -0.559,-1.932 -0.559,-3.204 0,-1.175 0.234,-2.255 0.701,-3.24 0.469,-0.984 1.135,-1.824 1.998,-2.52 0.865,-0.696 1.908,-1.236 3.133,-1.62 1.225,-0.384 2.592,-0.576 4.104,-0.576 2.16,0 4.037,0.252 5.635,0.756 1.596,0.504 3.064,1.224 4.41,2.16 l -3.385,5.472 c -1.129,-0.768 -2.256,-1.355 -3.385,-1.764 -1.127,-0.408 -2.34,-0.612 -3.635,-0.612 -1.057,0 -1.752,0.144 -2.088,0.432 -0.338,0.288 -0.504,0.66 -0.504,1.116 0,0.24 0.064,0.45 0.197,0.63 0.131,0.18 0.354,0.348 0.666,0.504 0.312,0.156 0.732,0.312 1.26,0.468 0.527,0.156 1.199,0.33 2.016,0.522 1.584,0.384 2.953,0.805 4.105,1.26 1.15,0.456 2.1,0.996 2.844,1.62 0.742,0.625 1.295,1.368 1.656,2.232 0.359,0.864 0.539,1.884 0.539,3.06 0.002,1.441 -0.255,2.677 -0.771,3.708 z"
       id="path27"
       inkscape:connector-curvature="0"
       style="fill:#ffffff" /><path
       d="m 484.65,245.023 c -0.129,0.308 -0.307,0.575 -0.533,0.802 -0.226,0.227 -0.492,0.404 -0.801,0.532 -0.309,0.128 -0.643,0.193 -1.002,0.193 -0.359,0 -0.691,-0.064 -1,-0.193 -0.309,-0.128 -0.576,-0.305 -0.803,-0.532 -0.225,-0.227 -0.402,-0.494 -0.531,-0.802 -0.129,-0.308 -0.191,-0.642 -0.191,-1.001 0,-0.359 0.062,-0.693 0.191,-1.001 0.129,-0.308 0.307,-0.575 0.531,-0.801 0.227,-0.227 0.494,-0.404 0.803,-0.532 0.309,-0.128 0.641,-0.192 1,-0.192 0.359,0 0.693,0.064 1.002,0.192 0.309,0.128 0.574,0.306 0.801,0.532 0.227,0.226 0.404,0.494 0.533,0.801 0.127,0.308 0.191,0.642 0.191,1.001 10e-4,0.36 -0.064,0.694 -0.191,1.001 z m -0.375,-1.837 c -0.107,-0.259 -0.258,-0.484 -0.447,-0.675 -0.191,-0.191 -0.418,-0.341 -0.676,-0.448 -0.26,-0.107 -0.539,-0.161 -0.838,-0.161 -0.303,0 -0.582,0.054 -0.84,0.161 -0.256,0.107 -0.48,0.257 -0.672,0.448 -0.192,0.191 -0.34,0.417 -0.447,0.675 -0.107,0.259 -0.162,0.538 -0.162,0.836 0,0.304 0.055,0.583 0.162,0.84 0.107,0.256 0.256,0.48 0.447,0.672 0.191,0.192 0.416,0.341 0.672,0.448 0.258,0.107 0.537,0.161 0.84,0.161 0.299,0 0.578,-0.054 0.838,-0.161 0.258,-0.107 0.484,-0.256 0.676,-0.448 0.189,-0.191 0.34,-0.416 0.447,-0.672 0.107,-0.257 0.16,-0.537 0.16,-0.84 10e-4,-0.298 -0.052,-0.577 -0.16,-0.836 z m -0.972,0.773 c -0.107,0.136 -0.25,0.229 -0.428,0.28 l 0.568,1.113 h -0.551 l -0.537,-1.064 h -0.531 v 1.064 h -0.469 v -2.758 h 1.207 c 0.121,0 0.236,0.016 0.346,0.049 0.11,0.033 0.205,0.083 0.287,0.15 0.08,0.068 0.146,0.154 0.195,0.259 0.049,0.105 0.072,0.23 0.072,0.375 0.001,0.22 -0.052,0.397 -0.159,0.532 z m -0.436,-0.812 c -0.084,-0.065 -0.188,-0.098 -0.314,-0.098 h -0.729 v 0.784 h 0.729 c 0.127,0 0.23,-0.031 0.314,-0.094 0.086,-0.063 0.127,-0.162 0.127,-0.297 0,-0.131 -0.041,-0.229 -0.127,-0.295 z"
       id="path29"
       inkscape:connector-curvature="0"
       style="fill:#ffffff" /><path
       d="m 511.76,266.473 -1.98,-5.616 h -9.215 l -1.98,5.616 h -5.4 l 9.648,-25.2 h 4.896 l 9.574,25.2 h -5.543 z m -5.328,-14.976 c -0.264,-0.744 -0.51,-1.463 -0.738,-2.16 -0.229,-0.696 -0.402,-1.283 -0.521,-1.764 -0.121,0.48 -0.295,1.068 -0.521,1.764 -0.229,0.697 -0.475,1.417 -0.738,2.16 l -1.621,4.572 h 5.76 l -1.621,-4.572 z"
       id="path31"
       inkscape:connector-curvature="0"
       style="fill:#ffffff" /><path
       d="m 518.24,255.889 v -4.932 h 10.332 v 4.932 H 518.24 z"
       id="path33"
       inkscape:connector-curvature="0"
       style="fill:#ffffff" /><path
       d="m 552.512,266.473 v -9.252 c 0,-0.336 0.006,-0.768 0.018,-1.296 0.012,-0.528 0.02,-1.068 0.02,-1.62 0,-0.552 0.004,-1.068 0.018,-1.548 0.012,-0.48 0.018,-0.84 0.018,-1.08 -0.193,0.48 -0.451,1.116 -0.775,1.908 -0.326,0.792 -0.656,1.548 -0.992,2.268 l -5.127,11.196 -5.098,-11.196 c -0.336,-0.72 -0.666,-1.476 -0.988,-2.268 -0.322,-0.792 -0.58,-1.427 -0.771,-1.908 0,0.24 0.006,0.6 0.018,1.08 0.012,0.48 0.018,0.996 0.018,1.548 0,0.552 0.006,1.092 0.02,1.62 0.012,0.528 0.018,0.96 0.018,1.296 v 9.252 h -4.932 v -25.2 h 4.859 l 5.242,11.412 c 0.168,0.36 0.334,0.738 0.502,1.134 0.168,0.396 0.33,0.786 0.486,1.17 0.154,0.384 0.299,0.744 0.43,1.08 0.133,0.336 0.234,0.612 0.307,0.828 0.168,-0.479 0.408,-1.122 0.721,-1.926 0.312,-0.804 0.639,-1.566 0.975,-2.286 l 5.09,-11.412 h 4.932 v 25.2 h -5.009 z"
       id="path35"
       inkscape:connector-curvature="0"
       style="fill:#ffffff" /><path
       d="m 583.705,259.489 c -0.588,1.56 -1.434,2.916 -2.537,4.068 l 1.871,2.736 -3.852,2.52 -1.801,-2.628 c -1.127,0.456 -2.375,0.685 -3.744,0.685 -1.727,0 -3.27,-0.318 -4.625,-0.955 -1.355,-0.635 -2.502,-1.523 -3.438,-2.664 -0.938,-1.139 -1.65,-2.507 -2.143,-4.104 -0.492,-1.596 -0.738,-3.354 -0.738,-5.274 0,-1.92 0.246,-3.678 0.738,-5.274 0.492,-1.596 1.205,-2.964 2.143,-4.104 0.936,-1.14 2.082,-2.028 3.438,-2.664 1.355,-0.636 2.898,-0.954 4.625,-0.954 1.729,0 3.271,0.318 4.627,0.954 1.355,0.636 2.502,1.524 3.438,2.664 0.936,1.14 1.65,2.508 2.143,4.104 0.492,1.596 0.738,3.354 0.738,5.274 0,2.184 -0.295,4.056 -0.883,5.616 z m -4.625,-8.766 c -0.217,-0.972 -0.559,-1.818 -1.027,-2.538 -0.467,-0.72 -1.068,-1.284 -1.799,-1.692 -0.732,-0.408 -1.602,-0.612 -2.611,-0.612 -1.008,0 -1.877,0.204 -2.609,0.612 -0.732,0.408 -1.332,0.972 -1.799,1.692 -0.469,0.72 -0.811,1.566 -1.027,2.538 -0.215,0.972 -0.324,2.022 -0.324,3.15 0,1.152 0.115,2.232 0.342,3.24 0.229,1.008 0.582,1.878 1.062,2.61 0.48,0.732 1.092,1.314 1.836,1.746 0.744,0.432 1.621,0.648 2.629,0.648 0.143,0 0.287,-0.006 0.432,-0.019 0.145,-0.012 0.275,-0.03 0.396,-0.054 l -1.693,-2.521 3.854,-2.52 1.619,2.412 c 0.408,-0.696 0.684,-1.523 0.828,-2.484 0.145,-0.959 0.217,-1.98 0.217,-3.06 -0.002,-1.126 -0.111,-2.176 -0.326,-3.148 z"
       id="path37"
       inkscape:connector-curvature="0"
       style="fill:#ffffff" /></g></svg>