<?xml version="1.0" encoding="UTF-8" standalone="no"?>
<!-- Generator: Adobe Illustrator 16.0.4, SVG Export Plug-In . SVG Version: 6.00 Build 0)  -->

<svg
   xmlns:dc="http://purl.org/dc/elements/1.1/"
   xmlns:cc="http://creativecommons.org/ns#"
   xmlns:rdf="http://www.w3.org/1999/02/22-rdf-syntax-ns#"
   xmlns:svg="http://www.w3.org/2000/svg"
   xmlns="http://www.w3.org/2000/svg"
   xmlns:sodipodi="http://sodipodi.sourceforge.net/DTD/sodipodi-0.dtd"
   xmlns:inkscape="http://www.inkscape.org/namespaces/inkscape"
   version="1.1"
   id="Layer_1"
   x="0px"
   y="0px"
   width="282.082"
   height="22.002001"
   viewBox="0 0 282.082 22.002001"
   enable-background="new 0 0 792 612"
   xml:space="preserve"
   inkscape:version="0.48.4 r9939"
   sodipodi:docname="RHJB_Fuse_UXlogotype_0513LL_white.svg"><metadata
     id="metadata43"><rdf:RDF><cc:Work
         rdf:about=""><dc:format>image/svg+xml</dc:format><dc:type
           rdf:resource="http://purl.org/dc/dcmitype/StillImage" /></cc:Work></rdf:RDF></metadata><defs
     id="defs41" /><sodipodi:namedview
     pagecolor="#ffffff"
     bordercolor="#666666"
     borderopacity="1"
     objecttolerance="10"
     gridtolerance="10"
     guidetolerance="10"
     inkscape:pageopacity="0"
     inkscape:pageshadow="2"
     inkscape:window-width="1920"
     inkscape:window-height="1029"
     id="namedview39"
     showgrid="false"
     fit-margin-top="2"
     fit-margin-right="2"
     fit-margin-bottom="2"
     fit-margin-left="2"
     inkscape:zoom="0.36489899"
     inkscape:cx="148.728"
     inkscape:cy="-16.095"
     inkscape:window-x="1920"
     inkscape:window-y="0"
     inkscape:window-maximized="1"
     inkscape:current-layer="Layer_1" /><g
     id="g3"
     transform="translate(-247.272,-267.903)"><path
       d="m 258.807,287.631 -2.849,-5.884 h -1.95 v 5.884 h -4.736 v -17.453 h 7.803 c 1.013,0 1.94,0.104 2.779,0.312 0.839,0.208 1.558,0.536 2.157,0.984 0.598,0.449 1.06,1.035 1.384,1.757 0.324,0.724 0.486,1.6 0.486,2.631 0,1.313 -0.283,2.384 -0.85,3.215 -0.566,0.832 -1.333,1.463 -2.299,1.895 l 3.498,6.657 h -5.423 z m -0.227,-12.989 c -0.325,-0.349 -0.873,-0.524 -1.641,-0.524 h -2.932 v 3.815 h 2.856 c 0.802,0 1.37,-0.167 1.704,-0.499 0.334,-0.332 0.501,-0.814 0.501,-1.446 0.001,-0.549 -0.162,-0.997 -0.488,-1.346 z"
       id="path5"
       inkscape:connector-curvature="0"
       style="fill:#ffffff" /><path
       d="m 267.121,287.631 v -17.453 h 13.363 v 4.064 h -8.576 v 2.343 h 5.161 v 3.99 h -5.161 v 2.99 h 8.75 v 4.065 h -13.537 z"
       id="path7"
       inkscape:connector-curvature="0"
       style="fill:#ffffff" /><path
       d="m 298.234,282.956 c -0.399,1.121 -0.997,2.027 -1.795,2.717 -0.797,0.69 -1.782,1.188 -2.954,1.496 -1.172,0.308 -2.53,0.462 -4.076,0.462 h -5.659 v -17.453 h 6.108 c 1.363,0 2.601,0.142 3.715,0.425 1.113,0.283 2.057,0.76 2.83,1.433 0.772,0.673 1.371,1.558 1.795,2.655 0.424,1.097 0.636,2.468 0.636,4.114 -10e-4,1.644 -0.201,3.028 -0.6,4.151 z m -4.574,-6.146 c -0.142,-0.582 -0.371,-1.055 -0.686,-1.42 -0.315,-0.366 -0.731,-0.636 -1.246,-0.811 -0.516,-0.174 -1.147,-0.262 -1.895,-0.262 h -1.197 v 9.174 h 1.047 c 0.748,0 1.387,-0.078 1.919,-0.236 0.532,-0.158 0.968,-0.415 1.309,-0.773 0.34,-0.356 0.585,-0.831 0.735,-1.421 0.149,-0.589 0.224,-1.317 0.224,-2.181 10e-4,-0.799 -0.069,-1.488 -0.21,-2.07 z"
       id="path9"
       inkscape:connector-curvature="0"
       style="fill:#ffffff" /><path
       d="m 319.35,287.631 v -6.882 h -5.435 v 6.882 h -4.937 v -17.453 h 4.937 v 6.358 h 5.435 v -6.358 h 4.936 v 17.453 h -4.936 z"
       id="path11"
       inkscape:connector-curvature="0"
       style="fill:#ffffff" /><path
       d="m 339.095,287.631 -0.947,-3.067 h -5.235 l -0.947,3.067 h -5.186 l 6.333,-17.453 H 338 l 6.332,17.453 h -5.237 z m -2.444,-8.054 c -0.149,-0.564 -0.283,-1.055 -0.398,-1.47 -0.117,-0.415 -0.221,-0.79 -0.312,-1.123 -0.091,-0.332 -0.17,-0.636 -0.236,-0.91 -0.066,-0.274 -0.125,-0.561 -0.175,-0.86 -0.05,0.3 -0.108,0.59 -0.174,0.873 -0.066,0.283 -0.146,0.59 -0.237,0.922 -0.092,0.333 -0.195,0.706 -0.312,1.122 -0.116,0.416 -0.249,0.898 -0.398,1.446 l -0.325,1.147 h 2.893 l -0.326,-1.147 z"
       id="path13"
       inkscape:connector-curvature="0"
       style="fill:#ffffff" /><path
       d="m 353.455,274.392 v 13.239 h -4.837 v -13.239 h -4.886 v -4.213 h 14.608 v 4.213 h -4.885 z"
       id="path15"
       inkscape:connector-curvature="0"
       style="fill:#ffffff" /><path
       d="m 364.028,272.776 c -0.089,0.213 -0.212,0.398 -0.368,0.555 -0.157,0.157 -0.342,0.28 -0.556,0.369 -0.213,0.088 -0.444,0.133 -0.692,0.133 -0.249,0 -0.48,-0.045 -0.693,-0.133 -0.213,-0.089 -0.398,-0.212 -0.555,-0.369 -0.157,-0.157 -0.28,-0.342 -0.369,-0.555 -0.089,-0.213 -0.133,-0.445 -0.133,-0.694 0,-0.248 0.044,-0.479 0.133,-0.692 0.089,-0.214 0.212,-0.398 0.369,-0.555 0.156,-0.157 0.342,-0.279 0.555,-0.369 0.213,-0.088 0.444,-0.133 0.693,-0.133 0.248,0 0.479,0.045 0.692,0.133 0.214,0.089 0.398,0.211 0.556,0.369 0.156,0.157 0.279,0.341 0.368,0.555 0.089,0.213 0.134,0.444 0.134,0.692 0,0.25 -0.045,0.481 -0.134,0.694 z m -0.258,-1.272 c -0.074,-0.179 -0.178,-0.335 -0.311,-0.468 -0.133,-0.132 -0.288,-0.235 -0.468,-0.31 -0.18,-0.075 -0.373,-0.112 -0.579,-0.112 -0.21,0 -0.404,0.037 -0.582,0.112 -0.178,0.074 -0.333,0.177 -0.465,0.31 -0.133,0.133 -0.236,0.289 -0.311,0.468 -0.075,0.18 -0.111,0.373 -0.111,0.579 0,0.211 0.036,0.404 0.111,0.583 0.074,0.178 0.178,0.333 0.311,0.465 0.132,0.132 0.287,0.236 0.465,0.31 0.178,0.075 0.372,0.111 0.582,0.111 0.206,0 0.399,-0.037 0.579,-0.111 0.18,-0.074 0.335,-0.178 0.468,-0.31 0.133,-0.133 0.236,-0.288 0.311,-0.465 0.074,-0.178 0.111,-0.372 0.111,-0.583 0,-0.207 -0.037,-0.399 -0.111,-0.579 z m -0.674,0.535 c -0.074,0.094 -0.173,0.159 -0.296,0.194 l 0.393,0.771 h -0.381 l -0.372,-0.737 h -0.367 v 0.737 h -0.325 v -1.91 h 0.836 c 0.084,0 0.164,0.012 0.24,0.034 0.075,0.023 0.142,0.058 0.197,0.104 0.057,0.047 0.102,0.107 0.136,0.18 0.033,0.073 0.051,0.16 0.051,0.26 -0.001,0.151 -0.038,0.274 -0.112,0.367 z m -0.301,-0.562 c -0.059,-0.044 -0.131,-0.067 -0.218,-0.067 h -0.505 v 0.543 h 0.505 c 0.087,0 0.159,-0.021 0.218,-0.065 0.058,-0.043 0.087,-0.112 0.087,-0.206 0,-0.092 -0.029,-0.16 -0.087,-0.205 z"
       id="path17"
       inkscape:connector-curvature="0"
       style="fill:#ffffff" /><path
       d="m 380.412,283.604 c -0.3,0.906 -0.753,1.679 -1.358,2.318 -0.607,0.64 -1.372,1.131 -2.294,1.472 -0.923,0.34 -1.999,0.511 -3.229,0.511 -1.164,0 -2.169,-0.142 -3.017,-0.424 -0.848,-0.283 -1.575,-0.686 -2.182,-1.209 -0.607,-0.523 -1.105,-1.159 -1.496,-1.907 -0.391,-0.748 -0.693,-1.579 -0.909,-2.493 l 4.736,-1.247 c 0.299,0.998 0.656,1.75 1.072,2.257 0.415,0.507 1.038,0.761 1.869,0.761 0.781,0 1.363,-0.245 1.745,-0.735 0.383,-0.49 0.574,-1.159 0.574,-2.008 v -10.72 h 4.936 v 10.347 c 0.001,1.145 -0.148,2.171 -0.447,3.077 z"
       id="path19"
       inkscape:connector-curvature="0"
       style="fill:#ffffff" /><path
       d="m 397.64,286.161 c -1.081,0.979 -2.727,1.47 -4.937,1.47 h -8.377 v -17.453 h 8.427 c 2.16,0 3.719,0.392 4.674,1.175 0.956,0.782 1.434,1.906 1.434,3.372 0,0.95 -0.203,1.674 -0.61,2.173 -0.408,0.5 -0.902,0.916 -1.483,1.25 0.798,0.332 1.412,0.809 1.845,1.431 0.432,0.623 0.648,1.432 0.648,2.427 -0.001,1.791 -0.541,3.177 -1.621,4.155 z m -3.84,-11.765 c -0.216,-0.268 -0.615,-0.402 -1.196,-0.402 h -3.641 v 2.767 h 3.641 c 0.564,0 0.959,-0.125 1.184,-0.377 0.225,-0.252 0.337,-0.587 0.337,-1.006 -10e-4,-0.387 -0.109,-0.713 -0.325,-0.982 z m 0.299,6.478 c -0.282,-0.299 -0.715,-0.449 -1.296,-0.449 h -3.84 v 3.392 h 3.814 c 0.599,0 1.039,-0.162 1.321,-0.487 0.283,-0.324 0.425,-0.735 0.425,-1.233 0,-0.517 -0.141,-0.924 -0.424,-1.223 z"
       id="path21"
       inkscape:connector-curvature="0"
       style="fill:#ffffff" /><path
       d="m 416.86,282.731 c -0.398,1.121 -0.956,2.065 -1.67,2.829 -0.715,0.765 -1.571,1.347 -2.568,1.745 -0.997,0.399 -2.086,0.599 -3.266,0.599 -1.181,0 -2.266,-0.195 -3.253,-0.586 -0.99,-0.39 -1.842,-0.964 -2.556,-1.72 -0.715,-0.757 -1.268,-1.696 -1.658,-2.817 -0.391,-1.122 -0.586,-2.406 -0.586,-3.852 0,-1.446 0.199,-2.729 0.599,-3.852 0.398,-1.121 0.955,-2.064 1.67,-2.83 0.714,-0.764 1.57,-1.346 2.568,-1.745 0.996,-0.399 2.085,-0.599 3.266,-0.599 1.18,0 2.264,0.195 3.253,0.586 0.989,0.39 1.837,0.963 2.543,1.72 0.706,0.757 1.26,1.695 1.658,2.817 0.398,1.123 0.599,2.406 0.599,3.852 0,1.446 -0.2,2.731 -0.599,3.853 z m -5.223,-7.391 c -0.539,-0.814 -1.3,-1.222 -2.28,-1.222 -0.981,0 -1.733,0.399 -2.257,1.196 -0.523,0.798 -0.785,1.987 -0.785,3.565 0,1.58 0.271,2.776 0.811,3.589 0.54,0.815 1.301,1.223 2.281,1.223 0.98,0 1.732,-0.399 2.256,-1.196 0.523,-0.799 0.785,-1.986 0.785,-3.566 -10e-4,-1.578 -0.27,-2.775 -0.811,-3.589 z"
       id="path23"
       inkscape:connector-curvature="0"
       style="fill:#ffffff" /><path
       d="m 433.253,284.837 c -0.358,0.716 -0.856,1.298 -1.496,1.746 -0.64,0.449 -1.4,0.781 -2.281,0.997 -0.881,0.216 -1.845,0.324 -2.892,0.324 -1.413,0 -2.764,-0.203 -4.052,-0.61 -1.288,-0.407 -2.39,-0.91 -3.303,-1.509 l 2.343,-3.79 c 0.316,0.217 0.686,0.43 1.11,0.636 0.423,0.209 0.863,0.396 1.32,0.562 0.457,0.167 0.918,0.299 1.384,0.399 0.465,0.1 0.898,0.148 1.296,0.148 0.865,0 1.459,-0.082 1.783,-0.249 0.324,-0.166 0.486,-0.457 0.486,-0.872 0,-0.166 -0.046,-0.315 -0.138,-0.449 -0.091,-0.133 -0.249,-0.262 -0.473,-0.386 -0.225,-0.125 -0.528,-0.25 -0.911,-0.374 -0.382,-0.125 -0.864,-0.253 -1.445,-0.387 -1.047,-0.249 -1.961,-0.515 -2.742,-0.798 -0.781,-0.282 -1.43,-0.636 -1.944,-1.06 -0.516,-0.423 -0.902,-0.935 -1.159,-1.533 -0.259,-0.599 -0.387,-1.338 -0.387,-2.219 0,-0.814 0.162,-1.562 0.486,-2.244 0.323,-0.681 0.785,-1.263 1.383,-1.745 0.599,-0.481 1.322,-0.856 2.169,-1.122 0.849,-0.266 1.795,-0.399 2.843,-0.399 1.495,0 2.796,0.174 3.901,0.524 1.105,0.349 2.123,0.847 3.054,1.496 l -2.344,3.789 c -0.781,-0.532 -1.562,-0.938 -2.343,-1.221 -0.781,-0.283 -1.621,-0.423 -2.519,-0.423 -0.731,0 -1.213,0.099 -1.445,0.299 -0.233,0.199 -0.35,0.457 -0.35,0.772 0,0.166 0.046,0.312 0.138,0.437 0.091,0.125 0.245,0.241 0.461,0.349 0.216,0.108 0.507,0.216 0.873,0.324 0.365,0.108 0.83,0.229 1.396,0.362 1.097,0.266 2.045,0.558 2.843,0.873 0.797,0.316 1.454,0.69 1.969,1.121 0.515,0.433 0.897,0.948 1.147,1.546 0.249,0.599 0.374,1.306 0.374,2.12 10e-4,0.996 -0.179,1.852 -0.535,2.566 z"
       id="path25"
       inkscape:connector-curvature="0"
       style="fill:#ffffff" /><path
       d="m 449.806,284.837 c -0.357,0.716 -0.855,1.298 -1.496,1.746 -0.64,0.449 -1.4,0.781 -2.28,0.997 -0.882,0.216 -1.846,0.324 -2.893,0.324 -1.412,0 -2.763,-0.203 -4.051,-0.61 -1.288,-0.407 -2.39,-0.91 -3.304,-1.509 l 2.344,-3.79 c 0.315,0.217 0.686,0.43 1.109,0.636 0.424,0.209 0.864,0.396 1.321,0.562 0.457,0.167 0.918,0.299 1.384,0.399 0.465,0.1 0.897,0.148 1.296,0.148 0.864,0 1.459,-0.082 1.783,-0.249 0.323,-0.166 0.486,-0.457 0.486,-0.872 0,-0.166 -0.046,-0.315 -0.138,-0.449 -0.092,-0.133 -0.249,-0.262 -0.474,-0.386 -0.225,-0.125 -0.528,-0.25 -0.91,-0.374 -0.382,-0.125 -0.864,-0.253 -1.446,-0.387 -1.047,-0.249 -1.961,-0.515 -2.742,-0.798 -0.78,-0.282 -1.43,-0.636 -1.944,-1.06 -0.515,-0.423 -0.901,-0.935 -1.159,-1.533 -0.258,-0.598 -0.387,-1.338 -0.387,-2.219 0,-0.814 0.162,-1.562 0.486,-2.244 0.324,-0.681 0.785,-1.263 1.384,-1.745 0.599,-0.481 1.321,-0.856 2.169,-1.122 0.848,-0.266 1.795,-0.399 2.843,-0.399 1.495,0 2.796,0.174 3.901,0.524 1.104,0.349 2.123,0.847 3.054,1.496 l -2.344,3.789 c -0.781,-0.532 -1.562,-0.938 -2.344,-1.221 -0.78,-0.283 -1.62,-0.423 -2.518,-0.423 -0.731,0 -1.213,0.099 -1.446,0.299 -0.232,0.199 -0.349,0.457 -0.349,0.772 0,0.166 0.046,0.312 0.138,0.437 0.091,0.125 0.244,0.241 0.461,0.349 0.216,0.108 0.507,0.216 0.872,0.324 0.365,0.108 0.831,0.229 1.396,0.362 1.097,0.266 2.044,0.558 2.842,0.873 0.798,0.316 1.454,0.69 1.97,1.121 0.515,0.433 0.897,0.948 1.146,1.546 0.249,0.599 0.375,1.306 0.375,2.12 0.002,0.996 -0.178,1.852 -0.535,2.566 z"
       id="path27"
       inkscape:connector-curvature="0"
       style="fill:#ffffff" /><path
       d="m 455.256,272.776 c -0.089,0.213 -0.212,0.398 -0.368,0.555 -0.157,0.157 -0.342,0.28 -0.556,0.369 -0.213,0.088 -0.444,0.133 -0.692,0.133 -0.249,0 -0.48,-0.045 -0.693,-0.133 -0.213,-0.089 -0.398,-0.212 -0.556,-0.369 -0.156,-0.157 -0.279,-0.342 -0.368,-0.555 -0.089,-0.213 -0.133,-0.445 -0.133,-0.694 0,-0.248 0.044,-0.479 0.133,-0.692 0.089,-0.214 0.212,-0.398 0.368,-0.555 0.157,-0.157 0.343,-0.279 0.556,-0.369 0.213,-0.088 0.444,-0.133 0.693,-0.133 0.248,0 0.479,0.045 0.692,0.133 0.214,0.089 0.398,0.211 0.556,0.369 0.156,0.157 0.279,0.341 0.368,0.555 0.089,0.213 0.134,0.444 0.134,0.692 0,0.25 -0.045,0.481 -0.134,0.694 z m -0.26,-1.272 c -0.074,-0.179 -0.178,-0.335 -0.31,-0.468 -0.133,-0.132 -0.289,-0.235 -0.468,-0.31 -0.18,-0.075 -0.373,-0.112 -0.579,-0.112 -0.21,0 -0.404,0.037 -0.582,0.112 -0.178,0.074 -0.333,0.177 -0.465,0.31 -0.133,0.133 -0.236,0.289 -0.311,0.468 -0.075,0.18 -0.112,0.373 -0.112,0.579 0,0.211 0.037,0.404 0.112,0.583 0.074,0.178 0.178,0.333 0.311,0.465 0.132,0.132 0.287,0.236 0.465,0.31 0.178,0.075 0.372,0.111 0.582,0.111 0.206,0 0.399,-0.037 0.579,-0.111 0.179,-0.074 0.335,-0.178 0.468,-0.31 0.132,-0.133 0.235,-0.288 0.31,-0.465 0.075,-0.178 0.112,-0.372 0.112,-0.583 0,-0.207 -0.037,-0.399 -0.112,-0.579 z m -0.673,0.535 c -0.075,0.094 -0.173,0.159 -0.296,0.194 l 0.393,0.771 h -0.381 l -0.372,-0.737 H 453.3 v 0.737 h -0.325 v -1.91 h 0.836 c 0.084,0 0.164,0.012 0.239,0.034 0.076,0.023 0.142,0.058 0.198,0.104 0.057,0.047 0.102,0.107 0.136,0.18 0.034,0.073 0.051,0.16 0.051,0.26 0,0.151 -0.038,0.274 -0.112,0.367 z m -0.302,-0.562 c -0.058,-0.044 -0.13,-0.067 -0.218,-0.067 H 453.3 v 0.543 h 0.504 c 0.088,0 0.16,-0.021 0.218,-0.065 0.06,-0.043 0.089,-0.112 0.089,-0.206 -10e-4,-0.092 -0.03,-0.16 -0.09,-0.205 z"
       id="path29"
       inkscape:connector-curvature="0"
       style="fill:#ffffff" /><path
       d="m 467.919,273.594 v 3.266 h 5.26 v 3.416 h -5.26 v 7.355 h -3.465 v -17.453 h 12.465 v 3.416 h -9 z"
       id="path31"
       inkscape:connector-curvature="0"
       style="fill:#ffffff" /><path
       d="m 492.154,285.822 c -1.244,1.388 -2.978,2.082 -5.2,2.082 -1.046,0 -2.004,-0.175 -2.875,-0.523 -0.871,-0.348 -1.614,-0.86 -2.228,-1.533 -0.614,-0.674 -1.092,-1.5 -1.432,-2.48 -0.339,-0.98 -0.51,-2.11 -0.51,-3.391 v -9.798 h 3.466 v 9.748 c 0,1.414 0.316,2.527 0.95,3.341 0.634,0.814 1.51,1.222 2.628,1.222 1.116,0 1.996,-0.398 2.639,-1.196 0.642,-0.797 0.963,-1.902 0.963,-3.315 v -9.798 h 3.465 v 9.748 c 0.001,2.54 -0.622,4.506 -1.866,5.893 z"
       id="path33"
       inkscape:connector-curvature="0"
       style="fill:#ffffff" /><path
       d="m 510.8,284.619 c -0.267,0.681 -0.682,1.265 -1.247,1.755 -0.565,0.489 -1.275,0.867 -2.132,1.132 -0.855,0.266 -1.882,0.398 -3.078,0.398 -1.463,0 -2.792,-0.282 -3.989,-0.848 -1.196,-0.565 -2.128,-1.337 -2.792,-2.318 l 2.518,-2.243 c 0.615,0.714 1.301,1.225 2.057,1.532 0.757,0.309 1.559,0.461 2.406,0.461 1.047,0 1.815,-0.148 2.306,-0.448 0.491,-0.3 0.736,-0.781 0.736,-1.446 0,-0.281 -0.051,-0.527 -0.149,-0.734 -0.101,-0.209 -0.287,-0.403 -0.562,-0.587 -0.274,-0.183 -0.669,-0.356 -1.185,-0.523 -0.515,-0.166 -1.18,-0.34 -1.994,-0.523 -0.798,-0.184 -1.533,-0.398 -2.207,-0.648 -0.673,-0.249 -1.25,-0.564 -1.732,-0.947 -0.482,-0.383 -0.856,-0.864 -1.121,-1.446 -0.267,-0.582 -0.399,-1.305 -0.399,-2.169 0,-0.798 0.162,-1.512 0.486,-2.144 0.324,-0.632 0.769,-1.167 1.334,-1.608 0.564,-0.439 1.226,-0.776 1.981,-1.009 0.755,-0.233 1.567,-0.35 2.432,-0.35 1.362,0 2.555,0.243 3.577,0.729 1.021,0.485 1.948,1.164 2.779,2.034 l -2.518,2.448 c -0.565,-0.582 -1.168,-1.027 -1.808,-1.334 -0.64,-0.308 -1.358,-0.461 -2.156,-0.461 -0.466,0 -0.856,0.046 -1.172,0.137 -0.316,0.091 -0.573,0.211 -0.773,0.361 -0.199,0.149 -0.34,0.315 -0.424,0.498 -0.083,0.182 -0.124,0.373 -0.124,0.572 0,0.282 0.054,0.518 0.162,0.709 0.107,0.191 0.295,0.361 0.561,0.511 0.266,0.149 0.624,0.29 1.072,0.422 0.449,0.133 1.022,0.282 1.721,0.449 0.697,0.165 1.392,0.361 2.081,0.584 0.689,0.224 1.312,0.535 1.87,0.933 0.557,0.399 1.01,0.905 1.358,1.519 0.35,0.613 0.523,1.393 0.523,2.339 0,0.828 -0.133,1.583 -0.398,2.263 z"
       id="path35"
       inkscape:connector-curvature="0"
       style="fill:#ffffff" /><path
       d="m 514.889,287.631 v -17.453 h 12.091 v 3.416 h -8.626 v 2.991 h 5.012 v 3.416 h -5.012 v 4.214 h 9 v 3.416 h -12.465 z"
       id="path37"
       inkscape:connector-curvature="0"
       style="fill:#ffffff" /></g></svg>