<?xml version="1.0" encoding="utf-8"?>
<!-- Generator: Adobe Illustrator 16.0.0, SVG Export Plug-In . SVG Version: 6.00 Build 0)  -->
<!DOCTYPE svg PUBLIC "-//W3C//DTD SVG 1.1//EN" "http://www.w3.org/Graphics/SVG/1.1/DTD/svg11.dtd">
<svg version="1.1" id="Layer_1" xmlns="http://www.w3.org/2000/svg" xmlns:xlink="http://www.w3.org/1999/xlink" x="0px" y="0px"
	 width="256px" height="256px" viewBox="0 0 256 256" enable-background="new 0 0 256 256" xml:space="preserve">
<g>
	<g>
		<circle fill="#4D834F" cx="128" cy="128" r="128"/>
		<g>
			<g>
				<path fill="#96CD86" d="M193.542,95.378c-4.192-8.384-14.367-11.799-22.763-7.653c2.943-4.745,3.455-10.845,0.793-16.214
					c-4.092-8.252-14.102-11.622-22.352-7.526c-0.637,0.316-1.246,0.67-1.824,1.053c0.023-2.918-0.608-5.889-1.998-8.681
					c-4.703-9.485-16.209-13.355-25.691-8.652c-0.936,0.462-1.874,0.917-2.636,1.582c-1.206,1.051,0.216,1.727,0.812,1.506
					c8.397-3.103,17.954,0.567,22.026,8.766c1.854,3.741,2.271,7.821,1.454,11.608c-0.403,1.879-1.233,3.619-2.096,5.343
					c-1.175,2.36,1.424,3.107,2.945,1.483c2.014-2.15,3.355-4.496,4.334-7.479c5.087-4.186,16.653-3.46,20.246,3.785
					c2.705,5.448,1.893,11.718-1.566,16.243c-1.393,1.821,1.809,0.94,3.049,0.317c7.639-3.337,16.631-0.16,20.396,7.378
					c3.262,6.529,1.57,14.238-3.648,18.851c-1.006,0.886-0.844,2.004,0.898,1.134C194.334,114.017,197.746,103.791,193.542,95.378z"
					/>
			</g>
			<g>
				<path fill="#FFFFFF" d="M122.052,242.177c0.026,0.013,0.055,0.013,0.084,0.013C122.107,242.189,122.078,242.189,122.052,242.177
					z"/>
				<path fill="#FFFFFF" d="M105.05,129.553c-1.117,1.563-2.512,2.98-4.217,4.18c9.718,13.508,22.505,28.86,30.547,28.86
					c6.529,0,12.867-8.932,17.838-18.661c-3.184,0.612-6.534,0.963-9.997,0.963C123.95,144.895,110.856,138.583,105.05,129.553z"/>
				<path fill="#96CD86" d="M158.488,238.213c12.871-3.686,24.175-9.27,33.445-15.411c1.842-1.228-11.082-16.305-36.406-16.305
					C149.021,206.497,143.521,223.248,158.488,238.213z"/>
				<path fill="#96CD86" d="M131.904,207.793c-12.783,0-23.395,24.905-5.315,34.521c7.888,0.351,18.106-0.99,22.101-1.812
					C125.137,216.953,138.625,207.793,131.904,207.793z"/>
				<path fill="#FFFFFF" d="M128,13.625c-63.153,0-114.359,51.197-114.359,114.357c0,32.267,13.374,61.415,34.872,82.211
					c16.024-7.646,41.671-12.883,71.054-13.732v-26.273l-27.221-32.783c-1.939,0.441-3.95,0.748-6.071,0.748
					c-11.881,0-21.482-7.357-21.482-16.438c0-0.731,0.137-1.432,0.262-2.136c-8.082-3.365-13.763-11.32-13.763-20.625
					c0-11.237,8.334-20.452,19.139-22.012c-0.362-1.609-0.586-3.247-0.586-4.958c0-12.339,9.994-22.343,22.333-22.343
					c5.502,0,10.471,2.068,14.352,5.368c3.058-8.983,11.46-15.479,21.471-15.479c10.806,0,19.797,7.537,22.138,17.637
					c2.543-1.032,5.305-1.627,8.209-1.627c12.116,0,21.916,9.806,21.916,21.917c0,1.508-0.142,2.963-0.445,4.389
					c0.586-0.047,1.117-0.174,1.699-0.174c11.869,0,21.5,9.632,21.5,21.499c0,11.865-9.633,21.492-21.5,21.492
					c-1.953,0-3.795-0.338-5.578-0.825c-1.68,6.244-6.592,11.69-13.543,15.486l-25.129,32.555v24.595
					c29.063,0.922,54.33,6.143,70.193,13.738c21.523-20.799,34.896-49.947,34.896-82.229C242.355,64.822,191.15,13.625,128,13.625z"
					/>
				<path fill="#96CD86" d="M94.329,237.292c0-16.937,22.14-32.665,14.686-32.665c-27.362,0-47.631,16.303-45.816,17.545
					C71.992,228.161,84.362,234.625,94.329,237.292z"/>
			</g>
		</g>
	</g>
</g>
</svg>
