<?xml version="1.0" encoding="UTF-8" standalone="no"?>
<svg
   xmlns:dc="http://purl.org/dc/elements/1.1/"
   xmlns:cc="http://creativecommons.org/ns#"
   xmlns:rdf="http://www.w3.org/1999/02/22-rdf-syntax-ns#"
   xmlns:svg="http://www.w3.org/2000/svg"
   xmlns="http://www.w3.org/2000/svg"
   viewBox="0 0 232.175 62.700001"
   height="62.700001"
   width="232.175"
   xml:space="preserve"
   version="1.1"
   id="svg2"><metadata
     id="metadata8"><rdf:RDF><cc:Work
         rdf:about=""><dc:format>image/svg+xml</dc:format><dc:type
           rdf:resource="http://purl.org/dc/dcmitype/StillImage" /></cc:Work></rdf:RDF></metadata><defs
     id="defs6" /><g
     transform="matrix(1.25,0,0,-1.25,0,62.7)"
     id="g10"><g
       transform="scale(0.1,0.1)"
       id="g12"><path
         id="path14"
         style="fill:#2e2d2d;fill-opacity:1;fill-rule:evenodd;stroke:none"
         d="m 279.484,235.031 c 0,5.418 -2.851,10.399 -7.531,13.086 l -124.687,71.758 c -2.11,1.238 -4.473,1.883 -6.864,1.98 -0.214,0 -1.117,0 -1.289,0 -2.383,-0.097 -4.746,-0.742 -6.886,-1.98 L 7.53906,248.117 C 2.89063,245.43 0,240.449 0,235.031 L 0.273438,41.8086 c 0,-2.6875 1.398442,-5.1875 3.761722,-6.5039 2.3125,-1.3867 5.17578,-1.3867 7.48044,0 l 74.1016,42.4297 c 4.6875,2.7851 7.5391,7.6953 7.5391,13.0664 l 0,90.2732 c 0,5.383 2.8515,10.364 7.5197,13.039 l 31.551,18.172 c 2.351,1.36 4.921,2.024 7.55,2.024 2.567,0 5.203,-0.664 7.489,-2.024 l 31.543,-18.172 c 4.668,-2.675 7.531,-7.656 7.531,-13.039 l 0,-90.2732 c 0,-5.3711 2.89,-10.3125 7.547,-13.0664 l 74.082,-42.4297 c 2.324,-1.3867 5.226,-1.3867 7.527,0 2.297,1.3164 3.742,3.8164 3.742,6.5039 l 0.246,193.2224" /><path
         id="path16"
         style="fill:#2e2d2d;fill-opacity:1;fill-rule:evenodd;stroke:none"
         d="m 933.711,134.422 c 0,-1.344 -0.719,-2.59 -1.887,-3.258 L 889,106.477 c -1.164,-0.668 -2.598,-0.668 -3.762,0 l -42.828,24.687 c -1.164,0.668 -1.883,1.914 -1.883,3.258 l 0,49.449 c 0,1.344 0.719,2.59 1.879,3.266 l 42.828,24.734 c 1.168,0.676 2.602,0.676 3.77,0 l 42.828,-24.734 c 1.16,-0.676 1.879,-1.922 1.879,-3.266 l 0,-49.449 z m 11.574,366.223 c -2.336,1.3 -5.183,1.269 -7.488,-0.082 -2.301,-1.352 -3.715,-3.825 -3.715,-6.493 l 0,-191.355 c 0,-1.879 -1.008,-3.621 -2.633,-4.563 -1.629,-0.945 -3.64,-0.945 -5.273,0 l -31.231,17.993 c -4.656,2.683 -10.39,2.679 -15.047,-0.004 L 755.16,244.152 c -4.664,-2.691 -7.531,-7.664 -7.531,-13.043 l 0,-144.0035 c 0,-5.3789 2.867,-10.3516 7.527,-13.0469 L 879.887,2.01953 c 4.664,-2.691405 10.406,-2.691405 15.07,0 L 1019.71,74.0586 c 4.66,2.6953 7.53,7.668 7.53,13.0469 l 0,358.9645 c 0,5.461 -2.96,10.493 -7.73,13.157 l -74.225,41.418" /><path
         id="path18"
         style="fill:#2e2d2d;fill-opacity:1;fill-rule:evenodd;stroke:none"
         d="m 1391.55,185.168 c 4.64,2.695 7.49,7.656 7.49,13.023 l 0,34.895 c 0,5.367 -2.85,10.332 -7.5,13.027 l -123.93,71.957 c -4.67,2.711 -10.42,2.715 -15.1,0.024 l -124.69,-71.989 c -4.66,-2.691 -7.53,-7.66 -7.53,-13.042 l 0,-143.9653 c 0,-5.4141 2.91,-10.4102 7.61,-13.086 L 1251.82,5.40234 c 4.57,-2.60937 10.17,-2.63671 14.77,-0.08203 l 74.95,41.66019 c 2.38,1.3203 3.86,3.8164 3.87,6.5312 0.02,2.7149 -1.43,5.2305 -3.78,6.5821 l -125.48,72.0192 c -2.35,1.344 -3.79,3.84 -3.79,6.535 l 0,45.118 c 0,2.691 1.44,5.179 3.77,6.523 l 39.06,22.516 c 2.32,1.343 5.19,1.343 7.51,0 l 39.08,-22.516 c 2.33,-1.344 3.77,-3.832 3.77,-6.523 l 0,-35.496 c 0,-2.7 1.44,-5.188 3.77,-6.532 2.34,-1.347 5.21,-1.336 7.54,0.016 l 74.69,43.414" /><path
         id="path20"
         style="fill:#72c42d;fill-opacity:1;fill-rule:evenodd;stroke:none"
         d="m 506.301,318.848 c 4.656,2.691 10.398,2.691 15.058,0 l 124.719,-71.973 c 4.664,-2.687 7.535,-7.66 7.535,-13.047 l 0,-144.0546 c 0,-5.3828 -2.871,-10.3515 -7.527,-13.0468 L 521.363,4.69531 c -4.664,-2.6914 -10.406,-2.6914 -15.07,0 L 381.602,76.7266 c -4.657,2.6953 -7.528,7.664 -7.528,13.0468 l 0,144.0626 c 0,5.379 2.871,10.352 7.531,13.039 l 124.696,71.973" /><path
         id="path22"
         style="fill:#72c42d;fill-opacity:1;fill-rule:nonzero;stroke:none"
         d="m 1633.71,2.63672 c -4.3,0 -8.57,1.125 -12.33,3.30078 l -39.27,23.2344 c -5.86,3.2812 -3,4.4414 -1.07,5.1172 7.83,2.7148 9.41,3.3398 17.76,8.0742 0.87,0.4883 2.02,0.3047 2.92,-0.2227 l 30.16,-17.9101 c 1.1,-0.6055 2.64,-0.6055 3.65,0 l 117.6,67.8789 c 1.1,0.625 1.8,1.8867 1.8,3.1836 l 0,135.723 c 0,1.328 -0.7,2.57 -1.82,3.242 l -117.56,67.824 c -1.09,0.633 -2.53,0.633 -3.63,0 l -117.53,-67.844 c -1.14,-0.652 -1.86,-1.933 -1.86,-3.222 l 0,-135.723 c 0,-1.2969 0.72,-2.5274 1.85,-3.1446 l 32.22,-18.6132 c 17.48,-8.7383 28.19,1.5546 28.19,11.8945 l 0,134.0043 c 0,1.894 1.52,3.39 3.41,3.39 l 14.92,0 c 1.86,0 3.4,-1.496 3.4,-3.39 l 0,-134.0043 c 0,-23.3281 -12.7,-36.707 -34.82,-36.707 -6.8,0 -12.15,0 -27.09,7.3632 l -30.84,17.7539 c -7.62,4.4024 -12.33,12.6368 -12.33,21.4532 l 0,135.723 c 0,8.82 4.71,17.05 12.33,21.437 l 117.61,67.957 c 7.44,4.211 17.33,4.211 24.71,0 l 117.6,-67.957 c 7.62,-4.406 12.35,-12.617 12.35,-21.437 l 0,-135.723 c 0,-8.8164 -4.73,-17.0196 -12.35,-21.4532 L 1646.09,5.9375 c -3.76,-2.17578 -8.02,-3.30078 -12.38,-3.30078" /><path
         id="path24"
         style="fill:#72c42d;fill-opacity:1;fill-rule:nonzero;stroke:none"
         d="m 1670.04,96.1445 c -51.47,0 -62.25,23.6215 -62.25,43.4375 0,1.883 1.52,3.387 3.4,3.387 l 15.21,0 c 1.7,0 3.11,-1.219 3.38,-2.879 2.29,-15.481 9.14,-23.293 40.26,-23.293 24.77,0 35.32,5.605 35.32,18.75 0,7.578 -2.99,13.203 -41.49,16.973 -32.18,3.183 -52.08,10.293 -52.08,36.035 0,23.73 20,37.883 53.53,37.883 37.68,0 56.32,-13.079 58.68,-41.133 0.09,-0.969 -0.25,-1.895 -0.89,-2.617 -0.65,-0.676 -1.55,-1.086 -2.49,-1.086 l -15.27,0 c -1.58,0 -2.98,1.125 -3.3,2.656 -3.66,16.289 -12.57,21.496 -36.73,21.496 -27.05,0 -30.19,-9.426 -30.19,-16.484 0,-8.555 3.71,-11.047 40.23,-15.879 36.14,-4.778 53.31,-11.543 53.31,-36.946 0,-25.625 -21.37,-40.3005 -58.63,-40.3005" /><path
         id="path26"
         style="fill:#72c42d;fill-opacity:1;fill-rule:evenodd;stroke:none"
         d="m 1258.22,191.91 c 0.9,0.52 2,0.52 2.89,0 l 23.94,-13.808 c 0.89,-0.516 1.44,-1.469 1.44,-2.504 l 0,-27.637 c 0,-1.035 -0.55,-1.988 -1.44,-2.508 l -23.94,-13.805 c -0.89,-0.519 -1.99,-0.519 -2.89,0 l -23.91,13.805 c -0.9,0.52 -1.45,1.473 -1.45,2.508 l 0,27.637 c 0,1.035 0.55,1.988 1.45,2.504 l 23.91,13.808" /><path
         id="path28"
         style="fill:#72c42d;fill-opacity:1;fill-rule:nonzero;stroke:none"
         d="m 1831.06,285.203 3.96,0 c 3.23,0 3.84,2.274 3.84,3.594 0,3.48 -2.4,3.48 -3.72,3.48 l -4.08,0 0,-7.074 z m -4.8,11.152 8.76,0 c 3,0 8.88,0 8.88,-6.718 0,-4.68 -3,-5.637 -4.81,-6.239 3.49,-0.238 3.72,-2.519 4.2,-5.753 0.25,-2.04 0.61,-5.52 1.32,-6.715 l -5.39,0 c -0.13,1.195 -0.97,7.675 -0.97,8.031 -0.35,1.441 -0.84,2.16 -2.63,2.16 l -4.44,0 0,-10.191 -4.92,0 0,25.425 z m -10.49,-12.652 c 0,-10.558 8.52,-19.074 18.95,-19.074 10.55,0 19.07,8.699 19.07,19.074 0,10.551 -8.63,18.945 -19.07,18.945 -10.32,0 -18.95,-8.273 -18.95,-18.945 z m 41.67,-0.062 c 0,-12.473 -10.19,-22.668 -22.66,-22.668 -12.36,0 -22.67,10.074 -22.67,22.668 0,12.832 10.56,22.668 22.67,22.668 12.23,0 22.66,-9.836 22.66,-22.668" /></g></g></svg>