<?xml version="1.0" encoding="UTF-8" standalone="no"?>
<svg
   xmlns:dc="http://purl.org/dc/elements/1.1/"
   xmlns:cc="http://creativecommons.org/ns#"
   xmlns:rdf="http://www.w3.org/1999/02/22-rdf-syntax-ns#"
   xmlns:svg="http://www.w3.org/2000/svg"
   xmlns="http://www.w3.org/2000/svg"
   viewBox="0 0 187.3875 184.41251"
   height="184.41251"
   width="187.3875"
   xml:space="preserve"
   version="1.1"
   id="svg2"><metadata
     id="metadata8"><rdf:RDF><cc:Work
         rdf:about=""><dc:format>image/svg+xml</dc:format><dc:type
           rdf:resource="http://purl.org/dc/dcmitype/StillImage" /></cc:Work></rdf:RDF></metadata><defs
     id="defs6" /><g
     transform="matrix(1.25,0,0,-1.25,0,184.4125)"
     id="g10"><g
       transform="scale(0.1,0.1)"
       id="g12"><path
         id="path14"
         style="fill:#100f0d;fill-opacity:1;fill-rule:nonzero;stroke:none"
         d="m 1412.37,1157.43 11.69,0 0,53.32 c 0,2.17 -0.11,5.52 -0.21,10.01 -0.16,4.58 -0.16,7.96 -0.16,10.19 l 0,2.72 26.07,-76.24 12.1,0 25.83,76.24 c 0,-4.86 -0.06,-9.44 -0.18,-13.78 -0.06,-4.22 -0.1,-7.27 -0.1,-9.14 l 0,-53.32 11.7,0 0,90.37 -17.42,0 -25.82,-76.39 -25.97,76.39 -17.53,0 0,-90.37 z m -84.22,90.37 0,-10.76 30.44,0 0,-79.61 12.32,0 0,79.61 30.54,0 0,10.76 -73.3,0 z m -237.6,-632.706 c 0,116.773 -78.92,147.879 -245.07,169.836 -167.882,22.218 -184.949,33.672 -184.949,72.996 0,32.453 14.457,75.773 138.801,75.773 111.074,0 152.004,-23.926 168.836,-98.808 1.48,-7.043 7.902,-12.203 15.184,-12.203 l 70.158,0 c 4.36,0 8.49,1.878 11.44,4.984 2.96,3.316 4.54,7.578 4.13,12.027 -10.86,128.977 -96.553,189.071 -269.748,189.071 -154.156,0 -246.086,-65.04 -246.086,-174.125 0,-118.34 91.484,-151.016 239.41,-165.653 176.992,-17.32 190.731,-43.187 190.731,-78.023 0,-60.434 -48.481,-86.199 -162.371,-86.199 -143.071,0 -174.536,35.925 -185.082,107.082 -1.207,7.628 -7.719,13.234 -15.532,13.234 l -69.898,0 c -8.66,0 -15.621,-6.91 -15.621,-15.57 0,-91.086 49.562,-199.684 286.133,-199.684 171.304,0 269.534,67.477 269.534,185.262 z M 654.023,0 C 634.27,0 614.609,5.16016 597.328,15.1719 L 416.816,121.98 c -26.937,15.079 -13.781,20.411 -4.894,23.508 35.965,12.473 43.234,15.352 81.613,37.133 4,2.238 9.293,1.379 13.418,-1.031 L 645.625,99.2383 c 5.031,-2.7774 12.125,-2.7774 16.746,0 L 1203,411.281 c 5.02,2.879 8.25,8.68 8.25,14.641 l 0,623.908 c 0,6.12 -3.23,11.81 -8.38,14.91 l -540.409,311.77 c -4.984,2.92 -11.621,2.92 -16.652,0 l -540.27,-311.87 c -5.25,-3 -8.5742,-8.88 -8.5742,-14.81 l 0,-623.908 c 0,-5.961 3.3242,-11.621 8.5312,-14.442 l 148.098,-85.582 c 80.351,-40.168 129.551,7.141 129.551,54.692 l 0,616.004 c 0,8.706 7.007,15.576 15.714,15.576 l 68.547,0 c 8.574,0 15.668,-6.87 15.668,-15.576 l 0,-616.004 c 0,-107.258 -58.406,-168.758 -160.078,-168.758 -31.246,0 -55.848,0 -124.527,33.848 L 56.6992,327.301 C 21.6797,347.539 0,385.398 0,425.922 l 0,623.908 c 0,40.55 21.6797,78.39 56.6992,98.54 l 540.6288,312.4 c 34.203,19.35 79.684,19.35 113.625,0 l 540.567,-312.4 c 35.03,-20.25 56.79,-57.99 56.79,-98.54 l 0,-623.908 c 0,-40.524 -21.76,-78.242 -56.79,-98.621 L 710.953,15.1719 C 693.672,5.16016 674.055,0 654.023,0" /></g></g></svg>