<?xml version="1.0" encoding="UTF-8" standalone="no"?>
<!-- Created with Inkscape (http://www.inkscape.org/) -->

<svg
   xmlns:dc="http://purl.org/dc/elements/1.1/"
   xmlns:cc="http://creativecommons.org/ns#"
   xmlns:rdf="http://www.w3.org/1999/02/22-rdf-syntax-ns#"
   xmlns:svg="http://www.w3.org/2000/svg"
   xmlns="http://www.w3.org/2000/svg"
   xmlns:inkscape="http://www.inkscape.org/namespaces/inkscape"
   version="1.1"
   width="812.5"
   height="725"
   id="svg2"
   xml:space="preserve"><metadata
     id="metadata8"><rdf:RDF><cc:Work
         rdf:about=""><dc:format>image/svg+xml</dc:format><dc:type
           rdf:resource="http://purl.org/dc/dcmitype/StillImage" /></cc:Work></rdf:RDF></metadata><defs
     id="defs6" /><g
     transform="matrix(1.25,0,0,-1.25,0,725)"
     id="g10"><g
       transform="scale(0.1,0.1)"
       id="g12"><path
         d="m 1601.05,1671.39 0,305.52 c 0,40.12 25.1,72.39 66.65,72.39 l 11.52,0 c 41.54,0 66.52,-32.29 66.52,-72.39 l 0,-643.2 c 0,-156.85 -77.5,-281.64 -212.52,-361.151 -62.61,-36.84 -131.79,-55.739 -204.37,-55.739 l -28.69,0 c -156.88,0 -281.53,77.551 -361.156,212.5 -36.953,62.65 -55.723,131.73 -55.723,204.39 l 0,28.67 c 0,156.9 77.539,281.62 212.459,361.27 62.66,36.99 131.74,55.74 204.42,55.74 l 28.69,0 c 106.17,0 196.25,-41.15 272.2,-108 z m -573.1,-323.32 c 0,-113.3 54.92,-198.48 154.2,-252.8 40.14,-21.97 83.73,-33.77 129.53,-33.77 111.21,0 193.69,52.46 250.59,146.7 26.46,43.85 38.78,91.8 38.78,142.8 0,98.22 -46.5,174.86 -125.64,231.79 -47.99,34.51 -102.01,51.82 -160.92,51.82 -121.21,0 -208.44,-61.23 -260.8,-170.02 -17.67,-36.78 -25.74,-75.84 -25.74,-116.52 z m 1219.73,431.32 20.05,0 c 167.64,0 295.12,-81.32 375.92,-227.65 32.31,-58.54 49.59,-122.42 49.59,-189.36 l 0,-28.67 c 0,-156.84 -77.34,-281.82 -212.58,-361.171 -62.61,-36.719 -131.77,-55.719 -204.33,-55.719 l -28.65,0 c -156.88,0 -281.55,77.551 -361.16,212.5 -36.95,62.65 -55.76,131.73 -55.76,204.39 l 0,28.67 c 0,156.92 77.83,281.23 212.42,361.23 62.58,37.19 131.78,55.78 204.5,55.78 z m -272.25,-431.32 c 0,-109.98 53.98,-190.88 146.87,-247.76 43.62,-26.72 91.65,-38.81 142.62,-38.81 108.67,0 188.99,55.1 244.9,146.82 26.66,43.73 38.72,91.76 38.72,142.68 0,102.26 -49.26,180.39 -133.46,237.01 -46.15,31.05 -97.52,46.6 -153.09,46.6 -121.21,0 -208.44,-61.23 -260.78,-170.02 -17.71,-36.78 -25.78,-75.84 -25.78,-116.52 z m 1319.3,274.98 c -21.84,10.23 -62.74,13.63 -86.35,14.53 -120.88,4.55 -208.34,-63.52 -259.65,-170.16 -17.71,-36.78 -25.8,-75.72 -25.8,-116.42 0,-123.93 65.06,-210.69 175.68,-263.58 40.41,-19.31 92.58,-22.99 136.74,-22.99 38.85,0 93.73,23.81 128.2,40.18 l 5.98,2.83 26.74,0 2.95,-0.6 c 32.91,-6.84 57.75,-27.7 57.75,-63.11 l 0,-14.32 c 0,-88.078 -160.99,-108.262 -222.42,-112.539 -216.78,-15.012 -378.91,104.049 -440.72,310.829 -10.74,35.89 -15.57,71.56 -15.57,108.98 l 0,28.63 c 0,156.9 77.85,281.17 212.42,361.12 62.58,37.16 131.78,55.82 204.48,55.82 l 28.67,0 c 77.11,0 148.14,-21.9 211.81,-65.39 l 5.24,-3.62 3.3,-5.45 c 6.87,-11.4 12.79,-24.57 12.79,-38.14 l 0,-14.32 c 0,-36.93 -27.63,-56.79 -60.99,-63.22 l -2.76,-0.49 -8.55,0 c -21.6,0 -70.67,22.36 -89.94,31.43 z m 469.29,-97.97 c 56.19,56.27 112.6,112.44 169.63,167.79 15.9,15.43 76.08,80.78 99.77,80.78 l 25.92,0 2.95,-0.6 c 33,-6.86 57.73,-27.76 57.73,-63.23 l 0,-14.31 c 0,-24.2 -28.34,-52.31 -43.97,-68.87 -33.24,-35.23 -68.24,-69.32 -102.26,-103.83 L 3799,1345.37 c 75.26,-75.43 150.45,-150.94 225.1,-226.95 20.65,-21.02 41.31,-42.07 61.64,-63.4 7.19,-7.56 17.8,-16.97 23.83,-27.46 6.47,-9.81 10.45,-20.88 10.45,-32.701 l 0,-14.961 -0.84,-3.437 c -8.13,-33 -29.08,-59.641 -65.66,-59.641 l -11.51,0 c -23.94,0 -50.97,27.09 -67.38,42.551 -33.77,31.859 -66.41,65.359 -99.53,97.899 l -111.08,109.04 0,-174.279 c 0,-40.14 -25.13,-72.402 -66.64,-72.402 l -11.4,0 c -41.55,0 -66.64,32.262 -66.64,72.402 l 0,982.069 c 0,40.16 25.11,72.27 66.64,72.27 l 11.4,0 c 41.51,0 66.64,-32.11 66.64,-72.27 l 0,-449.02 z m 1803.28,248.57 14.36,0 c 43.4,0 72.36,-29.24 72.36,-72.38 0,-59.9 -57.26,-75.23 -106.81,-75.23 -64.98,0 -127.01,-39.34 -171.8,-83.46 -55.86,-55.06 -80.31,-125.59 -80.31,-203.11 l 0,-350.271 c 0,-40.16 -25.06,-72.379 -66.66,-72.379 l -11.41,0 c -41.58,0 -66.64,32.219 -66.64,72.379 l 0,370.371 c 0,142.23 69.24,258.32 184.65,339.75 68.94,48.65 147.87,74.33 232.26,74.33 z M 4538.95,1079.51 c 52.65,-18.38 112.69,-15.76 166.71,-6.35 27.62,11.74 98.29,42.56 124.28,38.05 l 4.06,-0.68 3.73,-1.84 c 15.86,-7.69 31.02,-18.57 39.11,-34.71 18.94,-37.87 9.84,-75.91 -27.35,-97.398 l -12.38,-7.152 c -137.25,-79.219 -283.22,-68.239 -420.02,5.75 -65.41,35.35 -115.45,87.85 -152.36,151.83 l -8.64,14.96 c -88.1,152.58 -76.21,313.09 23.15,458.19 34.31,50.15 79.14,88.9 131.56,119.2 l 19.83,11.44 c 129.25,74.61 267.77,69.51 400.52,4.02 71.37,-35.21 129.2,-87.71 169.05,-156.73 l 7.16,-12.43 c 28.95,-50.15 -8.55,-93.86 -47.26,-123.73 -44.92,-34.66 -90.28,-76.36 -133.34,-113.53 -96,-82.87 -191.86,-165.94 -287.81,-248.89 z m -124.26,87.27 c 107.38,92.07 214.78,184.2 321.85,276.64 36.59,31.56 76.72,64.31 113.03,97.5 -29.14,36.7 -77.79,63.16 -119.14,78.94 -83.44,31.8 -165.74,21.12 -242.27,-23.06 -100.19,-57.84 -142.85,-149.96 -139.1,-264.59 1.47,-45.14 13.62,-88.64 37.58,-127.05 8.44,-13.54 17.87,-26.25 28.05,-38.38"
         inkscape:connector-curvature="0"
         id="path14"
         style="fill:#354750;fill-opacity:1;fill-rule:evenodd;stroke:none" /><path
         d="m 3633.87,4066.09 426.95,0 0,-436.45 215.88,0 c 99.69,0 202.23,17.76 296.64,49.75 46.39,15.73 98.46,37.62 144.22,65.15 -60.27,78.69 -91.04,178.05 -100.1,275.99 -12.3,133.21 14.57,306.6 104.73,410.86 l 44.88,51.91 53.48,-42.99 c 134.65,-108.18 247.89,-259.34 267.85,-431.66 162.13,47.69 352.48,36.41 495.39,-46.07 l 58.63,-33.83 -30.86,-60.23 C 5490.7,3632.64 5238.03,3559.57 4991,3572.5 4621.35,2651.82 3816.58,2215.94 2840.8,2215.94 c -504.12,0 -966.64,188.45 -1230.02,635.72 l -4.32,7.3 -38.37,78.07 c -89.03,196.88 -118.6,412.56 -98.54,628.06 l 6.02,64.55 365.09,0 0,436.45 426.94,0 0,426.96 853.92,0 0,426.95 512.35,0 0,-853.91"
         inkscape:connector-curvature="0"
         id="path16"
         style="fill:#354750;fill-opacity:1;fill-rule:evenodd;stroke:none" /><path
         d="m 5017.13,3904.63 c 28.63,222.48 -137.87,397.24 -241.13,480.21 -118.99,-137.57 -137.48,-498.12 49.2,-649.92 -104.18,-92.54 -323.72,-176.42 -548.5,-176.42 l -2736.27,0 c -21.86,-234.65 19.34,-450.73 113.42,-635.69 l 31.13,-56.93 c 19.71,-33.45 41.24,-65.73 64.51,-96.81 0.01,0 0.01,0 0.01,0 112.49,-7.22 216.21,-9.72 311.1,-7.62 0.01,0 0.03,0 0.04,0 186.48,4.13 338.63,26.13 453.95,66.09 17.17,5.97 35.88,-3.14 41.82,-20.29 5.93,-17.15 -3.15,-35.87 -20.3,-41.82 -15.33,-5.31 -31.32,-10.28 -47.83,-15 -0.02,-0.01 -0.04,-0.01 -0.06,-0.02 -90.8,-25.92 -188.16,-43.37 -313.79,-51.12 7.45,-0.12 -7.77,-1.12 -7.81,-1.13 -4.27,-0.26 -9.65,-0.87 -13.94,-1.11 -49.44,-2.77 -102.81,-3.35 -157.37,-3.35 -59.67,0 -118.44,1.13 -184.14,4.46 l -1.68,-1.11 c 227.99,-256.25 584.47,-409.94 1031.31,-409.94 945.7,0 1747.85,419.22 2103.05,1360.39 252.01,-25.86 494.2,38.4 604.37,253.46 -175.49,101.27 -401.15,68.98 -531.09,3.67"
         inkscape:connector-curvature="0"
         id="path18"
         style="fill:#48addf;fill-opacity:1;fill-rule:nonzero;stroke:none" /><path
         d="m 5017.13,3904.63 c 28.63,222.48 -137.87,397.24 -241.13,480.21 -118.99,-137.57 -137.48,-498.12 49.2,-649.92 -104.18,-92.54 -323.72,-176.42 -548.5,-176.42 l -2574.24,0 c -11.17,-359.36 122.19,-632.14 358.14,-797.05 0.01,0 0.03,0 0.04,0 186.48,4.13 338.63,26.13 453.95,66.09 17.17,5.97 35.88,-3.14 41.82,-20.29 5.93,-17.15 -3.15,-35.87 -20.3,-41.82 -15.33,-5.31 -31.32,-10.28 -47.83,-15 -0.02,-0.01 -0.04,-0.01 -0.06,-0.02 -90.8,-25.92 -196.53,-45.61 -322.16,-53.36 -0.03,0 -3.04,2.91 -3.08,2.9 321.84,-165.09 788.52,-164.5 1323.56,41.03 599.94,230.47 1158.19,669.57 1547.72,1171.79 -5.88,-2.65 -11.6,-5.37 -17.13,-8.14"
         inkscape:connector-curvature="0"
         id="path20"
         style="fill:#56beee;fill-opacity:1;fill-rule:nonzero;stroke:none" /><path
         d="m 1545.55,3273.4 c 17.01,-125.69 53.77,-243.38 108.3,-350.59 l 31.13,-56.93 c 19.71,-33.45 41.24,-65.73 64.52,-96.81 112.51,-7.22 216.24,-9.72 311.14,-7.62 186.48,4.13 338.63,26.13 453.95,66.09 17.17,5.97 35.88,-3.14 41.82,-20.29 5.93,-17.15 -3.15,-35.87 -20.3,-41.82 -15.33,-5.31 -31.32,-10.28 -47.83,-15 -0.02,-0.01 -0.04,-0.01 -0.06,-0.02 -90.8,-25.92 -195.97,-44.49 -321.6,-52.25 -4.31,-0.26 -11.83,-0.31 -16.18,-0.55 -49.42,-2.78 -102.24,-4.47 -156.81,-4.47 -59.66,0 -120.67,1.14 -186.36,4.47 227.98,-256.25 586.69,-410.5 1033.53,-410.5 809.61,0 1513.99,307.3 1922.81,986.29 l -3218.06,0"
         inkscape:connector-curvature="0"
         id="path22"
         style="fill:#388bbd;fill-opacity:1;fill-rule:nonzero;stroke:none" /><path
         d="m 1727.09,3273.4 c 48.4,-220.69 164.71,-393.95 333.55,-511.95 186.48,4.13 338.63,26.13 453.95,66.09 17.17,5.97 35.88,-3.14 41.82,-20.29 5.93,-17.15 -3.15,-35.87 -20.3,-41.82 -15.33,-5.31 -31.32,-10.28 -47.83,-15 -0.02,-0.01 -0.04,-0.01 -0.06,-0.02 -90.8,-25.92 -198.2,-44.49 -323.83,-52.25 321.82,-165.06 787.15,-162.69 1322.15,42.82 323.66,124.35 635.16,309.47 914.63,532.42 l -2674.08,0"
         inkscape:connector-curvature="0"
         id="path24"
         style="fill:#409ccb;fill-opacity:1;fill-rule:nonzero;stroke:none" /><path
         d="m 1911.82,3994.94 370.02,0 0,-370.04 -370.02,0 0,370.04 z m 30.82,-30.84 29.2,0 0,-308.38 -29.2,0 0,308.38 z m 54.9,0 30.37,0 0,-308.38 -30.37,0 0,308.38 z m 56.05,0 30.37,0 0,-308.38 -30.37,0 0,308.38 z m 56.08,0 30.37,0 0,-308.38 -30.37,0 0,308.38 z m 56.07,0 30.37,0 0,-308.38 -30.37,0 0,308.38 z m 56.06,0 29.22,0 0,-308.38 -29.22,0 0,308.38"
         inkscape:connector-curvature="0"
         id="path26"
         style="fill:#46b0d7;fill-opacity:1;fill-rule:evenodd;stroke:none" /><path
         d="m 2338.75,4421.89 370.06,0 0,-370.02 -370.06,0 0,370.02 z m 30.86,-30.84 29.18,0 0,-308.35 -29.18,0 0,308.35 z m 54.9,0 30.35,0 0,-308.35 -30.35,0 0,308.35 z m 56.04,0 30.37,0 0,-308.35 -30.37,0 0,308.35 z m 56.07,0 30.37,0 0,-308.35 -30.37,0 0,308.35 z m 56.08,0 30.37,0 0,-308.35 -30.37,0 0,308.35 z m 56.05,0 29.24,0 0,-308.35 -29.24,0 0,308.35"
         inkscape:connector-curvature="0"
         id="path28"
         style="fill:#46b0d7;fill-opacity:1;fill-rule:evenodd;stroke:none" /><path
         d="m 2338.75,3994.94 370.06,0 0,-370.04 -370.06,0 0,370.04 z m 30.86,-30.84 29.18,0 0,-308.38 -29.18,0 0,308.38 z m 54.9,0 30.35,0 0,-308.38 -30.35,0 0,308.38 z m 56.04,0 30.37,0 0,-308.38 -30.37,0 0,308.38 z m 56.07,0 30.37,0 0,-308.38 -30.37,0 0,308.38 z m 56.08,0 30.37,0 0,-308.38 -30.37,0 0,308.38 z m 56.05,0 29.24,0 0,-308.38 -29.24,0 0,308.38"
         inkscape:connector-curvature="0"
         id="path30"
         style="fill:#58c8f1;fill-opacity:1;fill-rule:evenodd;stroke:none" /><path
         d="m 2765.72,3994.94 370.04,0 0,-370.04 -370.04,0 0,370.04 z m 30.84,-30.84 29.18,0 0,-308.38 -29.18,0 0,308.38 z m 54.89,0 30.37,0 0,-308.38 -30.37,0 0,308.38 z m 56.07,0 30.37,0 0,-308.38 -30.37,0 0,308.38 z m 56.07,0 30.37,0 0,-308.38 -30.37,0 0,308.38 z m 56.06,0 30.39,0 0,-308.38 -30.39,0 0,308.38 z m 56.07,0 29.2,0 0,-308.38 -29.2,0 0,308.38"
         inkscape:connector-curvature="0"
         id="path32"
         style="fill:#46b0d7;fill-opacity:1;fill-rule:evenodd;stroke:none" /><path
         d="m 2765.72,4421.89 370.04,0 0,-370.02 -370.04,0 0,370.02 z m 30.84,-30.84 29.18,0 0,-308.35 -29.18,0 0,308.35 z m 54.89,0 30.37,0 0,-308.35 -30.37,0 0,308.35 z m 56.07,0 30.37,0 0,-308.35 -30.37,0 0,308.35 z m 56.07,0 30.37,0 0,-308.35 -30.37,0 0,308.35 z m 56.06,0 30.39,0 0,-308.35 -30.39,0 0,308.35 z m 56.07,0 29.2,0 0,-308.35 -29.2,0 0,308.35"
         inkscape:connector-curvature="0"
         id="path34"
         style="fill:#58c8f1;fill-opacity:1;fill-rule:evenodd;stroke:none" /><path
         d="m 3192.68,3994.94 370.03,0 0,-370.04 -370.03,0 0,370.04 z m 30.84,-30.84 29.19,0 0,-308.38 -29.19,0 0,308.38 z m 54.9,0 30.37,0 0,-308.38 -30.37,0 0,308.38 z m 56.05,0 30.37,0 0,-308.38 -30.37,0 0,308.38 z m 56.08,0 30.37,0 0,-308.38 -30.37,0 0,308.38 z m 56.07,0 30.37,0 0,-308.38 -30.37,0 0,308.38 z m 56.06,0 29.21,0 0,-308.38 -29.21,0 0,308.38"
         inkscape:connector-curvature="0"
         id="path36"
         style="fill:#58c8f1;fill-opacity:1;fill-rule:evenodd;stroke:none" /><path
         d="m 3192.68,4421.89 370.03,0 0,-370.02 -370.03,0 0,370.02 z m 30.84,-30.84 29.19,0 0,-308.35 -29.19,0 0,308.35 z m 54.9,0 30.37,0 0,-308.35 -30.37,0 0,308.35 z m 56.05,0 30.37,0 0,-308.35 -30.37,0 0,308.35 z m 56.08,0 30.37,0 0,-308.35 -30.37,0 0,308.35 z m 56.07,0 30.37,0 0,-308.35 -30.37,0 0,308.35 z m 56.06,0 29.21,0 0,-308.35 -29.21,0 0,308.35"
         inkscape:connector-curvature="0"
         id="path38"
         style="fill:#46b0d7;fill-opacity:1;fill-rule:evenodd;stroke:none" /><path
         d="m 3192.68,4848.85 370.03,0 0,-370.04 -370.03,0 0,370.04 z m 30.84,-30.82 29.19,0 0,-308.38 -29.19,0 0,308.38 z m 54.9,0 30.37,0 0,-308.38 -30.37,0 0,308.38 z m 56.05,0 30.37,0 0,-308.38 -30.37,0 0,308.38 z m 56.08,0 30.37,0 0,-308.38 -30.37,0 0,308.38 z m 56.07,0 30.37,0 0,-308.38 -30.37,0 0,308.38 z m 56.06,0 29.21,0 0,-308.38 -29.21,0 0,308.38"
         inkscape:connector-curvature="0"
         id="path40"
         style="fill:#58c8f1;fill-opacity:1;fill-rule:evenodd;stroke:none" /><path
         d="m 3619.63,3994.94 370.04,0 0,-370.04 -370.04,0 0,370.04 z m 30.82,-30.84 29.22,0 0,-308.38 -29.22,0 0,308.38 z m 54.9,0 30.37,0 0,-308.38 -30.37,0 0,308.38 z m 56.08,0 30.37,0 0,-308.38 -30.37,0 0,308.38 z m 56.05,0 30.37,0 0,-308.38 -30.37,0 0,308.38 z m 56.09,0 30.36,0 0,-308.38 -30.36,0 0,308.38 z m 56.06,0 29.2,0 0,-308.38 -29.2,0 0,308.38"
         inkscape:connector-curvature="0"
         id="path42"
         style="fill:#46b0d7;fill-opacity:1;fill-rule:evenodd;stroke:none" /><path
         d="m 2685.64,3024.96 c 56.37,0 102.07,-45.72 102.07,-102.09 0,-56.37 -45.7,-102.07 -102.07,-102.07 -56.38,0 -102.09,45.7 -102.09,102.07 0,56.37 45.71,102.09 102.09,102.09"
         inkscape:connector-curvature="0"
         id="path44"
         style="fill:#d7f2f2;fill-opacity:1;fill-rule:evenodd;stroke:none" /><path
         d="m 2685.64,2996 c 9.34,0 18.25,-1.76 26.47,-4.95 -8.91,-5.15 -14.94,-14.8 -14.94,-25.84 0,-16.48 13.36,-29.82 29.84,-29.82 11.29,0 21.1,6.27 26.17,15.53 3.58,-8.63 5.57,-18.11 5.57,-28.05 0,-40.37 -32.73,-73.1 -73.11,-73.1 -40.37,0 -73.12,32.73 -73.12,73.1 0,40.39 32.75,73.13 73.12,73.13"
         inkscape:connector-curvature="0"
         id="path46"
         style="fill:#354750;fill-opacity:1;fill-rule:evenodd;stroke:none" /><path
         d="m 880,3236.5 4748.77,0 c -103.4,26.23 -327.15,61.66 -290.25,197.17 -188.01,-217.56 -641.43,-152.63 -755.86,-45.35 -127.43,-184.82 -869.26,-114.57 -921,29.41 -159.75,-187.48 -654.77,-187.48 -814.53,0 -51.76,-143.98 -793.58,-214.23 -921.02,-29.41 -114.43,-107.28 -567.81,-172.21 -755.84,45.35 C 1207.17,3298.16 983.418,3262.73 880,3236.5"
         inkscape:connector-curvature="0"
         id="path48"
         style="fill:#354750;fill-opacity:1;fill-rule:evenodd;stroke:none" /><path
         d="m 2957.01,2289.32 c -252.81,119.97 -391.58,283.05 -468.79,461.09 -93.9,-26.81 -206.79,-43.94 -337.95,-51.3 -49.41,-2.77 -101.38,-4.19 -155.93,-4.19 -62.88,0 -129.14,1.86 -198.7,5.55 231.84,-231.7 517.06,-410.1 1045.16,-413.36 38.99,0 77.7,0.76 116.21,2.21"
         inkscape:connector-curvature="0"
         id="path50"
         style="fill:#c2e1e1;fill-opacity:1;fill-rule:nonzero;stroke:none" /><path
         d="m 2582.13,2586.13 c -34.98,47.48 -68.91,107.15 -93.85,164.3 -93.92,-26.82 -206.83,-43.96 -338.01,-51.32 90.1,-48.91 218.97,-94.23 431.86,-112.98"
         inkscape:connector-curvature="0"
         id="path52"
         style="fill:#d7f2f2;fill-opacity:1;fill-rule:nonzero;stroke:none" /></g></g></svg>