<?xml version="1.0" encoding="UTF-8" standalone="no"?>
<!-- Created with Inkscape (http://www.inkscape.org/) -->
<svg id="Layer_1" xmlns:rdf="http://www.w3.org/1999/02/22-rdf-syntax-ns#" xmlns="http://www.w3.org/2000/svg" height="127.79" width="112.97" version="1.1" xmlns:cc="http://creativecommons.org/ns#" xmlns:dc="http://purl.org/dc/elements/1.1/" viewBox="0 0 18.828362 21.297786">
 <metadata id="metadata6361">
  <rdf:RDF>
   <cc:Work rdf:about="">
    <dc:format>image/svg+xml</dc:format>
    <dc:type rdf:resource="http://purl.org/dc/dcmitype/StillImage"/>
    <dc:title/>
   </cc:Work>
  </rdf:RDF>
 </metadata>
 <g id="karaf" transform="translate(-2.4543645,-8.2110755)">
  <path id="path6345" d="m9.679,8.529c-3.475,0.14,4.284,3.561,4.542,1.678,0.82,0.86,0.08,0.95,0.08,0.95-3.337,0.458-7.841-2.396-5.67-2.928,0.534-0.107,1.048,0.3,1.048,0.3z"/>
  <path id="path6347" d="m14.365,11.757c-1.219,3.166,0.213,7.073,2.703,9.608,1.244,1.158,7.42,4.29,2.059,6.777-3.432,2.102-11.496,1.458-14.37,0.214-2.959-1.844-2.917-2.874-0.729-4.804,2.265-2.229,4.526-2.517,5.469-7.792,0.215-2.917-0.558-4.019-0.58-5.161,0.043-0.557,3.383,8.042-3.688,12.696-0.887,0.583-2.917,2.746,0.042,4.246,3.938,1.486,6.563,2.617,13.168,0.086,3.56-1.63-0.729-5.232-1.587-5.834-0.469-0.386-4.6-5.088-2.702-9.993,0.129,0,0.215-0.043,0.215-0.043z"/>
  <path id="path6349" d="m10.333,8.583s2.466,0.708,3.11,1.33c0,0.043-0.558-1.309-3.11-1.33z"/>
  <path id="path6351" d="m9.475,10.667h0.258s1.416,4.084,0.493,6.614c-0.022,0,0.579-2.512-0.729-6.48,0,0.02-0.022-0.134-0.022-0.134z"/>
  <path id="path6353" d="m13.658,11.435s-3.068,4.782,2.402,10.08c-4.719-4.783-2.66-9.307-2.402-9.694,0.343-0.493,0-0.386,0-0.386z"/>
  <path id="path6355" d="m6.726,25.65s-4.996,2.93,8.262,2.233c-6.588-0.112-8.542-1.032-8.262-2.233z"/>
 </g>
</svg>
