<?xml version="1.0" encoding="utf-8"?>
<!-- Generator: Adobe Illustrator 16.0.4, SVG Export Plug-In . SVG Version: 6.00 Build 0)  -->
<!DOCTYPE svg PUBLIC "-//W3C//DTD SVG 1.1//EN" "http://www.w3.org/Graphics/SVG/1.1/DTD/svg11.dtd">
<svg version="1.1" id="Layer_1" xmlns="http://www.w3.org/2000/svg" xmlns:xlink="http://www.w3.org/1999/xlink" x="0px" y="0px"
	 width="1077px" height="361px" viewBox="0 0 1077 361" enable-background="new 0 0 1077 361" xml:space="preserve">
<g>
	<g>
		<path fill="#17569E" d="M118.734,207.659c0,0-3.508,7.012-17.187,3.856s-38.229-17.886-44.892-24.55
			c-6.664-6.664-26.654-21.042-16.131-31.565c0,0-5.963-1.752-10.523-6.312c-4.563-4.563-6.315-14.027-2.459-17.887l10.878,4.56
			c0,0-3.859,8.764,0.352,10.167c4.208,1.4,8.063-2.456,9.819-4.211c1.752-1.752,7.715-8.412,3.504-12.62
			c-4.208-4.208-5.96,0.352-5.96,0.352l-5.26-5.26c0,0,9.116-5.611,17.535,2.804c8.416,8.416,5.959,16.479,5.959,16.479
			L118.734,207.659z"/>
		<path fill="#FFFFFF" d="M95.12,203.601c-11.447-2.639-31.999-14.971-37.577-20.548c-5.578-5.578-22.307-17.617-13.502-26.421
			c0,0,8.374-0.188,11.605-3.414c0,0-4.725,14.993,10.246,28.203C80.865,194.631,95.12,203.601,95.12,203.601z"/>
		<path fill="#17569E" d="M208.638,219.957c0,0,2.984,5.963,14.611,3.279c11.627-2.685,32.497-15.21,38.161-20.874
			c5.668-5.664,22.659-17.887,13.716-26.83c0,0,5.069-1.494,8.943-5.368c3.879-3.878,5.369-11.927,2.093-15.206l-9.246,3.875
			c0,0,3.282,7.457-0.3,8.651c-3.574,1.19-6.854-2.089-8.348-3.583c-1.49-1.49-6.555-7.153-2.98-10.729
			c3.579-3.583,5.069,0.292,5.069,0.292l4.474-4.474c0,0-7.757-4.769-14.91,2.389c-7.154,7.157-5.065,14.016-5.065,14.016
			L208.638,219.957z"/>
		<g>
			<ellipse fill="#D5D5D5" cx="168.91" cy="327.615" rx="61.5" ry="13.889"/>
			<path fill="#D5D5D5" d="M128.568,326.193c0-3.707-10.654-6.713-23.805-6.713c-13.147,0-23.805,3.006-23.805,6.713
				c0,3.709,10.657,6.711,23.805,6.711C117.915,332.904,128.568,329.902,128.568,326.193z"/>
			<ellipse fill="#D5D5D5" cx="217.845" cy="318.92" rx="21.823" ry="6.713"/>
		</g>
		<path fill="#17569E" d="M179.981,286.381c0,0,1.936,13.416-0.045,35.242c0,0,9.426,4.461,16.861,9.422
			c0,0,21.33-1.984,26.784-0.992v-7.441l-12.896-7.439v-27.275L179.981,286.381z"/>
		<path fill="#17569E" d="M198.827,186.497c0,17.119-17.102,30.997-38.188,30.997c-21.091,0-38.191-13.877-38.191-30.997
			c0-17.123,17.1-31,38.191-31C181.726,155.497,198.827,169.374,198.827,186.497z"/>
		<path fill="#FFFFFF" d="M180.712,176.756c-0.73,4.249-6.848,6.746-13.668,5.574c-6.812-1.172-11.75-5.57-11.017-9.819
			c0.726-4.249,6.847-6.75,13.663-5.578C176.508,168.105,181.441,172.5,180.712,176.756z"/>
		<path fill="#17569E" d="M227.921,198.645c0,0,0.662,50.925-9.92,87.295c0,0-42.32,15.209-99.851-1.98
			c0,0-10.583-6.616-14.551-6.616c0,0-4.631-86.627-12.563-99.194C91.036,178.149,159.149,154.34,227.921,198.645z"/>
		<g>
			<g>
				<path fill="#FFFFFF" d="M214.646,258.468c-0.427,5.422-4.758,10.531-9.812,11.221c-19.294,2.475-38.828,2.477-58.129,0.037
					c-6.428-0.865-11.979-6.922-12.316-13.154c-0.786-13.59-1.568-27.006-2.354-40.231c-0.4-7.146,5.185-13.885,12.383-14.349
					c21.439-1.101,43.189,1.292,64.598,5.735c5.559,1.224,9.534,7.315,9.029,13.398C216.915,233.328,215.78,245.787,214.646,258.468
					z"/>
			</g>
			<path fill="#EC7929" d="M188.498,246.351c0,0.033,0,0.064,0,0.094c0.408,0.812,0.637,1.736,0.64,2.732
				c0,3.133-2.291,5.758-5.121,5.822c-2.826,0.062-5.121-2.494-5.121-5.672c0-1.4,0.449-2.688,1.198-3.688
				c0-0.068,12.507-19.425-5.005-32.538c0.004,0.003,5.076,15.408-7.037,21.896c0-0.008-3.344,2.65,0.348-6.144
				c-0.004,0.007-10.287,6.562-10.283,21.881c0,6.939,3.264,13.252,8.194,17.006c-0.153-0.641-0.247-1.373-0.247-2.23
				c0-6.23,5.013-13.484,6.562-13.484c-0.004,0,0.385,7.449,2.164,10.969c1.407,2.965,0.55,6.258-1.307,7.898
				c0.83,0.143,1.677,0.236,2.541,0.232c4.74-0.02,9.041-2.258,12.242-5.746c0.004,0-0.004-0.023-0.004-0.027
				C194.226,256.347,190.771,249.519,188.498,246.351z"/>
			<g>
				<path fill="#D5D5D5" d="M143.43,208.389c0.172-0.019,0.348-0.03,0.524-0.037c21.439-0.603,43.189,1.729,64.602,5.555
					c1.098,0.195,1.864,0.955,2.317,1.554c0.947,1.254,1.415,2.938,1.288,4.653c-1.139,12.604-2.272,25.429-3.41,38.444
					c0,0.016,0,0.027,0,0.039c-0.004,0.01-0.004,0.025-0.004,0.037c-0.18,2.32-1.958,4.492-3.897,4.701
					c-19.294,2.006-38.827,2-58.133,0.012c-3.32-0.355-6.255-3.369-6.42-6.51c-0.79-13.982-1.576-27.811-2.362-41.478
					c-0.093-1.786,0.431-3.474,1.49-4.77C140.428,209.362,141.851,208.568,143.43,208.389 M143.427,202.088
					c-6.712,1.015-11.773,7.427-11.392,14.252c0.786,13.226,1.568,26.642,2.354,40.231c0.337,6.232,5.889,12.289,12.316,13.154
					c19.301,2.439,38.835,2.438,58.129-0.037c0.008,0,0.012-0.004,0.019-0.004c5.042-0.697,9.366-5.799,9.793-11.217
					c1.134-12.682,2.269-25.14,3.399-37.344c0.505-6.083-3.471-12.174-9.029-13.398c-21.409-4.443-43.159-6.835-64.598-5.735
					C144.082,202.01,143.752,202.04,143.427,202.088L143.427,202.088z"/>
			</g>
		</g>
		<path fill="#FFFFFF" d="M100.129,179.8c0,0,22.319-1.486,22.319,78.86C122.448,258.66,141.791,178.313,100.129,179.8z"/>
		<path fill="#FFFFFF" d="M115.504,188.23c0,0,78.362-1.98,99.689,13.889c0,0-46.622-12.896-97.706-6.454L115.504,188.23z"/>
		<path fill="#FFFFFF" d="M130.878,170.126h6.697c0,0,3.025-8.075,13.084-11.526C150.659,158.6,140.428,160.581,130.878,170.126z"/>
		<path fill="#17569E" d="M118.978,278.498c0,0,0,23.311-2.976,43.151c0,0,15.869,4.961,19.343,10.912
			c0,0,28.267-2.977,32.733-1.984v-9.422l-13.39-5.951l0.992-28.271L118.978,278.498z"/>
		<path fill="#FFFFFF" d="M133.689,299.828l1.322,23.805c0,0,15.543-1.65,21.821-1.65c0,0-12.563-2.98-18.512-2.98
			C138.32,319.002,136.003,303.463,133.689,299.828z"/>
		<path fill="#FFFFFF" d="M198.146,308.152l0.329,15.211c0,0,13.889-0.992,18.849-0.33c0,0-6.117-2.148-16.041-2.152
			L198.146,308.152z"/>
	</g>
	<g>
		<path fill="#17569E" d="M43.303,55.096v57.5h63.116v-57.5H43.303z M101.073,107.25h-52.42V60.45h52.42V107.25z"/>
		<g>
			<line fill="#17569E" x1="64.997" y1="104.541" x2="64.997" y2="63.152"/>
			<path fill="#17569E" d="M64.997,105.731c-0.659,0-1.19-0.532-1.19-1.19V63.152c0-0.659,0.532-1.19,1.19-1.19
				c0.655,0,1.19,0.532,1.19,1.19v41.388C66.187,105.199,65.651,105.731,64.997,105.731z"/>
		</g>
		<g>
			<line fill="#17569E" x1="55.256" y1="104.541" x2="55.256" y2="63.152"/>
			<path fill="#17569E" d="M55.256,105.731c-0.659,0-1.19-0.532-1.19-1.19V63.152c0-0.659,0.532-1.19,1.19-1.19
				c0.659,0,1.19,0.532,1.19,1.19v41.388C56.446,105.199,55.915,105.731,55.256,105.731z"/>
		</g>
		<g>
			<line fill="#17569E" x1="74.733" y1="104.541" x2="74.733" y2="63.152"/>
			<path fill="#17569E" d="M74.733,105.731c-0.651,0-1.19-0.532-1.19-1.19V63.152c0-0.659,0.539-1.19,1.19-1.19
				c0.663,0,1.194,0.532,1.194,1.19v41.388C75.928,105.199,75.396,105.731,74.733,105.731z"/>
		</g>
		<g>
			<line fill="#17569E" x1="84.478" y1="104.541" x2="84.478" y2="63.152"/>
			<path fill="#17569E" d="M84.478,105.731c-0.659,0-1.19-0.532-1.19-1.19V63.152c0-0.659,0.532-1.19,1.19-1.19
				c0.655,0,1.19,0.532,1.19,1.19v41.388C85.668,105.199,85.133,105.731,84.478,105.731z"/>
		</g>
		<g>
			<line fill="#17569E" x1="94.218" y1="104.541" x2="94.218" y2="63.152"/>
			<path fill="#17569E" d="M94.218,105.731c-0.659,0-1.19-0.532-1.19-1.19V63.152c0-0.659,0.532-1.19,1.19-1.19
				s1.19,0.532,1.19,1.19v41.388C95.409,105.199,94.877,105.731,94.218,105.731z"/>
		</g>
	</g>
	<g>
		<path fill="#17569E" d="M127.386,17.205v57.493h63.115V17.205H127.386z M185.155,69.355h-52.42V22.55h52.42V69.355z"/>
		<g>
			<line fill="#17569E" x1="149.079" y1="66.645" x2="149.079" y2="25.25"/>
			<path fill="#17569E" d="M149.079,67.832c-0.659,0-1.19-0.531-1.19-1.187V25.25c0-0.655,0.532-1.19,1.19-1.19
				c0.655,0,1.19,0.535,1.19,1.19v41.396C150.27,67.3,149.734,67.832,149.079,67.832z"/>
		</g>
		<g>
			<line fill="#17569E" x1="139.339" y1="66.645" x2="139.339" y2="25.25"/>
			<path fill="#17569E" d="M139.339,67.832c-0.659,0-1.19-0.531-1.19-1.187V25.25c0-0.655,0.531-1.19,1.19-1.19
				c0.655,0,1.19,0.535,1.19,1.19v41.396C140.529,67.3,139.994,67.832,139.339,67.832z"/>
		</g>
		<g>
			<line fill="#17569E" x1="158.82" y1="66.645" x2="158.82" y2="25.25"/>
			<path fill="#17569E" d="M158.82,67.832c-0.655,0-1.19-0.531-1.19-1.187V25.25c0-0.655,0.535-1.19,1.19-1.19
				c0.659,0,1.191,0.535,1.191,1.19v41.396C160.011,67.3,159.479,67.832,158.82,67.832z"/>
		</g>
		<g>
			<line fill="#17569E" x1="168.557" y1="66.645" x2="168.557" y2="25.25"/>
			<path fill="#17569E" d="M168.557,67.832c-0.655,0-1.187-0.531-1.187-1.187V25.25c0-0.655,0.531-1.19,1.187-1.19
				c0.659,0,1.19,0.535,1.19,1.19v41.396C169.747,67.3,169.216,67.832,168.557,67.832z"/>
		</g>
		<g>
			<line fill="#17569E" x1="178.301" y1="66.645" x2="178.301" y2="25.25"/>
			<path fill="#17569E" d="M178.301,67.832c-0.659,0-1.19-0.531-1.19-1.187V25.25c0-0.655,0.531-1.19,1.19-1.19
				s1.19,0.535,1.19,1.19v41.396C179.491,67.3,178.96,67.832,178.301,67.832z"/>
		</g>
	</g>
	<g>
		<path fill="#17569E" d="M211.468,77.213v57.5h63.115v-57.5H211.468z M269.237,129.367h-52.42V82.559h52.42V129.367z"/>
		<g>
			<line fill="#17569E" x1="233.158" y1="126.653" x2="233.158" y2="85.261"/>
			<path fill="#17569E" d="M233.158,127.844c-0.655,0-1.187-0.532-1.187-1.19V85.261c0-0.659,0.531-1.19,1.187-1.19
				c0.659,0,1.19,0.532,1.19,1.19v41.392C234.349,127.312,233.817,127.844,233.158,127.844z"/>
		</g>
		<g>
			<line fill="#17569E" x1="223.421" y1="126.653" x2="223.421" y2="85.261"/>
			<path fill="#17569E" d="M223.421,127.844c-0.658,0-1.189-0.532-1.189-1.19V85.261c0-0.659,0.531-1.19,1.189-1.19
				c0.655,0,1.191,0.532,1.191,1.19v41.392C224.612,127.312,224.076,127.844,223.421,127.844z"/>
		</g>
		<g>
			<line fill="#17569E" x1="242.902" y1="126.653" x2="242.902" y2="85.261"/>
			<path fill="#17569E" d="M242.902,127.844c-0.659,0-1.19-0.532-1.19-1.19V85.261c0-0.659,0.531-1.19,1.19-1.19
				s1.19,0.532,1.19,1.19v41.392C244.093,127.312,243.562,127.844,242.902,127.844z"/>
		</g>
		<g>
			<line fill="#17569E" x1="252.64" y1="126.653" x2="252.64" y2="85.261"/>
			<path fill="#17569E" d="M252.64,127.844c-0.655,0-1.191-0.532-1.191-1.19V85.261c0-0.659,0.536-1.19,1.191-1.19
				c0.658,0,1.189,0.532,1.189,1.19v41.392C253.829,127.312,253.298,127.844,252.64,127.844z"/>
		</g>
		<g>
			<line fill="#17569E" x1="262.384" y1="126.653" x2="262.384" y2="85.261"/>
			<path fill="#17569E" d="M262.384,127.844c-0.659,0-1.19-0.532-1.19-1.19V85.261c0-0.659,0.531-1.19,1.19-1.19
				c0.654,0,1.19,0.532,1.19,1.19v41.392C263.574,127.312,263.038,127.844,262.384,127.844z"/>
		</g>
	</g>
	<g>
		<path fill="#17569E" d="M323.034,212.026l19.17-3.914v-22.813c0-20.937,8.417-35.939,36.071-35.939
			c11.298,0,20.839,1.439,30.871,5.53v19.145c-0.229,0-22.006-0.228-22.006-0.228c-12.977-0.228-12.671,6.27-12.671,19.093v15.213
			h27.763v24.657h-27.763v97.691h-32.265V232.77h-19.17V212.026z"/>
		<path fill="#17569E" d="M414.729,287.757c0-17.796,9.617-33.561,35.854-33.561c0,0,35.941,0.239,35.941,0c0,0,0.229-7.601,0-7.829
			c0-13.057-6.106-15.104-16.355-15.104c-10.633,0-41.328,1.917-51.383,2.639V213.99c16.105-6.259,32.932-8.079,55.743-8.176
			c26.345-0.113,44.251,8.995,44.251,39.273v85.374h-25.475l-6.781-13.479c-1.352,2.663-18.526,15.242-37.215,14.86
			c-23.545-0.632-34.58-16.658-34.58-32.57V287.757z M458.434,305.923c13.5,0,28.09-9.473,28.09-9.473v-22.433l-29.604,2.293
			c-8.518,0.796-9.924,7.106-9.924,12.454v5.94C446.995,304.875,452.502,305.923,458.434,305.923z"/>
		<path fill="#17569E" d="M537.905,149.586h32.049v64.63c11.21-5.103,26.793-7.947,37.163-7.947
			c33.902,0,39.943,25.55,39.943,63.595c0,37.105-9.836,61.979-39.943,61.979c-14.525,0-29.29-7.556-36.934-13.706l-5.736,12.324
			h-26.542V149.586z M598.754,304.268c10.412,0,16.051-8.387,16.051-35.667c0-31.234-5.879-37.043-16.051-37.043
			c-11.156,0-20.142,1.332-28.57,4.603v60.562C577.062,301.161,586.639,304.268,598.754,304.268z"/>
		<path fill="#17569E" d="M666.013,208.112h27.194l5.069,15.44c8.474-8.187,19.881-16.692,35.091-16.692
			c5.291,0,10.372,0.204,13.632,1.457v31.143c-3.26-0.313-10.741-0.632-17.688-0.632c-13.346,0-23.061,2.185-31.034,13.621v78.012
			h-32.264V208.112z"/>
		<path fill="#17569E" d="M760.301,169.522c0-3.459,1.844-5.757,5.518-5.757h24.197c3.459,0,5.172,2.532,5.172,5.757v20.424
			c0,3.454-1.943,5.297-5.172,5.297h-24.197c-3.213,0-5.518-2.07-5.518-5.297V169.522z M761.459,208.112h32.266v122.349h-32.266
			V208.112z"/>
		<path fill="#17569E" d="M852.914,206.969c11.984,0,36.158,0.706,56.343,7.248v20.043c0,0-22.017-1.371-42.526-1.371
			c-14.841,0-21.875,0.882-21.875,36.952c0,31.32,5.291,35.853,21.875,35.853c21.198,0,44.131-2.155,44.131-2.155v20.248
			c-17.895,9.103-38.82,7.601-57.947,7.828c-22.8,0-40.323-11.93-40.323-62.451C812.591,218.757,829.414,206.969,852.914,206.969z"
			/>
		<path fill="#17569E" d="M930.783,274.933c0-14.013,6.946-23.434,18.188-25.92c-16.029-6.975-18.188-20.299-18.188-33.527v-14.975
			c0-31.632,19.354-39.853,43.073-39.853h34.914c26.052,0,39.857,11.003,39.857,39.984v12.312
			c0.107,5.701-1.57,24.032-17.273,26.728c14.341,2.68,17.381,21.665,17.273,31.564v19.804c0,34.142-21.165,39.411-40.087,39.411
			h-34.685c-41.907,0-43.073-26.291-43.073-38.647V274.933z M978.425,230.926h23.073c13.143,0,14.875-6.764,14.875-14.286V205.78
			c0-13.751-5.921-16.687-15.08-16.687h-21.721c-10.438,0-16.533,1.53-16.533,16.687v10.861
			C963.039,228.526,970.594,230.926,978.425,230.926z M979.572,302.009h21.622c10.033,0,15.179-4.763,15.179-13.813v-15.953
			c0-9.206-5.115-14.36-14.625-14.36h-23.323c-10.087,0-15.386,4.5-15.386,14.36v15.953
			C963.039,297.702,967.563,302.009,979.572,302.009z"/>
	</g>
</g>
</svg>
