<?xml version="1.0" encoding="utf-8"?>
<!-- Generator: Adobe Illustrator 16.0.0, SVG Export Plug-In . SVG Version: 6.00 Build 0)  -->
<!DOCTYPE svg PUBLIC "-//W3C//DTD SVG 1.1//EN" "http://www.w3.org/Graphics/SVG/1.1/DTD/svg11.dtd">
<svg version="1.1" id="Layer_1" xmlns="http://www.w3.org/2000/svg" xmlns:xlink="http://www.w3.org/1999/xlink" x="0px" y="0px"
	 width="256px" height="256px" viewBox="0 0 256 256" enable-background="new 0 0 256 256" xml:space="preserve">
<radialGradient id="SVGID_1_" cx="122.9463" cy="138.6182" r="187.5435" gradientUnits="userSpaceOnUse">
	<stop  offset="0" style="stop-color:#FFFFFF"/>
	<stop  offset="0.0737" style="stop-color:#EAEFF9;stop-opacity:0.9263"/>
	<stop  offset="0.2504" style="stop-color:#BBCCEB;stop-opacity:0.7496"/>
	<stop  offset="0.4232" style="stop-color:#8FB0DD;stop-opacity:0.5768"/>
	<stop  offset="0.5882" style="stop-color:#699BD3;stop-opacity:0.4118"/>
	<stop  offset="0.7433" style="stop-color:#498DCB;stop-opacity:0.2567"/>
	<stop  offset="0.8847" style="stop-color:#3185C6;stop-opacity:0.1153"/>
	<stop  offset="1" style="stop-color:#2782C5;stop-opacity:0"/>
</radialGradient>
<rect x="-54.667" y="-58.356" opacity="0.2" fill="url(#SVGID_1_)" width="355.225" height="393.949"/>
<g>
	<defs>
		<rect id="SVGID_2_" width="256" height="256"/>
	</defs>
	<clipPath id="SVGID_3_">
		<use xlink:href="#SVGID_2_"  overflow="visible"/>
	</clipPath>
	<radialGradient id="SVGID_4_" cx="124.7544" cy="125.126" r="189.3659" gradientUnits="userSpaceOnUse">
		<stop  offset="0" style="stop-color:#8CB5D3"/>
		<stop  offset="0.2128" style="stop-color:#6291B9"/>
		<stop  offset="0.4316" style="stop-color:#3F75A4"/>
		<stop  offset="0.6411" style="stop-color:#256496"/>
		<stop  offset="0.8355" style="stop-color:#105A8E"/>
		<stop  offset="1" style="stop-color:#05578B"/>
	</radialGradient>
	<rect x="-54.667" y="-58.356" clip-path="url(#SVGID_3_)" fill="url(#SVGID_4_)" width="832.78" height="393.949"/>
</g>
<g>
	<defs>
		<rect id="SVGID_5_" width="256" height="256"/>
	</defs>
	<clipPath id="SVGID_6_">
		<use xlink:href="#SVGID_5_"  overflow="visible"/>
	</clipPath>
	<radialGradient id="SVGID_7_" cx="124.7544" cy="125.126" r="522.2178" gradientUnits="userSpaceOnUse">
		<stop  offset="0" style="stop-color:#8CB5D3"/>
		<stop  offset="0.0576" style="stop-color:#6C9ABF"/>
		<stop  offset="0.1252" style="stop-color:#5083AE"/>
		<stop  offset="0.2029" style="stop-color:#3971A0"/>
		<stop  offset="0.2936" style="stop-color:#266496"/>
		<stop  offset="0.4058" style="stop-color:#175D90"/>
		<stop  offset="0.5631" style="stop-color:#09588C"/>
		<stop  offset="1" style="stop-color:#05578B"/>
	</radialGradient>
	<rect x="-54.667" y="-58.356" clip-path="url(#SVGID_6_)" fill="url(#SVGID_7_)" width="832.78" height="393.949"/>
</g>
<g>
	<linearGradient id="SVGID_8_" gradientUnits="userSpaceOnUse" x1="63.334" y1="147.5195" x2="210.3027" y2="147.5195">
		<stop  offset="0" style="stop-color:#FEFEFE"/>
		<stop  offset="0.2624" style="stop-color:#EFEFF0"/>
		<stop  offset="0.7275" style="stop-color:#D7D9D9"/>
		<stop  offset="1" style="stop-color:#CFD1D1"/>
	</linearGradient>
	<path fill="url(#SVGID_8_)" d="M210.303,118.927c-16.899,11.727-34.447,8.635-54.371-7.876c-11.487-9.519-26.153-6.5-36.146-3.412
		c-6.212,1.924-14.832,1.746-22.322,0.177c-32.782-6.871-25.631,14.162-19.557,32.87c11.154,34.337-7.594,42.289-14.036,30.058
		c-4.141,15.513,16.74,20.104,25.649,18.062c14.086-3.231,32.955-5.052,44.663-1.47c22.386,6.84,30.782,1.2,27.069-6.028
		c-1.218-2.374-0.536-5.739,1.367-7.332c6.648-5.568,12.421-0.875,18.778-4.568c4.948-2.874,4.874-9.209-2.787-12.811
		c-4.064-1.912-3.873-6.757,0.43-9.009c8.747-4.576,20.52-2.429,23.452-12.049C203.54,132.092,206.476,123.439,210.303,118.927z"/>
	<linearGradient id="SVGID_9_" gradientUnits="userSpaceOnUse" x1="125.7349" y1="181.2305" x2="117.1115" y2="120.0578">
		<stop  offset="0" style="stop-color:#F6F6F6"/>
		<stop  offset="0.5919" style="stop-color:#E3E3E3"/>
		<stop  offset="1" style="stop-color:#DADADA"/>
	</linearGradient>
	<path fill="url(#SVGID_9_)" d="M125.979,114.721c0,11.688,1.739,53.472,10.643,71.31l-20.484-0.458v-73.812L125.979,114.721z"/>
	<linearGradient id="SVGID_10_" gradientUnits="userSpaceOnUse" x1="126.3242" y1="162.957" x2="142.7415" y2="117.223">
		<stop  offset="0" style="stop-color:#F6F6F6"/>
		<stop  offset="0.5919" style="stop-color:#E3E3E3"/>
		<stop  offset="1" style="stop-color:#DADADA"/>
	</linearGradient>
	<path fill="url(#SVGID_10_)" d="M79.947,142.282c-6.478-17.49-15.265-38.991,17.517-32.121c7.49,1.57,16.109,1.748,22.322-0.176
		c9.993-3.089,23.387-5.732,34.039,3.566c20.818,18.17,39.579,19.446,56.479,7.721c-3.827,4.512-7.29,13.047-7.811,16.611
		c-0.443,3.033-2.661,4.393-5.588,5.579c-43.432,17.63-36.102-12.445-50.077-22.241c-7.406-5.192-18.137-4.903-26.378-1.903
		c-7.435,2.705-15.095,2.026-23.061-0.931C84.097,113.455,75.167,116.062,79.947,142.282z"/>
	<g opacity="0.75">
		<path fill="#FFFFFF" d="M136.999,109.307L136.999,109.307c6.377,0,11.591,1.752,15.939,5.356
			c12.995,10.769,24.93,16.004,36.484,16.004c3.453,0,6.877-0.484,10.253-1.445c-0.744,2.005-1.309,3.757-1.671,4.948
			c-1.012,3.32-3.748,4.249-10.221,5.717c-3.43,0.778-7.317,1.66-10.919,3.544c-3.7,1.937-5.949,5.451-5.871,9.171
			c0.075,3.539,2.176,6.619,5.62,8.239c2.704,1.271,3.464,2.661,3.488,3.219c0.026,0.61-0.806,1.143-1.062,1.291
			c-1.397,0.812-2.768,0.966-4.808,0.966c-0.377,0-0.753-0.005-1.13-0.01c-0.418-0.006-0.836-0.011-1.254-0.011
			c-3.827,0-7.958,0.494-12.241,4.081c-3.623,3.032-4.734,8.773-2.529,13.073c0.285,0.554,0.325,0.871,0.329,0.979
			c-0.287,0.328-1.906,1.305-6.044,1.305c-4.167,0-9.635-0.997-15.81-2.884c-4.702-1.438-10.583-2.168-17.48-2.168
			c-8.975,0-19.765,1.294-29.603,3.551c-0.966,0.222-2.189,0.339-3.539,0.339c-4.396,0-9.817-1.277-13.303-3.74
			c3.924-0.026,7.652-2.078,10.24-5.639c3.143-4.326,7.388-14.749,0.499-35.955l-0.188-0.581c-3-9.232-6.733-20.722-3.616-25.011
			c1.191-1.639,3.838-2.47,7.867-2.47c2.783,0,6.171,0.415,10.071,1.232c4.126,0.865,8.484,1.322,12.604,1.322
			c4.562,0,8.621-0.542,12.064-1.608C125.08,110.913,130.973,109.306,136.999,109.307 M136.999,104.616
			c-6.246,0-12.295,1.503-17.213,3.023c-3.105,0.962-6.812,1.398-10.679,1.398c-3.869,0-7.896-0.437-11.643-1.222
			c-4.348-0.911-7.994-1.332-11.033-1.332c-19.872-0.001-13.793,17.975-8.524,34.201c7.918,24.376,0.767,35.455-6.354,35.455
			c-2.91,0-5.813-1.85-7.683-5.397c-3.532,13.231,11.142,18.519,21.062,18.519c1.71,0,3.277-0.156,4.587-0.457
			c8.637-1.981,19.074-3.433,28.554-3.433c5.981,0,11.579,0.577,16.108,1.963c7.123,2.177,12.831,3.09,17.182,3.09
			c9.323,0,12.419-4.189,9.888-9.118c-1.218-2.374-0.536-5.739,1.367-7.332c3.228-2.703,6.249-2.988,9.23-2.988
			c0.796,0,1.59,0.021,2.384,0.021c2.357,0,4.717-0.179,7.164-1.601c4.948-2.874,4.874-9.209-2.787-12.811
			c-4.064-1.912-3.873-6.757,0.43-9.009c8.747-4.576,20.52-2.429,23.452-12.049c1.048-3.446,3.983-12.099,7.811-16.611
			c-6.815,4.729-13.739,7.049-20.88,7.049c-10.562,0-21.604-5.074-33.491-14.925C150.099,106.217,143.443,104.616,136.999,104.616
			L136.999,104.616z M210.303,118.927h0.005H210.303z"/>
	</g>
	
		<line fill="none" stroke="#FFFFFF" stroke-width="8.2087" stroke-miterlimit="10" x1="120.449" y1="186.291" x2="120.449" y2="113.063"/>
	
		<path fill="none" stroke="#034672" stroke-width="4.6907" stroke-linecap="round" stroke-linejoin="round" stroke-miterlimit="10" d="
		M210.303,118.927c-16.899,11.727-34.447,8.635-54.371-7.876c-11.487-9.519-26.153-6.5-36.146-3.412
		c-6.212,1.924-14.832,1.746-22.322,0.177c-32.782-6.871-25.631,14.162-19.557,32.87c11.154,34.337-7.594,42.289-14.036,30.058
		c-4.141,15.513,16.74,20.104,25.649,18.062c14.086-3.231,32.955-5.052,44.663-1.47c22.386,6.84,30.782,1.2,27.069-6.028
		c-1.218-2.374-0.536-5.739,1.367-7.332c6.648-5.568,12.421-0.875,18.778-4.568c4.948-2.874,4.874-9.209-2.787-12.811
		c-4.064-1.912-3.873-6.757,0.43-9.009c8.747-4.576,20.52-2.429,23.452-12.049C203.54,132.092,206.476,123.439,210.303,118.927z"/>
	<path fill="#034672" d="M79.947,139.936c-6.478-17.489-15.265-38.99,17.517-32.12c7.49,1.569,16.109,1.748,22.322-0.177
		c9.993-3.089,23.387-5.732,34.039,3.567c20.818,18.172,39.579,19.447,56.479,7.721c-3.827,4.513-7.29,13.048-7.811,16.611
		c-0.443,3.032-2.62,4.494-5.588,5.581c-30.767,11.243-33.125-12.874-47.099-22.668c-7.408-5.192-21.115-4.475-29.357-1.478
		c-7.435,2.705-15.095,2.026-23.061-0.93C84.097,111.11,75.167,113.717,79.947,139.936z"/>
	<path fill="#FFFFFF" d="M132.134,58.685c-2.468-1.392-10.025-6.127-11.915-7.188c-1.888-1.062-6.385-4.411-11.3-4.411
		c-4.919,0-9.415,3.348-11.305,4.411c-1.887,1.061-9.445,5.796-11.912,7.188c-1.887,1.064-8.733,4.778-8.733,14.87
		c0,3.069,0,8.359,0,10.602c0,6.666,3.745,11.676,10.503,15.105c2.306,1.17,4.132,3.118,4.132,8.132
		c0,2.213,0.824,2.725,2.153,2.725h1.593c1.467,0,2.263,0.552,2.263,2.944c0,1.32,0,4.837,0,4.837v87.25l6.363,6.517h2.918
		l13.324-13.649V117.9c0,0,0-3.518,0-4.837c0-2.392,0.798-2.944,2.264-2.944h1.594c1.328,0,2.153-0.511,2.153-2.725
		c0-5.014,1.825-6.962,4.133-8.132c6.759-3.429,10.504-8.439,10.504-15.105c0-2.243,0-7.533,0-10.602
		C140.867,63.463,134.021,59.75,132.134,58.685z"/>
	<linearGradient id="SVGID_11_" gradientUnits="userSpaceOnUse" x1="93.2939" y1="77.2676" x2="113.5225" y2="176.3587">
		<stop  offset="0" style="stop-color:#F1F9FE"/>
		<stop  offset="0.4888" style="stop-color:#E8F5FD"/>
		<stop  offset="1" style="stop-color:#E4F3FC"/>
	</linearGradient>
	<path fill="url(#SVGID_11_)" d="M108.919,47.087c-4.919,0-9.415,3.348-11.305,4.411c-1.887,1.061-9.445,5.796-11.912,7.188
		c-1.887,1.064-8.733,4.778-8.733,14.87c0,3.069,0,8.359,0,10.602c0,6.666,3.745,11.676,10.503,15.105
		c2.306,1.17,4.132,3.118,4.132,8.132c0,2.213,0.824,2.725,2.153,2.725h1.593c1.467,0,2.263,0.552,2.263,2.944
		c0,1.32,0,4.837,0,4.837v87.25l6.363,6.517h2.918l2.024-2.069V47.087z"/>
	<linearGradient id="SVGID_12_" gradientUnits="userSpaceOnUse" x1="86.353" y1="133.9531" x2="158.6682" y2="115.9722">
		<stop  offset="0" style="stop-color:#B8D7E8"/>
		<stop  offset="0.0112" style="stop-color:#B9D7E8"/>
		<stop  offset="0.3749" style="stop-color:#CFE4F2"/>
		<stop  offset="0.7134" style="stop-color:#DBECF7"/>
		<stop  offset="1" style="stop-color:#E0EEF9"/>
	</linearGradient>
	<path fill="url(#SVGID_12_)" d="M132.134,58.685c-2.468-1.392-10.025-6.127-11.915-7.188c-1.888-1.062-6.385-4.411-11.3-4.411
		v162.511l11.3-11.58V117.9c0,0,0-3.518,0-4.837c0-2.392,0.798-2.944,2.264-2.944h1.594c1.328,0,2.153-0.511,2.153-2.725
		c0-5.014,1.825-6.962,4.133-8.132c6.759-3.429,10.504-8.439,10.504-15.105c0-2.243,0-7.533,0-10.602
		C140.867,63.463,134.021,59.75,132.134,58.685z"/>
	<path fill="none" stroke="#FFFFFF" stroke-width="4.6907" stroke-miterlimit="10" d="M108.238,47.087
		c4.474,2.2,8.047,4.612,9.935,5.674c1.886,1.061,9.445,5.794,11.913,7.188c1.888,1.065,8.733,4.778,8.733,14.87
		c0,3.068,0,6.58,0,8.823c0,6.667-3.745,11.675-10.505,15.104c-2.305,1.17-4.131,3.355-4.131,8.372v2.905"/>
	<path fill="none" stroke="#034672" stroke-width="4.6907" stroke-miterlimit="10" d="M132.134,58.685
		c-2.468-1.392-10.025-6.127-11.915-7.188c-1.888-1.062-6.385-4.411-11.3-4.411c-4.919,0-9.415,3.348-11.305,4.411
		c-1.887,1.061-9.445,5.796-11.912,7.188c-1.887,1.064-8.733,4.778-8.733,14.87c0,3.069,0,8.359,0,10.602
		c0,6.666,3.745,11.676,10.503,15.105c2.306,1.17,4.132,3.118,4.132,8.132c0,2.213,0.824,2.725,2.153,2.725h1.593
		c1.467,0,2.263,0.552,2.263,2.944c0,1.32,0,4.837,0,4.837v87.25l6.363,6.517h2.918l13.324-13.649V117.9c0,0,0-3.518,0-4.837
		c0-2.392,0.798-2.944,2.264-2.944h1.594c1.328,0,2.153-0.511,2.153-2.725c0-5.014,1.825-6.962,4.133-8.132
		c6.759-3.429,10.504-8.439,10.504-15.105c0-2.243,0-7.533,0-10.602C140.867,63.463,134.021,59.75,132.134,58.685z"/>
	<path fill="#E9F6FE" stroke="#034672" stroke-width="4.6907" stroke-miterlimit="10" d="M143.676,117.9"/>
	<linearGradient id="SVGID_13_" gradientUnits="userSpaceOnUse" x1="108.9224" y1="65.9102" x2="108.9224" y2="89.7569">
		<stop  offset="0" style="stop-color:#01649B"/>
		<stop  offset="0.2191" style="stop-color:#00598B"/>
		<stop  offset="0.507" style="stop-color:#004E7C"/>
		<stop  offset="0.7564" style="stop-color:#004772"/>
		<stop  offset="1" style="stop-color:#00446E"/>
	</linearGradient>
	<polygon fill="url(#SVGID_13_)" points="108.923,70.358 87.693,65.607 85.348,74.377 108.923,86.238 132.498,74.377 
		130.152,65.607 	"/>
	<polyline opacity="0.2" fill="#010202" points="108.923,86.238 132.498,74.377 130.152,65.607 108.923,70.358 	"/>
	<path fill="#034672" d="M97.388,116.043c7.966,2.957,15.625,3.635,23.061,0.93l-0.663-5.212
		c-6.212,1.923-14.832,1.745-22.322,0.176L97.388,116.043z"/>
	<path fill="#034672" d="M108.285,115.217c-0.948,6.465,4.447,11.04,4.445,17.869C121.755,122.917,110.212,119.488,108.285,115.217z
		"/>
	<path fill="#034672" d="M108.171,115.654c-0.276,7.521-0.943,13.089-4.083,16.997C98.417,121.541,105.7,117.828,108.171,115.654z"
		/>
	<circle fill="#034672" cx="108.237" cy="115.604" r="3.739"/>
	<linearGradient id="SVGID_14_" gradientUnits="userSpaceOnUse" x1="134.1836" y1="187.3359" x2="134.1836" y2="187.3359">
		<stop  offset="0" style="stop-color:#F6F6F6"/>
		<stop  offset="0.5919" style="stop-color:#E3E3E3"/>
		<stop  offset="1" style="stop-color:#DADADA"/>
	</linearGradient>
	<path fill="url(#SVGID_14_)" d="M134.183,187.335"/>
</g>
</svg>
