<?xml version="1.0" standalone="no"?>
<!DOCTYPE svg PUBLIC "-//W3C//DTD SVG 20010904//EN"
 "http://www.w3.org/TR/2001/REC-SVG-20010904/DTD/svg10.dtd">
<svg version="1.0" xmlns="http://www.w3.org/2000/svg"
 width="240.000000pt" height="200.000000pt" viewBox="0 0 240.000000 200.000000"
 preserveAspectRatio="xMidYMid meet">
<metadata>
Created by potrace 1.11, written by Peter Selinger 2001-2013
</metadata>
<g transform="translate(0.000000,200.000000) scale(0.100000,-0.100000)"
fill="#000000" stroke="none">
<path d="M761 1906 c-68 -24 -104 -66 -187 -211 -6 -11 -21 -37 -32 -57 -12
-21 -31 -54 -42 -73 -27 -48 -46 -79 -130 -225 -40 -69 -81 -141 -92 -160 -11
-19 -23 -39 -27 -45 -15 -24 -31 -83 -31 -115 0 -32 16 -91 31 -115 4 -5 16
-26 27 -45 11 -19 52 -91 92 -160 84 -146 103 -177 130 -225 11 -19 30 -52 42
-72 11 -21 26 -47 32 -58 62 -109 83 -140 117 -168 21 -19 56 -39 78 -45 54
-17 848 -17 902 0 64 19 112 69 181 190 34 61 74 129 87 152 13 23 32 55 41
71 9 17 31 54 49 83 17 29 31 55 31 57 0 2 22 40 49 84 75 122 111 203 111
251 0 48 -36 129 -111 251 -27 44 -49 82 -49 84 0 2 -14 28 -31 57 -18 29 -40
67 -49 83 -9 17 -28 48 -41 71 -13 23 -53 91 -87 152 -69 121 -117 171 -181
190 -55 17 -863 15 -910 -2z m516 -308 c23 -21 23 -22 23 -298 l0 -277 -25
-23 c-35 -33 -90 -33 -116 0 -17 23 -19 46 -19 299 0 268 0 275 22 298 28 30
83 31 115 1z m-309 -98 c27 -17 32 -26 32 -57 0 -33 -8 -46 -58 -95 -89 -87
-125 -171 -125 -293 0 -118 29 -192 110 -276 85 -89 170 -124 298 -123 81 1
98 5 159 34 144 70 234 211 236 369 0 98 -48 208 -123 283 -72 71 -82 90 -63
126 8 15 26 34 39 41 23 12 30 11 70 -12 77 -45 157 -153 197 -268 34 -92 34
-257 1 -348 -70 -193 -209 -317 -411 -367 -285 -70 -593 133 -655 431 -28 132
-13 227 57 371 32 65 107 151 160 184 40 24 36 24 76 0z"/>
</g>
</svg>
