<?xml version="1.0" encoding="utf-8"?>
<!-- Generator: Adobe Illustrator 16.0.1, SVG Export Plug-In . SVG Version: 6.00 Build 0)  -->
<!DOCTYPE svg PUBLIC "-//W3C//DTD SVG 1.1//EN" "http://www.w3.org/Graphics/SVG/1.1/DTD/svg11.dtd">
<svg version="1.1" id="Layer_1" xmlns="http://www.w3.org/2000/svg" xmlns:xlink="http://www.w3.org/1999/xlink" x="0px" y="0px"
	 width="256px" height="256px" viewBox="172 172 256 256" enable-background="new 172 172 256 256" xml:space="preserve">
<g>
	<g>
		<g>
			<g>
				<path fill="#6A8892" d="M416.753,322.185h-0.006c-0.603-2.117-45.159-96.806-45.776-97.688c-0.66-0.876-1.449-1.744-2.49-2.505
					c-0.812-0.623-1.726-1.105-2.607-1.484c-0.812-0.353-1.861-0.713-3.113-0.883c-0.477-0.081-1.035-0.132-1.695-0.132
					c-0.445,0-1.029,0.021-1.775,0.151l-29.232,4.683c-0.111,0.021-0.212,0.072-0.326,0.09l-11.717-18.76
					c-0.714-1.144-1.623-2.066-2.48-2.729c-0.799-0.641-1.766-1.201-2.858-1.644c-0.915-0.392-1.921-0.693-2.944-0.832
					c-0.629-0.111-1.256-0.162-1.889-0.162c-0.421,0-0.879,0.03-1.402,0.09c-1.069,0.163-3.902,1.304-4.058,1.4
					c0,0-106.462,36.626-108.028,37.366c-2.204,1.093-4.23,2.458-5.971,4.273c-1.623,1.695-3.026,3.818-3.812,6.326
					c-0.431,1.389-0.663,2.85-0.66,4.334c-0.003,1.171,0.142,2.385,0.443,3.577l32.112,121.974c0.768,2.939,2.126,5.657,3.933,8.033
					c2.114,3.46,15.622,20.576,66.838,0.663c1.479-0.271,2.948-0.675,4.381-1.234l116.586-45.714
					c2.565-0.977,4.774-2.698,6.319-4.726c1.645-2.216,2.558-4.703,2.853-7.199c0.094-0.681,0.13-1.403,0.13-2.105
					C417.503,325.614,417.244,323.889,416.753,322.185z"/>
				<path fill="#6A8892" d="M215.903,390.65c-2.126-2.857-3.728-6.115-4.652-9.646l0,0l-32.13-122.032
					c-0.397-1.597-0.605-3.209-0.605-4.824l0,0c0-0.021,0-0.045,0-0.068l0,0c0-0.013,0-0.031,0-0.043l0,0v-0.029
					c0-2.035,0.331-4.012,0.907-5.875l0,0c1.081-3.43,2.963-6.249,5.059-8.435l0,0c2.258-2.367,4.854-4.086,7.563-5.424l0,0
					c0.558-0.25,0.555-0.231,0.889-0.361l0,0c0.277-0.099,0.632-0.232,1.075-0.382l0,0c0.885-0.319,2.114-0.75,3.653-1.292l0,0
					c3.068-1.075,7.362-2.568,12.46-4.342l0,0c10.211-3.535,23.666-8.182,37.075-12.807l0,0
					c25.315-8.732,50.462-17.387,53.188-18.329l0,0c0.009,0,0.021-0.009,0.033-0.009l0,0c0.146-0.06,0.301-0.129,0.484-0.202l0,0
					c0.358-0.151,0.805-0.319,1.291-0.5l0,0c1.052-0.361,1.925-0.732,3.428-1.002l0,0l0.096-0.021l0.112-0.009
					c0.708-0.082,1.385-0.121,2.011-0.121l0,0c0.854,0,1.744,0.069,2.659,0.21l0,0l0,0c1.491,0.22,2.892,0.633,4.194,1.172l0,0l0,0
					c1.545,0.629,2.963,1.436,4.146,2.396l0,0c1.286,1.003,2.617,2.337,3.746,4.123l0,0l9.801,15.697l25.999-4.17
					c1.121-0.192,2.078-0.226,2.677-0.217l0,0c0.889,0,1.695,0.06,2.418,0.171l0,0l0,0c1.861,0.25,3.402,0.78,4.502,1.274l0,0
					c1.164,0.491,2.449,1.153,3.73,2.126l0,0c1.561,1.141,2.707,2.436,3.553,3.562l0,0l0.066,0.087l0.062,0.091
					c0.389,0.581,0.311,0.521,0.41,0.681l0,0c0.055,0.099,0.1,0.202,0.163,0.31l0,0c0.108,0.232,0.247,0.519,0.427,0.882l0,0
					c0.346,0.713,0.832,1.726,1.439,2.994l0,0c1.213,2.544,2.908,6.112,4.938,10.403l0,0c4.06,8.573,9.443,20.007,14.912,31.643l0,0
					c9.413,20.049,18.992,40.525,22.584,48.457l0,0h0.527l1.129,3.89c0.626,2.156,0.967,4.396,0.967,6.671l0,0
					c0,0.892-0.045,1.847-0.168,2.737l0,0c-0.395,3.369-1.641,6.778-3.914,9.837l0,0c-2.16,2.828-5.125,5.122-8.643,6.47l0,0
					l-116.593,45.714c-1.599,0.632-3.228,1.093-4.848,1.424l0,0c-18.417,7.098-32.335,9.645-42.983,9.657l0,0
					c-0.156,0-0.307,0-0.46,0l0,0C226.424,403.187,218.068,394.322,215.903,390.65L215.903,390.65z M189.564,256.282l32.118,121.986
					c0.578,2.217,1.611,4.301,2.999,6.114l0,0l0.172,0.229l0.144,0.23c0.723,0.893,4.487,7.41,20.748,7.554l0,0
					c8.977,0.009,21.79-2.199,39.535-9.098l0,0l0.488-0.189l0.506-0.09c1.157-0.211,2.289-0.521,3.375-0.952l0,0l116.641-45.734
					c1.558-0.585,3.019-1.717,3.899-2.891l0,0c1.058-1.435,1.633-2.987,1.84-4.723l0,0c0.055-0.37,0.084-0.86,0.084-1.373l0,0
					c0-1.055-0.137-2.135-0.418-3.229l0,0l-0.071-0.24c-0.04-0.091-0.101-0.231-0.175-0.413l0,0
					c-0.188-0.431-0.473-1.071-0.834-1.863l0,0c-0.727-1.604-1.762-3.86-3.035-6.618l0,0c-2.544-5.518-6.043-13.016-9.928-21.329
					l0,0c-7.778-16.625-17.123-36.499-23.614-50.228l0,0c-3.911-8.278-6.88-14.499-7.63-16.023l0,0
					c-0.359-0.431-0.693-0.762-1.094-1.054l0,0l-0.051-0.04l-0.07-0.051c-0.318-0.25-0.846-0.542-1.492-0.822l0,0
					c-0.467-0.202-1.016-0.386-1.668-0.47l0,0l-0.043-0.012l-0.074-0.009c-0.196-0.03-0.473-0.06-0.85-0.06l0,0
					c-0.289,0-0.5,0.009-0.926,0.069l0,0l-28.927,4.644c-0.121,0.03-0.271,0.069-0.452,0.111l0,0l-3.641,0.702l-13.678-21.901
					c-0.305-0.5-0.795-1.002-1.301-1.394l0,0c-0.334-0.271-0.843-0.581-1.486-0.843l0,0l-0.055-0.024l-0.043-0.015
					c-0.506-0.217-1.078-0.379-1.593-0.452l0,0l-0.071-0.009l-0.066-0.015c-0.303-0.054-0.621-0.075-0.985-0.082l0,0
					c-0.166,0.006-0.34,0.012-0.571,0.027l0,0c-0.045,0.018-0.105,0.03-0.172,0.054l0,0c-0.236,0.069-0.561,0.181-0.889,0.295l0,0
					c-0.491,0.181-1.021,0.392-1.316,0.512l0,0l-0.195,0.12l-0.566,0.189c-0.048,0.016-24.976,8.594-50.905,17.538l0,0
					c-25.903,8.934-52.901,18.272-56.566,19.615l0,0l-0.003-0.01c-1.749,0.871-3.173,1.865-4.381,3.133l0,0
					c-1.15,1.197-2.065,2.622-2.559,4.19l0,0c-0.262,0.847-0.401,1.701-0.416,2.541l0,0l0.006,0.081l-0.008,0.244
					C189.304,254.88,189.395,255.611,189.564,256.282L189.564,256.282z M415.332,322.594l1.421-0.408l0,0l0,0L415.332,322.594
					L415.332,322.594z M304.701,206.642v-0.006l0,0l0,0V206.642L304.701,206.642z"/>
			</g>
			
				<linearGradient id="SVGID_1_" gradientUnits="userSpaceOnUse" x1="511.7305" y1="91.6313" x2="1006.1287" y2="-224.1059" gradientTransform="matrix(1 0 0 -1 -336 325)">
				<stop  offset="0" style="stop-color:#FFFFFF"/>
				<stop  offset="1" style="stop-color:#6A8892"/>
			</linearGradient>
			<path fill="url(#SVGID_1_)" d="M329.736,223.725l-11.379-18.221c-0.698-1.114-1.58-2.006-2.412-2.653
				c-0.776-0.626-1.713-1.171-2.776-1.599c-0.888-0.379-1.864-0.666-2.856-0.812c-0.615-0.1-1.224-0.15-1.838-0.15
				c-0.41,0-0.853,0.03-1.363,0.081c-1.036,0.16-3.789,1.274-3.938,1.365c0,0-103.412,35.578-104.933,36.3
				c-2.141,1.063-4.11,2.385-5.797,4.15c-1.581,1.644-2.941,3.708-3.704,6.146c-0.421,1.347-0.647,2.759-0.642,4.204
				c-0.006,1.141,0.139,2.315,0.428,3.479l31.193,118.48c0.747,2.849,2.063,5.496,3.818,7.793c0.91,1.485,3.993,5.565,11.443,7.983
				l95.074-166.634C329.945,223.653,329.848,223.704,329.736,223.725z"/>
			
				<linearGradient id="SVGID_2_" gradientUnits="userSpaceOnUse" x1="619.8398" y1="41.6919" x2="707.7133" y2="-71.6183" gradientTransform="matrix(1 0 0 -1 -336 325)">
				<stop  offset="0.0275" style="stop-color:#424F56"/>
				<stop  offset="0.5549" style="stop-color:#6F818B"/>
				<stop  offset="1" style="stop-color:#B0BFC8"/>
			</linearGradient>
			<path fill="url(#SVGID_2_)" d="M413.906,318.884H413.9c-0.58-2.044-43.707-93.694-44.308-94.546
				c-0.639-0.852-1.399-1.695-2.409-2.427c-0.785-0.602-1.67-1.068-2.527-1.433c-0.785-0.346-1.799-0.692-3.01-0.858
				c-0.461-0.075-1.002-0.126-1.639-0.126c-0.431,0-1,0.021-1.723,0.142l-28.293,4.542l-94.736,166.034
				c9.359,3.038,25.644,3.438,53.29-7.312c1.431-0.25,2.852-0.65,4.24-1.191l112.847-44.242c2.48-0.94,4.622-2.606,6.116-4.573
				c1.593-2.145,2.472-4.551,2.758-6.969c0.091-0.663,0.129-1.354,0.129-2.034C414.636,322.205,414.383,320.528,413.906,318.884z"/>
		</g>
		<g>
			<g>
				<path fill="#6A8892" d="M235.048,390.271c-7.45-2.418-10.53-6.498-11.439-7.983c-1.756-2.297-3.075-4.944-3.821-7.793
					l-31.19-118.481c-0.29-1.163-0.437-2.339-0.431-3.479c-0.006-1.445,0.223-2.857,0.641-4.204
					c0.762-2.437,2.126-4.501,3.704-6.146c1.689-1.765,3.656-3.087,5.797-4.15c1.523-0.723,104.936-36.3,104.936-36.3
					c0.147-0.091,2.899-1.205,3.938-1.365c0.364-0.039,0.689-0.06,1.002-0.069c-0.094,0-0.184-0.012-0.276-0.012
					c-0.421,0-0.876,0.03-1.403,0.09c-1.068,0.163-3.9,1.304-4.057,1.4c0,0-106.461,36.626-108.028,37.366
					c-2.204,1.093-4.228,2.458-5.965,4.273c-1.629,1.695-3.03,3.818-3.815,6.326c-0.434,1.389-0.666,2.85-0.66,4.334
					c-0.006,1.171,0.142,2.385,0.44,3.577l32.111,121.974c0.771,2.939,2.126,5.657,3.937,8.033
					c2.111,3.46,15.619,20.576,66.837,0.663c1.476-0.271,2.945-0.675,4.379-1.234l116.586-45.714
					c2.564-0.977,4.774-2.697,6.32-4.726c1.645-2.216,2.557-4.703,2.852-7.199c0.093-0.681,0.131-1.403,0.131-2.104
					c0-1.733-0.262-3.46-0.752-5.163h-0.006c-0.603-2.117-45.156-96.807-45.773-97.688c-0.663-0.876-1.449-1.744-2.494-2.505
					c-0.811-0.623-1.725-1.105-2.607-1.484c-0.812-0.353-1.857-0.713-3.113-0.883c-0.477-0.081-1.036-0.132-1.692-0.132
					c-0.166,0-0.37,0.012-0.577,0.021c0.43,0.021,0.824,0.051,1.158,0.105c1.217,0.166,2.225,0.512,3.016,0.858
					c0.854,0.365,1.736,0.831,2.522,1.433c1.013,0.732,1.771,1.575,2.412,2.427c0.599,0.853,43.726,92.503,44.308,94.547h0.002
					c0.479,1.646,0.729,3.321,0.729,5.006c0,0.68-0.036,1.371-0.123,2.034c-0.289,2.418-1.172,4.824-2.765,6.969
					c-1.494,1.967-3.635,3.633-6.116,4.573l-112.844,44.244c-1.388,0.541-2.81,0.941-4.243,1.191
					c-27.646,10.75-43.931,10.35-53.29,7.312"/>
				<path fill="#4D4D4F" d="M421.947,320.679l-1.123-3.891l-0.09-0.211c-3.6-7.932-13.608-28.197-23.03-48.246
					c-5.466-11.636-10.849-23.068-14.909-31.643c-2.025-4.291-3.729-7.859-4.938-10.403c-0.603-1.268-1.09-2.28-1.439-2.994
					c-0.178-0.364-0.316-0.65-0.428-0.882c-0.061-0.108-0.112-0.21-0.163-0.31c-0.097-0.16-0.021-0.1-0.409-0.681l-0.062-0.091
					l-0.063-0.087c-0.847-1.126-1.996-2.421-3.556-3.562c-1.283-0.973-2.566-1.635-3.729-2.126
					c-1.102-0.494-2.645-1.023-4.501-1.274c-0.726-0.111-1.532-0.171-2.416-0.171c-0.603-0.009-1.565,0.024-2.68,0.217l-26.002,4.17
					l-9.802-15.697c-1.125-1.786-2.459-3.12-3.742-4.123c-1.184-0.96-2.608-1.767-4.146-2.396l0,0
					c-1.304-0.539-2.701-0.952-4.195-1.172c-0.912-0.141-1.807-0.21-2.658-0.21c-0.629,0-1.305,0.039-2.012,0.121l-0.111,0.009
					l-0.1,0.021c-1.5,0.271-2.375,0.641-3.427,1.002c-0.487,0.181-0.933,0.349-1.289,0.5c-0.181,0.072-0.337,0.142-0.488,0.202
					c-0.009,0-0.021,0.009-0.033,0.009c-2.725,0.942-27.866,9.597-53.188,18.329c-13.406,4.625-26.863,9.272-37.071,12.807
					c-5.104,1.773-9.389,3.267-12.464,4.342c-1.539,0.542-2.767,0.973-3.649,1.292c-0.443,0.15-0.798,0.283-1.072,0.382
					c-0.343,0.13-0.337,0.112-0.895,0.361c-2.71,1.337-5.302,3.057-7.561,5.424c-2.096,2.186-3.981,5.005-5.059,8.435
					c-0.579,1.863-0.906,3.84-0.906,5.875v0.029c0,0.012,0,0.03,0,0.043c0,0.023,0,0.048,0,0.068c0,1.615,0.205,3.229,0.605,4.824
					l32.13,122.032c0.921,3.53,2.526,6.788,4.652,9.646c2.165,3.672,10.519,12.536,29.378,12.536c0.153,0,0.307,0,0.464,0
					c10.647-0.014,24.565-2.561,42.977-9.657c1.626-0.331,3.249-0.792,4.854-1.424l116.59-45.714
					c3.517-1.348,6.482-3.642,8.645-6.47c2.271-3.059,3.518-6.468,3.915-9.837c0.123-0.892,0.168-1.847,0.168-2.737
					C422.917,325.072,422.572,322.834,421.947,320.679z M330.014,224.174l28.295-4.542c0.726-0.12,1.291-0.142,1.721-0.142
					c0.637,0,1.182,0.052,1.639,0.126c1.216,0.166,2.227,0.512,3.018,0.858c0.853,0.365,1.738,0.831,2.521,1.433
					c1.012,0.732,1.773,1.575,2.412,2.427c0.596,0.853,43.723,92.502,44.305,94.546h0.006c0.475,1.646,0.729,3.321,0.729,5.006
					c0,0.68-0.037,1.371-0.126,2.034c-0.286,2.418-1.17,4.824-2.762,6.969c-1.494,1.967-3.638,3.633-6.119,4.573l-112.839,44.242
					c-1.388,0.541-2.809,0.941-4.24,1.191c-13.933,5.427-24.975,8.001-33.708,8.845c-3.387,0.461-6.417,0.662-9.094,0.653
					c-16.261-0.144-20.028-6.661-20.75-7.554l-0.142-0.23l-0.172-0.229c-0.78-1.022-1.434-2.126-1.972-3.287
					c-1.334-2.019-2.367-4.233-2.99-6.602l-31.2-118.479c-0.289-1.163-0.434-2.339-0.427-3.479
					c-0.006-1.445,0.223-2.857,0.638-4.204c0.765-2.438,2.126-4.501,3.71-6.146c1.686-1.765,3.653-3.087,5.794-4.15
					c1.523-0.723,104.936-36.3,104.936-36.3c0.145-0.091,2.896-1.205,3.938-1.365c0.509-0.051,0.951-0.081,1.364-0.081
					c0.613,0,1.223,0.051,1.837,0.15c0.994,0.147,1.966,0.434,2.858,0.813c1.062,0.427,1.998,0.972,2.775,1.599
					c0.828,0.647,1.717,1.539,2.409,2.653l11.38,18.221 M416.773,322.185l-1.42,0.408L416.773,322.185L416.773,322.185
					L416.773,322.185z"/>
			</g>
		</g>
	</g>
	<g>
		<g>
			<path fill="#6A8892" d="M218.168,373.628c-0.006-0.145-0.006-0.281-0.006-0.415l0,0c0.03-8.508,7.263-15.812,17.688-19.729l0,0
				c0.094-0.104,0.214-0.198,0.361-0.249l0,0c0-0.009,1.484-0.521,2.969-1.594l0,0c1.494-1.094,2.855-2.646,2.846-4.683l0,0
				c0-0.488-0.072-1.019-0.232-1.546l0,0c-0.491-1.279-0.792-2.631-0.825-4.024l0,0c-0.009-0.128-0.009-0.247-0.009-0.338l0,0
				c0.03-7.128,6.164-13.155,14.888-16.287l0,0c0.084-0.088,0.189-0.143,0.307-0.188l0,0c0-0.01,1.138-0.355,2.267-1.147l0,0
				c1.145-0.792,2.15-1.922,2.144-3.438l0,0c0-0.376-0.06-0.776-0.181-1.188l0,0c-0.431-1.085-0.699-2.237-0.729-3.415l0,0
				c-0.006-0.114-0.003-0.203-0.006-0.285l0,0c0.036-5.986,5.267-10.994,12.602-13.481l0,0c0.079-0.075,0.172-0.127,0.277-0.157l0,0
				c-0.006-0.009,0.892-0.278,1.779-0.896l0,0c0.9-0.628,1.66-1.481,1.657-2.616l0,0c-0.003-0.361-0.072-0.756-0.253-1.223l0,0
				c-0.045-0.114-0.061-0.247-0.051-0.361l0,0c-0.126-0.527-0.214-1.072-0.232-1.635l0,0c-0.003-0.09-0.003-0.169-0.003-0.229l0,0
				c0.033-4.983,4.405-9.098,10.455-11.117l0,0c0.051-0.03,0.109-0.063,0.166-0.078l0,0c0-0.014,0.672-0.227,1.34-0.717l0,0
				c0.687-0.492,1.238-1.15,1.238-1.99l0,0c-0.009-0.218-0.037-0.446-0.09-0.653l0,0c-0.319-0.767-0.524-1.594-0.548-2.422l0,0
				c-0.003-0.101-0.003-0.171-0.003-0.22l0,0c0.03-4.038,3.46-7.336,8.206-9.024l0,0c0.073-0.058,0.157-0.099,0.253-0.129l0,0
				c-0.003-0.017,0.521-0.182,1.039-0.556l0,0c0.53-0.379,0.93-0.866,0.921-1.467l0,0c0-0.194-0.033-0.418-0.142-0.69l0,0
				c-0.027-0.072-0.042-0.148-0.051-0.218l0,0c-0.181-0.526-0.292-1.077-0.301-1.63l0,0c-0.012-0.09-0.006-0.149-0.006-0.188l0,0
				c0.03-3.364,2.875-6.073,6.751-7.446l0,0c0.048-0.031,0.102-0.049,0.156-0.07l0,0c-0.002-0.009,0.396-0.129,0.787-0.415l0,0
				c0.406-0.292,0.68-0.642,0.674-1.048l0,0c0-0.133-0.029-0.295-0.105-0.496l0,0c-0.029-0.082-0.042-0.15-0.051-0.227l0,0
				c-0.157-0.457-0.26-0.928-0.271-1.396l0,0c-0.003-0.09-0.003-0.149-0.003-0.168l0,0c0.036-2.879,2.49-5.135,5.769-6.242l0,0
				c0.056-0.043,0.119-0.075,0.188-0.09l0,0c-0.003-0.016,0.298-0.105,0.59-0.316l0,0c0.307-0.227,0.479-0.46,0.477-0.715l0,0
				c-0.006-0.092-0.021-0.194-0.078-0.34l0,0c-0.039-0.111-0.057-0.226-0.049-0.318l0,0c-0.065-0.268-0.104-0.533-0.113-0.768l0,0
				c-0.016-0.103-0.006-0.172-0.006-0.187l0,0c0.035-2.587,2.304-4.553,5.158-5.405l0,0c0.265-0.078,0.768-0.467,0.691-0.65l0,0
				c0-0.051-0.012-0.111-0.048-0.217l0,0c-0.033-0.075-0.052-0.159-0.056-0.241l0,0c-0.104-0.301-0.18-0.621-0.188-0.928l0,0
				c-0.009-0.099-0.006-0.16-0.006-0.16l0,0c0.03-2.096,1.771-3.658,4.005-4.426l0,0c0.051-0.027,0.1-0.051,0.15-0.069l0,0
				c-0.004-0.012,0.152-0.052,0.304-0.163l0,0c0.16-0.124,0.19-0.196,0.185-0.226l0,0c-0.004-0.024-0.004-0.061-0.031-0.121l0,0
				c-0.021-0.054-0.032-0.12-0.047-0.175l0,0c-0.09-0.262-0.166-0.544-0.172-0.831l0,0c-0.006-0.09-0.004-0.141-0.004-0.141l0,0
				c0.027-1.774,1.463-3.054,3.268-3.705l0,0c0.051-0.029,0.111-0.05,0.169-0.072l0,0c0-0.009,0.045-0.009,0.123-0.06l0,0
				c0.069-0.04,0.136-0.091,0.157-0.121l0,0c0,0-0.004-0.009-0.006-0.024l0,0c-0.021-0.061-0.033-0.112-0.045-0.172l0,0
				c-0.082-0.223-0.147-0.455-0.15-0.687l0,0c-0.006-0.094-0.006-0.145-0.006-0.145l0,0c0.097-2.177,2.379-3.445,4.845-3.529l0,0
				c0.101,0,0.175,0,0.229,0l0,0c2.441,0.009,5.239,1.132,5.389,3.283l0,0l-0.776,0.027l0.776-0.027l-0.002,0.072h0.002
				c-0.014,1.307-0.547,2.352-1.733,2.927l0,0c-0.021,0.015-0.045,0.021-0.063,0.03l0,0c0.004,0.009-0.015,0.009-0.053,0.039l0,0
				c-0.01,0.006-0.016,0.012-0.027,0.027l0,0c0.012,0.009,0.021,0.018,0.033,0.024l0,0c0.045,0.054,0.08,0.114,0.11,0.172l0,0
				c0.343,0.485,0.572,1.063,0.587,1.773l0,0h0.006c-0.021,1.505-1.093,2.677-2.511,3.378l0,0c-0.045,0.042-0.097,0.082-0.153,0.112
				l0,0c0.002,0.009-0.061,0.03-0.127,0.09l0,0c-0.076,0.076-0.065,0.082-0.065,0.082l0,0c0.009,0-0.021,0.045,0.159,0.238l0,0
				c0.091,0.096,0.151,0.208,0.182,0.331l0,0c0.328,0.539,0.539,1.15,0.555,1.87l0,0v0.012c-0.016,1.768-1.293,3.174-3.021,4.02l0,0
				c-0.058,0.054-0.13,0.105-0.205,0.142l0,0c0,0-0.124,0.054-0.253,0.181l0,0c-0.139,0.12-0.184,0.234-0.182,0.258l0,0
				c0.01,0.027,0.01,0.142,0.232,0.392l0,0c0.061,0.06,0.111,0.142,0.145,0.217l0,0c0.435,0.666,0.705,1.428,0.727,2.286l0,0
				c0,0,0,0.021,0,0.069l0,0c-0.021,2.168-1.668,3.902-3.896,4.915l0,0c-0.048,0.038-0.108,0.068-0.168,0.09l0,0
				c0.006,0.01-0.193,0.081-0.382,0.234l0,0c-0.208,0.16-0.29,0.326-0.282,0.406l0,0c0.006,0.061,0.023,0.234,0.328,0.572l0,0
				c0.102,0.1,0.166,0.233,0.192,0.376l0,0c0.368,0.665,0.591,1.412,0.614,2.226l0,0c0,0.016,0,0.055,0,0.1l0,0
				c-0.018,2.503-1.905,4.547-4.531,5.758l0,0c-0.182,0.14-0.645,0.601-0.607,1.007l0,0c0,0.133,0.026,0.285,0.127,0.493l0,0
				c0.908,1.091,1.478,2.386,1.514,3.818l0,0c0,0.029,0,0.072,0,0.132l0,0c-0.01,2.876-2.133,5.288-5.152,6.772l0,0
				c0,0.006-0.003,0.01-0.003,0.01l0,0c0.003,0.012-0.256,0.191-0.526,0.535l0,0c-0.283,0.36-0.516,0.828-0.51,1.272l0,0
				c0.003,0.3,0.075,0.604,0.34,0.988l0,0c0.03,0.051,0.057,0.081,0.061,0.09l0,0c0.037,0.043,0.061,0.082,0.066,0.088l0,0
				l-0.007,0.01c0.033,0.035,0.063,0.074,0.084,0.13l0,0c0.729,1.123,1.179,2.391,1.21,3.755l0,0c0,0.045,0,0.096,0,0.162l0,0
				c-0.015,3.396-2.484,6.29-6.08,8.111l0,0c-0.033,0.039-0.08,0.078-0.125,0.115l0,0c0.006,0.009-0.429,0.288-0.861,0.782l0,0
				c-0.439,0.507-0.822,1.162-0.811,1.794l0,0c0.003,0.41,0.126,0.847,0.561,1.398l0,0c0.058,0.079,0.103,0.161,0.133,0.245l0,0
				c0.846,1.339,1.357,2.834,1.4,4.441l0,0c0,0.046,0,0.115,0.006,0.196l0,0c-0.019,4.152-3.09,7.715-7.58,9.941l0,0
				c-0.039,0.03-0.072,0.05-0.108,0.069l0,0c0,0.01-0.545,0.317-1.097,0.874l0,0c-0.557,0.569-1.039,1.322-1.029,2.11l0,0
				c0.003,0.507,0.168,1.082,0.744,1.805l0,0c0.096,0.127,0.154,0.265,0.166,0.421l0,0c0.895,1.533,1.439,3.207,1.484,4.999l0,0
				c0,0.075,0.006,0.154,0.006,0.256l0,0c-0.016,4.818-3.467,9.028-8.615,11.769l0,0c-0.042,0.032-0.09,0.077-0.142,0.107l0,0
				c0.006,0.013-0.735,0.452-1.482,1.224l0,0c-0.758,0.773-1.436,1.815-1.424,2.924l0,0c0,0.684,0.229,1.461,0.942,2.352l0,0
				c0.09,0.112,0.145,0.235,0.166,0.368l0,0c1.331,2.045,2.117,4.32,2.177,6.733l0,0c0,0.099,0.003,0.197,0.003,0.315l0,0
				c-0.018,6.166-5.592,11.551-12.502,14.908l0,0c-0.973,0.873-2.656,2.803-2.632,4.95l0,0c0,0.762,0.189,1.562,0.629,2.353l0,0
				c2.129,2.797,3.426,5.964,3.514,9.373l0,0c0.006,0.121,0.006,0.25,0.012,0.386l0,0c-0.1,12.416-15.195,22.263-33.732,22.777l0,0
				c-0.476,0.012-0.952,0.012-1.43,0.012l0,0C233.549,394.957,218.586,385.872,218.168,373.628L218.168,373.628z M236.945,354.748
				c-10.4,3.73-17.251,10.798-17.224,18.465l0,0c0,0.127,0,0.237,0.012,0.37l0,0c0.193,10.837,14.231,19.842,31.898,19.826l0,0
				c0.461,0,0.927-0.009,1.4-0.015l0,0c18.107-0.475,32.293-10.233,32.196-21.216l0,0c0-0.113,0-0.24-0.006-0.347l0,0
				c-0.084-3.032-1.22-5.881-3.255-8.551l0,0c-0.626-1.088-0.895-2.188-0.895-3.214l0,0c0.03-3.028,2.174-5.236,3.249-6.197l0,0
				l0.178-0.117c6.655-3.207,11.729-8.206,11.714-13.544l0,0c0-0.097,0-0.196-0.003-0.287l0,0c-0.058-2.207-0.807-4.293-2.135-6.212
				l0,0c-0.054-0.097-0.096-0.187-0.117-0.276l0,0c-0.723-1.01-1.042-2.035-1.039-2.993l0,0c0.078-2.896,2.562-4.736,3.399-5.293
				l0,0c0.066-0.091,0.151-0.166,0.256-0.228l0,0c4.986-2.584,8.023-6.432,8.01-10.503l0,0c0-0.087,0-0.149-0.003-0.226l0,0
				c-0.045-1.605-0.566-3.136-1.471-4.574l0,0c-0.051-0.078-0.086-0.166-0.103-0.257l0,0c-0.569-0.815-0.827-1.646-0.825-2.424l0,0
				c0.075-2.343,1.99-3.726,2.672-4.174l0,0c0.068-0.078,0.153-0.145,0.25-0.194l0,0c4.293-2.069,6.904-5.279,6.893-8.628l0,0
				c0-0.055-0.003-0.126-0.003-0.182l0,0c-0.036-1.327-0.479-2.602-1.271-3.791l0,0c-0.027-0.045-0.049-0.084-0.07-0.12l0,0
				c-0.521-0.72-0.762-1.479-0.756-2.189l0,0c0.055-1.846,1.364-3.082,2.008-3.594l0,0c0.076-0.144,0.193-0.267,0.347-0.338l0,0
				c3.469-1.668,5.541-4.23,5.526-6.872l0,0c0-0.059-0.004-0.104-0.004-0.143l0,0c-0.026-1.062-0.375-2.059-1.008-3.002l0,0
				c-0.019-0.029-0.033-0.051-0.046-0.082l0,0c0,0-0.003,0-0.006,0l0,0c-0.026-0.038-0.045-0.074-0.063-0.099l0,0
				c-0.441-0.623-0.637-1.289-0.631-1.897l0,0c0.039-1.502,1.008-2.489,1.444-2.872l0,0c0.076-0.113,0.181-0.204,0.312-0.271l0,0
				c2.803-1.331,4.451-3.382,4.438-5.447l0,0c0-0.042,0-0.087,0-0.11l0,0c-0.033-1.039-0.441-1.999-1.205-2.903l0,0l-0.09-0.142
				c-0.238-0.425-0.346-0.87-0.346-1.288l0,0c0.039-1.451,1.117-2.165,1.369-2.353l0,0l0.108-0.049
				c2.333-1.068,3.675-2.736,3.659-4.363l0,0c0-0.018,0-0.061,0-0.084l0,0c-0.016-0.587-0.202-1.145-0.536-1.695l0,0
				c-0.019-0.029-0.037-0.061-0.051-0.091l0,0c-0.351-0.443-0.545-0.927-0.54-1.402l0,0c0.094-1.229,0.961-1.743,1.393-1.967l0,0
				c0.057-0.048,0.119-0.084,0.187-0.113l0,0c2.021-0.873,3.165-2.256,3.144-3.565l0,0c0-0.015-0.003-0.061,0-0.069l0,0
				c-0.015-0.527-0.193-1.039-0.533-1.536l0,0c-0.01-0.003-0.019-0.015-0.023-0.03l0,0c-0.344-0.41-0.539-0.867-0.539-1.328l0,0
				c0.066-0.912,0.584-1.388,0.949-1.635l0,0c0.074-0.093,0.177-0.181,0.301-0.229l0,0c1.578-0.698,2.428-1.771,2.406-2.737l0,0
				c0,0-0.004-0.03,0-0.051l0,0c-0.012-0.401-0.154-0.792-0.438-1.178l0,0c-0.035-0.054-0.068-0.114-0.093-0.166l0,0
				c-0.235-0.332-0.367-0.687-0.367-1.057l0,0c0.052-0.765,0.46-1.168,0.747-1.385l0,0c0.072-0.076,0.172-0.151,0.283-0.202l0,0
				c1.227-0.545,1.85-1.383,1.828-2.075l0,0c0,0-0.004-0.03,0-0.03l0,0c-0.006-0.301-0.124-0.597-0.355-0.903l0,0
				c-0.006-0.019-0.018-0.033-0.027-0.048l0,0c-0.243-0.295-0.396-0.647-0.395-1.015l0,0c0.076-0.852,0.581-1.195,0.846-1.352l0,0
				c0.049-0.03,0.1-0.066,0.153-0.09l0,0c0.916-0.437,0.935-1.087,0.923-1.554l0,0c0,0,0-0.012,0-0.021l0,0l0,0
				c-0.01-0.392-0.414-1.042-1.205-1.319l-0.154-0.075c-0.678-0.346-1.484-0.379-2.473-0.379l0,0c-0.054,0-0.099,0-0.15,0.009l0,0
				c-1.012,0.015-1.908,0.31-2.508,0.71l0,0c-0.602,0.403-0.853,0.864-0.853,1.25l0,0h-0.343c0.006,0,0.012,0,0.015,0.006l0,0
				l0.328,0.015c0.003,0.1,0.037,0.235,0.118,0.406l0,0c0.054,0.115,0.078,0.244,0.074,0.365l0,0c0.016,0.081,0.019,0.16,0.019,0.25
				l0,0c-0.093,0.994-0.72,1.37-1.084,1.529l0,0c-0.069,0.061-0.149,0.106-0.235,0.127l0,0c-1.574,0.512-2.438,1.493-2.402,2.286
				l0,0h-0.256l0.256,0.039c0.006,0.148,0.051,0.323,0.15,0.539l0,0c0.047,0.114,0.065,0.223,0.065,0.328l0,0
				c0.022,0.121,0.039,0.241,0.039,0.362l0,0c-0.103,1.165-0.906,1.596-1.317,1.771l0,0c-0.066,0.051-0.137,0.082-0.218,0.115l0,0
				c-1.991,0.632-3.144,1.891-3.106,2.999l0,0h-0.19l0.19,0.045c0.002,0.22,0.074,0.461,0.199,0.738l0,0
				c0.053,0.12,0.074,0.255,0.059,0.385l0,0c0.025,0.135,0.037,0.255,0.037,0.376l0,0c-0.075,1.458-1.319,1.937-1.729,2.12l0,0
				c-2.583,0.777-4.151,2.418-4.125,3.92l0,0l0,0v0.015h-0.073l0.079,0.066c0.007,0.235,0.054,0.476,0.136,0.723l0,0
				c0.029,0.09,0.041,0.177,0.039,0.273l0,0c0.045,0.182,0.066,0.371,0.066,0.551l0,0c-0.098,1.517-1.262,2.142-1.828,2.377l0,0
				c-0.079,0.065-0.163,0.111-0.259,0.146l0,0c-3.067,0.961-4.962,2.937-4.933,4.84l0,0c0,0.039,0,0.039,0.008,0.078l0,0
				c0.007,0.4,0.098,0.773,0.257,1.174l0,0c0.042,0.092,0.058,0.185,0.06,0.28l0,0c0.073,0.257,0.105,0.506,0.105,0.753l0,0
				c-0.108,1.873-1.699,2.611-2.305,2.857l0,0c-0.057,0.039-0.123,0.075-0.192,0.09l0,0c-3.64,1.247-5.901,3.645-5.872,6.032l0,0
				c0,0.048,0,0.075,0.006,0.107l0,0c0.009,0.468,0.115,0.929,0.283,1.386l0,0c0.033,0.069,0.048,0.149,0.054,0.227l0,0
				c0.105,0.346,0.163,0.68,0.163,1.008l0,0c-0.108,2.069-1.833,2.996-2.632,3.334l0,0c-0.084,0.078-0.19,0.154-0.304,0.185l0,0
				c-4.595,1.528-7.522,4.553-7.489,7.657l0,0c0,0.062,0,0.091,0.006,0.14l0,0c0.018,0.651,0.169,1.285,0.452,1.975l0,0
				c0.12,0.406,0.18,0.805,0.18,1.181l0,0c-0.108,2.643-2.547,3.749-3.373,4.074l0,0c-0.069,0.051-0.148,0.098-0.232,0.126l0,0
				c-5.83,1.879-9.618,5.707-9.587,9.703l0,0c0,0.061,0,0.107,0.006,0.168l0,0c0.009,0.539,0.111,1.069,0.259,1.62l0,0
				c0.021,0.066,0.03,0.13,0.03,0.202l0,0c0.163,0.506,0.238,0.996,0.238,1.457l0,0c-0.114,3.08-2.997,4.408-4.104,4.833l0,0
				c-0.085,0.088-0.19,0.157-0.305,0.193l0,0c-7.206,2.346-11.927,7.081-11.903,12.126l0,0c0,0.081,0.006,0.146,0.006,0.226l0,0
				c0.027,0.994,0.25,1.96,0.636,2.96l0,0c0.189,0.597,0.277,1.165,0.274,1.704l0,0c-0.121,3.743-3.734,5.402-5.044,5.896l0,0
				c-0.082,0.095-0.187,0.166-0.307,0.204l0,0c-8.615,2.974-14.286,8.733-14.25,14.961l0,0c0,0.104,0,0.188,0.003,0.276l0,0
				c0.03,1.217,0.292,2.391,0.741,3.581l0,0c0.223,0.72,0.322,1.402,0.322,2.051l0,0c-0.121,4.564-4.623,6.809-6.272,7.504l0,0
				C237.232,354.591,237.099,354.696,236.945,354.748L236.945,354.748z"/>
			<path fill="#4D4D4F" d="M215.605,373.755L215.605,373.755c-0.015-0.221-0.015-0.408-0.015-0.558l0,0
				c0.117-9.979,8.203-17.813,18.958-21.974l0,0c0.199-0.139,0.428-0.271,0.699-0.373l0,0c0.006-0.003,0.009-0.007,0.009-0.007l0,0
				l0.088-0.032c0.042-0.021,0.093-0.03,0.156-0.062l0,0c0.126-0.052,0.313-0.139,0.545-0.241l0,0
				c0.452-0.211,1.063-0.535,1.617-0.945l0,0c1.208-0.881,1.828-1.814,1.798-2.583l0,0l-0.012-0.021
				c-0.003-0.042-0.003-0.104,0.003-0.185l0,0c-0.012-0.188-0.039-0.367-0.054-0.442l0,0c-0.578-1.512-0.958-3.161-0.997-4.79l0,0
				c-0.015-0.221-0.015-0.396-0.015-0.503l0,0c0.126-8.635,7.155-15.198,16.234-18.559l0,0c0.138-0.088,0.273-0.154,0.392-0.211l0,0
				c0.044-0.021,0.075-0.033,0.105-0.049l0,0c0.082-0.029,0.115-0.043,0.135-0.052l0,0l0.084-0.029
				c0.039-0.013,0.072-0.023,0.115-0.042l0,0c0.093-0.033,0.22-0.089,0.376-0.16l0,0c0.316-0.136,0.737-0.347,1.126-0.616l0,0
				c0.783-0.562,1.026-0.991,1.039-1.27l0,0c-0.006-0.062-0.009-0.139,0-0.24l0,0c-0.003-0.044-0.006-0.074,0-0.065l0,0
				c-0.515-1.325-0.861-2.772-0.903-4.255l0,0c-0.012-0.208,0-0.313,0-0.409l0,0c0.123-7.52,6.275-13.065,13.996-15.775l0,0
				c0.075-0.042,0.15-0.086,0.223-0.118l0,0c0.006-0.002,0.012-0.01,0.018-0.013l0,0c0.126-0.062,0.166-0.074,0.211-0.094l0,0
				c0.072-0.033,0.093-0.045,0.126-0.054l0,0c0.039-0.009,0.072-0.021,0.103-0.033l0,0c0.075-0.03,0.181-0.071,0.295-0.123l0,0
				c0.232-0.097,0.545-0.253,0.765-0.409l0,0c0.416-0.299,0.533-0.419,0.563-0.471l0,0c-0.012-0.061-0.021-0.126-0.027-0.201l0,0
				c-0.006-0.026-0.015-0.058-0.03-0.097l0,0c-0.138-0.37-0.21-0.701-0.232-1.02l0,0c-0.126-0.579-0.214-1.2-0.241-1.879l0,0
				c0-0.135,0-0.239,0-0.314l0,0c0.136-6.564,5.504-11.241,12.006-13.464l0,0c0.084-0.041,0.121-0.055,0.153-0.068l0,0
				c0.073-0.033,0.084-0.043,0.115-0.051l0,0l0.075-0.025c0.051-0.021,0.103-0.041,0.178-0.08l0,0
				c0.145-0.062,0.337-0.17,0.503-0.299l0,0c0.03-0.018,0.06-0.039,0.084-0.061l0,0c-0.313-0.876-0.521-1.83-0.558-2.847l0,0
				c0-0.135,0-0.239,0-0.304l0,0c0.115-5.541,4.484-9.419,9.636-11.322l0,0c0.054-0.032,0.115-0.062,0.175-0.09l0,0
				c0.09-0.052,0.132-0.068,0.166-0.088l0,0c0.084-0.03,0.105-0.039,0.135-0.062l0,0c0.048-0.016,0.091-0.029,0.133-0.046l0,0
				c-0.178-0.596-0.298-1.237-0.316-1.924l0,0c-0.009-0.065-0.015-0.157-0.015-0.286l0,0c0,0,0.009-0.072,0.009-0.094l0,0
				c0.115-4.894,3.954-8.212,8.103-9.708l0,0c-0.09-0.41-0.149-0.844-0.162-1.295l0,0c0-0.117-0.012-0.211,0-0.272l0,0
				c0.121-4.305,3.412-7.138,6.797-8.378l0,0c-0.004-0.042-0.006-0.084-0.01-0.126l0,0c-0.018-0.138-0.026-0.259-0.026-0.379l0,0
				c0,0,0.009-0.055,0.009-0.094l0,0c0.117-3.652,2.674-6.068,5.559-7.312l0,0c-0.006-0.108-0.002-0.184-0.002-0.208l0,0
				c0-0.027,0-0.054,0-0.084l0,0l0,0c0.09-3.138,2.207-5.222,4.39-6.27l0,0c0.003-0.045,0.006-0.09,0.012-0.138l0,0
				c0.181-2.536,1.804-4.243,3.538-5.201l0,0c0.555-3.936,4.292-5.507,7.369-5.58l0,0c0.094-0.009,0.168-0.009,0.24,0l0,0
				c2.808,0.09,6.793,0.958,7.806,5.011l0,0c0.069,0.202,0.11,0.413,0.126,0.629l0,0c0.003,0.009,0.006,0.018,0.006,0.03l0,0
				c0.006,0.103,0.006,0.202,0.003,0.301l0,0c0.03,1.241-0.418,2.623-1.289,3.71l0,0c0.073,0.31,0.121,0.635,0.136,0.967l0,0
				c0.013,0.096,0.016,0.196,0.016,0.292l0,0c-0.042,1.942-0.982,3.445-2.188,4.496l0,0c0.135,0.491,0.215,1.018,0.227,1.575l0,0
				v0.033c-0.042,2.376-1.328,4.18-2.928,5.375l0,0c0.217,0.644,0.353,1.349,0.365,2.099l0,0v0.096
				c-0.063,3-1.898,5.191-4.009,6.494l0,0c0.241,0.699,0.388,1.468,0.416,2.302l0,0v0.115c-0.054,3.255-2.03,5.698-4.496,7.251l0,0
				c0.591,1.122,0.964,2.402,0.987,3.806l0,0v0.136c-0.036,3.981-2.686,6.96-5.911,8.728l0,0c0.874,1.413,1.442,3.074,1.481,4.924
				l0,0v0.169c-0.051,4.634-3.237,8.166-7.199,10.246l0,0c-0.01,0.01-0.018,0.016-0.024,0.021l0,0
				c-0.048,0.03-0.06,0.043-0.082,0.056l0,0c-0.003,0-0.003,0-0.006,0.003l0,0c-0.03,0.029-0.062,0.051-0.103,0.081l0,0
				c-0.084,0.071-0.187,0.169-0.282,0.282l0,0c-0.021,0.021-0.042,0.05-0.062,0.069l0,0c0.104,0.146,0.209,0.311,0.299,0.505l0,0
				c0.99,1.627,1.623,3.521,1.674,5.619l0,0c0,0,0,0.033,0.009,0.202l0,0c-0.063,5.521-4.021,9.773-8.748,12.084l0,0l-0.103,0.072
				l-0.004-0.003c-0.012,0.006-0.021,0.009-0.029,0.016l0,0l-0.061,0.051c-0.045,0.021-0.097,0.055-0.16,0.097l0,0
				c-0.113,0.092-0.283,0.221-0.406,0.355l0,0c-0.116,0.114-0.211,0.234-0.269,0.318l0,0c0.033,0.049,0.085,0.124,0.163,0.227l0,0
				c0.229,0.283,0.418,0.638,0.545,1.021l0,0c0.971,1.762,1.596,3.767,1.646,5.972l0,0c0,0,0.01,0.075,0.01,0.265l0,0
				c-0.048,6.077-4.246,10.939-9.792,13.934l0,0c-0.003,0-0.003,0-0.006,0l0,0c-0.006,0.004-0.006,0.007-0.012,0.01l0,0
				c-0.009,0.006-0.015,0.012-0.024,0.018l0,0c-0.039,0.033-0.06,0.043-0.078,0.053l0,0c-0.009,0.006-0.015,0.012-0.024,0.015l0,0
				c-0.033,0.024-0.051,0.036-0.079,0.055l0,0c-0.063,0.039-0.135,0.093-0.231,0.168l0,0c-0.199,0.146-0.461,0.364-0.726,0.647l0,0
				c-0.458,0.435-0.668,0.922-0.69,1.057l0,0c0,0.017,0,0.024,0,0.036l0,0l0,0l0,0v0.01h-0.006l0.006,0.023
				c0.018,0.082-0.042,0.188,0.355,0.726l0,0c0.223,0.27,0.397,0.572,0.524,0.88l0,0c1.442,2.312,2.337,4.963,2.406,7.846l0,0
				c0,0.051,0,0.155,0,0.315l0,0c-0.145,7.735-6.465,13.454-13.623,17.059l0,0c-0.662,0.656-1.466,1.874-1.52,2.578l0,0
				c0.003,0.032,0.003,0.062,0.003,0.091l0,0h-0.006h-0.006l0,0h0.006h0.006v0.071l0.012,0.055c0,0.347,0.072,0.691,0.103,0.798l0,0
				c2.385,3.129,3.938,6.836,4.035,10.774l0,0c0.009,0.229,0.009,0.376,0.009,0.564l0,0c-0.397,14.72-16.999,24.737-36.244,25.325
				l0,0c-0.506,0.009-1,0.009-1.481,0.009l0,0C232.892,397.486,216.412,388.263,215.605,373.755L215.605,373.755z M222.281,373.21
				c0,0.137,0.012,0.156,0.012,0.324l0,0c0.03,8.432,12.325,17.379,29.29,17.304l0,0h0.024c0.006,0,0.012,0,0.021,0l0,0l0,0
				c0.418,0,0.882-0.013,1.333-0.013l0,0c17.333-0.367,29.881-9.994,29.691-18.528l0,0c0.012-0.009,0.003-0.023,0.003-0.121l0,0
				h-0.003c0-0.112,0-0.207,0-0.268l0,0c-0.076-2.427-0.955-4.728-2.918-7.35l0,0c-0.84-1.465-1.229-3.016-1.229-4.519l0,0
				c0.094-4.306,2.876-6.962,4.104-8.085l0,0l0.316-0.241l0.452-0.272c6.278-2.96,10.416-7.634,10.259-11.214l0,0v-0.01
				c0-0.032,0-0.085,0.003-0.15l0,0c-0.003-0.033-0.003-0.063-0.003-0.081l0,0c-0.045-1.659-0.59-3.234-1.786-4.986l0,0
				c-0.057-0.105-0.133-0.233-0.205-0.399l0,0c-0.853-1.292-1.307-2.734-1.298-4.156l0,0c0,0-0.009-0.042,0.009-0.216l0,0
				c0.271-3.997,3.032-6.149,4.249-7.015l0,0c0.219-0.217,0.479-0.403,0.783-0.571l0,0c4.417-2.299,6.604-5.421,6.625-8.085l0,0l0,0
				c0-0.03-0.01-0.108,0-0.313l0,0c0-0.012-0.004-0.021-0.004-0.033l0,0c-0.006-0.025-0.009-0.065-0.006-0.117l0,0
				c-0.061-1.031-0.402-2.042-1.072-3.115l0,0c-0.09-0.143-0.17-0.3-0.246-0.464l0,0c-0.692-1.104-1.079-2.334-1.079-3.568l0,0
				c0-0.007,0-0.027,0.003-0.097l0,0h-0.003c0.196-3.551,2.62-5.389,3.624-6.089l0,0c0.229-0.196,0.479-0.361,0.758-0.504l0,0
				c3.759-1.817,5.473-4.362,5.438-6.27l0,0h-0.012c0.009-0.02,0.012-0.039,0.012-0.069l0,0v-0.087
				c-0.03-0.775-0.262-1.545-0.897-2.525l0,0c-0.764-1.081-1.204-2.355-1.204-3.626l0,0c0.065-0.038,0.04-0.049,0.012-0.094l0,0
				h-0.012c0.003-0.01,0.003-0.012,0.003-0.021l0,0c-0.033-0.062-0.059-0.18,0.033-0.439l0,0c0.272-2.496,1.736-4.031,2.631-4.809
				l0,0c0.285-0.355,0.662-0.682,1.145-0.906l0,0c2.891-1.389,4.077-3.262,4.074-4.463l0,0l0,0l-0.006-0.078l-0.003-0.006
				c0-0.007,0-0.016,0-0.027l0,0v-0.055c-0.013-0.521-0.163-0.988-0.626-1.73l0,0c-0.004-0.01-0.012-0.02-0.016-0.024l0,0v-0.002
				c-0.012-0.017-0.021-0.033-0.029-0.052l0,0l-0.03-0.047c-0.687-0.995-1.054-2.141-1.054-3.27l0,0
				c0-0.018-0.012-0.066,0.012-0.289l0,0c0.156-2.304,1.436-3.723,2.131-4.379l0,0c0.309-0.349,0.678-0.623,1.078-0.815l0,0
				c2.135-1.003,2.928-2.312,2.977-2.98l0,0h-0.004c0,0,0,0,0-0.135l0,0h0.004c0-0.004,0-0.007,0-0.014l0,0h-0.004v-0.006
				c0-0.019,0-0.039,0-0.061l0,0c-0.027-0.382-0.144-0.743-0.798-1.561l0,0l-0.168-0.282c-0.448-0.799-0.671-1.681-0.671-2.604l0,0
				c0.075-2.812,2.229-4.219,2.415-4.357l0,0l0.442-0.249l0.115-0.065c1.808-0.809,2.217-1.877,2.162-2.006l0,0v-0.011
				c0-0.003,0.004-0.006,0.004-0.008l0,0h-0.004v-0.013c0-0.075-0.006-0.151-0.15-0.419l0,0c-0.518-0.707-0.928-1.603-0.965-2.646
				l0,0h-0.006c0,0,0,0,0-0.133l0,0c-0.01-0.088-0.024-0.223,0.014-0.439l0,0c0.253-2.396,2.168-3.622,2.603-3.772l0,0l0.187-0.116
				l0.326-0.17c0.717-0.304,1.187-0.68,1.406-0.933l0,0c0.211-0.22,0.18-0.241,0.18-0.241l0,0v-0.021
				c0.004-0.015,0.006-0.03,0.01-0.051l0,0c-0.605-0.744-1.102-1.737-1.09-3.123l0,0c0.094-1.686,1.129-2.885,1.843-3.411l0,0
				c0.259-0.247,0.569-0.461,0.927-0.609l0,0c0.329-0.142,0.572-0.304,0.723-0.43l0,0c-0.422-0.639-0.74-1.479-0.74-2.572l0,0
				c0.078-1.608,1.093-2.786,1.705-3.228l0,0c0.207-0.181,0.455-0.349,0.779-0.509l0,0c-0.24-0.497-0.404-1.078-0.406-1.723l0,0l0,0
				v-0.021h0.006c0.015-0.051,0.006-0.129,0.006-0.241l0,0h-0.004c0-0.009,0.004-0.019,0.004-0.027l0,0
				c0-0.099,0.009-0.217,0.039-0.355l0,0c0.097-0.626,0.343-1.168,0.645-1.614l0,0l-0.15,0.012c-0.229,0-0.448,0.036-0.635,0.084
				l0,0c0.01,0.168,0.012,0.353,0.006,0.596l0,0c-0.125,1.938-1.607,3.189-2.412,3.556l0,0c-0.231,0.145-0.463,0.25-0.674,0.301l0,0
				c-0.185,0.055-0.338,0.117-0.457,0.181l0,0c0.011,0.084,0.025,0.163,0.033,0.244l0,0c0.029,0.202,0.053,0.473,0.045,0.907l0,0
				c-0.16,2.327-2.027,3.592-2.777,3.872l0,0c-0.195,0.1-0.372,0.168-0.538,0.232l0,0c-0.626,0.187-1.015,0.449-1.214,0.623l0,0
				c0.097,0.307,0.139,0.611,0.15,0.897l0,0c0.021,0.193,0.039,0.422,0.033,0.717l0,0c-0.169,3.141-3.016,4.255-3.234,4.327l0,0
				l-0.312,0.114c-0.945,0.283-1.632,0.714-1.988,1.06l0,0c-0.214,0.202-0.289,0.289-0.31,0.328l0,0
				c0.003,0.021,0.003,0.042,0.006,0.06l0,0l0,0c0.09,0.265,0.135,0.521,0.153,0.75l0,0c0.051,0.294,0.078,0.623,0.078,1.056l0,0
				c-0.187,2.74-2.229,4.08-3.186,4.494l0,0c-0.223,0.129-0.458,0.229-0.699,0.314l0,0c-2.337,0.692-3.078,2.059-3.125,2.307l0,0
				l0.006,0.108c0,0.043-0.009,0.063,0.033,0.188l0,0c0.126,0.291,0.202,0.573,0.244,0.836l0,0c0.096,0.419,0.141,0.853,0.141,1.392
				l0,0c-0.259,3.505-3.168,4.81-3.775,5.028l0,0l-0.452,0.189c-2.833,0.945-4.074,2.632-4.144,3.384l0,0
				c0,0.033,0.004,0.064,0.004,0.093l0,0h-0.004h-0.006l0,0l0,0h0.006h0.004v0.008l0.012,0.169c0,0.127,0.029,0.305,0.208,0.861l0,0
				l0.012,0.042c0.168,0.565,0.274,1.166,0.274,1.911l0,0c-0.229,3.322-2.65,4.857-3.867,5.422l0,0
				c-0.223,0.158-0.49,0.307-0.828,0.394l0,0c-3.86,1.262-5.709,3.635-5.739,5.002l0,0c0.003,0.037,0.005,0.072,0.005,0.104l0,0
				h-0.002h-0.003l0,0h0.003h0.002v0.029l0.009,0.156c0.015,0.299,0.066,0.591,0.34,1.305l0,0c0.187,0.629,0.292,1.271,0.292,2.026
				l0,0c-0.271,4.14-3.535,5.748-4.761,6.263l0,0c-0.171,0.098-0.373,0.188-0.626,0.277l0,0c-5.113,1.627-7.796,4.818-7.814,7.041
				l0,0c0,0.029,0.003,0.062,0.003,0.09l0,0l0,0h-0.003l0,0l0,0h0.003l0,0l0,0l0.012,0.051v0.202
				c0.009,0.237,0.052,0.548,0.223,1.262l0,0c0.205,0.688,0.311,1.389,0.301,2.159l0,0c-0.28,4.499-3.812,6.329-5.366,6.98l0,0
				c-0.235,0.158-0.503,0.294-0.808,0.391l0,0c-6.534,2.108-10.136,6.213-10.145,9.475l0,0c0,0.022,0.003,0.048,0.003,0.071l0,0
				h-0.003h-0.015l0,0h0.015h0.003v0.091l0.009,0.055c0,0,0,0.023,0,0.146l0,0c0.021,0.653,0.168,1.312,0.523,2.271l0,0
				c0.253,0.807,0.389,1.635,0.389,2.444l0,0h-0.03l0.03,0.104c-0.307,5.16-4.432,7.271-6.264,8.034l0,0
				c-0.262,0.183-0.539,0.314-0.813,0.408l0,0c-8.019,2.749-12.599,7.927-12.526,12.415l0,0c0.003,0,0.003,0.004,0.003,0.007l0,0
				v0.055h-0.012l0.012,0.061c0,0.104,0,0.159,0,0.21l0,0c0.03,0.896,0.208,1.766,0.629,2.889l0,0
				c0.292,0.958,0.439,1.899,0.439,2.876l0,0c-0.319,5.979-5.209,8.588-7.366,9.592l0,0c-0.277,0.225-0.605,0.418-0.984,0.544l0,0
				l0.003,0.009c-9.795,3.5-15.571,9.946-15.529,15.902l0,0c0,0.007,0,0.01,0,0.016l0,0v0.081h-0.006L222.281,373.21L222.281,373.21
				z M299.947,326.294c0.012-0.117,0.009-0.239-0.009-0.363l0,0c-0.006,0.004-0.012,0.007-0.015,0.01l0,0
				C299.94,326.057,299.947,326.174,299.947,326.294L299.947,326.294z M306.255,306.736l0.045-0.003L306.255,306.736
				L306.255,306.736z M315.699,285.073c0.009-0.123,0-0.256-0.018-0.385l0,0c-0.007,0.002-0.01,0.006-0.013,0.009l0,0
				C315.688,284.817,315.699,284.946,315.699,285.073L315.699,285.073z M321.176,269.818c0.016-0.124,0.01-0.25-0.012-0.376l0,0
				c-0.003,0.002-0.006,0.006-0.012,0.008l0,0C321.167,269.571,321.176,269.694,321.176,269.818L321.176,269.818z M328.048,250.257
				c0.019-0.021,0.036-0.042,0.054-0.062l0,0C328.084,250.215,328.066,250.236,328.048,250.257L328.048,250.257z M328.15,250.134
				c0.006-0.006,0.015-0.015,0.018-0.021l0,0C328.165,250.119,328.156,250.128,328.15,250.134L328.15,250.134z M326.795,242.949
				l-0.021-0.033h-0.026C326.759,242.919,326.773,242.928,326.795,242.949L326.795,242.949z M329.189,235.379l0.039,0.051
				c-0.009-0.015-0.021-0.033-0.033-0.051l0,0H329.189L329.189,235.379z M329.294,235.379v-0.003l0,0l0,0V235.379L329.294,235.379z
				 M329.547,235.372l0.199-0.003h-0.199V235.372L329.547,235.372z M325.13,231.765c0-0.003,0.003-0.006,0.006-0.009l0,0
				c0,0,0,0-0.003,0l0,0C325.133,231.759,325.13,231.762,325.13,231.765L325.13,231.765z M285.189,359.937h0.006H285.189
				L285.189,359.937L285.189,359.937z M263.764,314.957h0.003H263.764L263.764,314.957L263.764,314.957z M292.1,277.179h0.002H292.1
				L292.1,277.179L292.1,277.179z M302.021,263.267h0.004H302.021L302.021,263.267z"/>
		</g>
		<path fill="#FFFFFF" d="M335.753,224.201c-0.042-1.484-2.472-2.587-4.785-2.526c-2.315,0.06-4.155,1.312-4.118,2.797
			c0.01,0.244,0.086,0.476,0.191,0.711l-0.045-0.039c0.337,0.861-0.753,1.229-0.753,1.229l0.036,0.003
			c-1.764,0.578-2.976,1.747-2.939,3.089c0.006,0.292,0.094,0.573,0.214,0.843l-0.042-0.036c0.422,1.084-0.943,1.53-0.943,1.53
			l0.031,0.009c-2.189,0.702-3.695,2.156-3.647,3.815c0.009,0.358,0.114,0.702,0.262,1.03l-0.069-0.051
			c0.448,1.147-0.713,1.725-1.072,1.87c-2.801,0.843-4.73,2.686-4.676,4.767c0.008,0.328,0.071,0.645,0.174,0.948l-0.055-0.039
			c0.657,1.684-1.475,2.386-1.475,2.386l0.054,0.013c-3.282,1.041-5.538,3.219-5.475,5.688c0.015,0.51,0.133,0.983,0.321,1.445
			l-0.047-0.046c0.824,2.117-1.844,2.994-1.844,2.994l0.027,0.006c-3.854,1.318-6.472,3.937-6.396,6.898
			c0.015,0.566,0.138,1.117,0.343,1.646l-0.036-0.032c1.024,2.641-2.307,3.73-2.307,3.73l0.096,0.024
			c-4.824,1.613-8.112,4.878-8.016,8.558c0.021,0.769,0.199,1.491,0.488,2.188c0.952,3.098-2.96,4.393-2.96,4.393l0.042,0.017
			c-6.083,1.969-10.248,6.034-10.124,10.639c0.018,0.614,0.13,1.217,0.292,1.804l-0.063-0.061c1.611,4.125-3.68,5.767-3.68,5.767
			l0.108,0.03c-7.474,2.431-12.581,7.443-12.43,13.11c0.027,1.098,0.271,2.156,0.671,3.175c1.518,4.855-4.722,6.799-4.722,6.799
			l0.132,0.033c-8.917,3.077-14.957,9.15-14.773,16.005c0.033,1.298,0.316,2.571,0.776,3.778c1.882,6.082-6.059,8.842-6.059,8.842
			l0.214,0.039c-10.726,3.854-17.953,11.257-17.733,19.589c0.316,11.857,15.586,21.065,34.102,20.565
			c18.514-0.481,33.271-10.5,32.956-22.361c-0.087-3.22-1.301-6.232-3.357-8.912c-2.226-3.896,0.834-7.236,2.192-8.443
			c6.926-3.325,12.307-8.655,12.153-14.558c-0.063-2.366-0.871-4.609-2.273-6.631l0.103,0.016c-3.448-4.281,2.174-7.657,2.174-7.657
			h-0.063c5.229-2.714,8.553-6.863,8.432-11.452c-0.051-1.759-0.623-3.433-1.592-4.962l0.11,0.021
			c-2.758-3.428,1.597-5.947,1.597-5.947l-0.033-0.009c4.525-2.179,7.432-5.661,7.332-9.528c-0.041-1.499-0.545-2.912-1.4-4.207
			l0.04,0.007c-2.21-2.736,1.276-5.104,1.276-5.104l-0.099-0.016c3.683-1.765,6.05-4.599,5.966-7.731
			c-0.031-1.217-0.443-2.376-1.145-3.425h0.009c-0.021-0.023-0.036-0.061-0.062-0.091c-0.023-0.022-0.047-0.067-0.068-0.1
			c-1.477-2.102,0.852-3.875,0.852-3.875l-0.035-0.006c3.015-1.428,4.953-3.734,4.887-6.287c-0.036-1.238-0.539-2.385-1.395-3.385
			c-0.791-1.482,0.539-2.467,0.768-2.621c2.533-1.152,4.177-3.053,4.123-5.17c-0.019-0.74-0.26-1.445-0.653-2.086l0.054,0.012
			c-1.488-1.599,0.62-2.457,0.62-2.457h-0.039c2.205-0.964,3.662-2.567,3.611-4.378c-0.019-0.702-0.259-1.364-0.679-1.955h0.019
			c-1.187-1.28,0.435-2.06,0.435-2.06h-0.084c1.758-0.783,2.912-2.078,2.869-3.532c-0.012-0.582-0.226-1.126-0.584-1.615
			l0.057,0.006c-0.954-1.024,0.25-1.644,0.25-1.644h-0.057c1.409-0.626,2.332-1.681,2.301-2.839
			c-0.016-0.491-0.205-0.943-0.516-1.361l0.016,0.009c-0.766-0.822,0.279-1.328,0.279-1.328h-0.012
			C335.473,225.995,335.773,225.116,335.753,224.201z"/>
	</g>
</g>
</svg>
