<?xml version="1.0" encoding="utf-8"?>
<!-- Generator: Adobe Illustrator 14.0.0, SVG Export Plug-In . SVG Version: 6.00 Build 43363)  -->
<!DOCTYPE svg PUBLIC "-//W3C//DTD SVG 1.1//EN" "http://www.w3.org/Graphics/SVG/1.1/DTD/svg11.dtd">
<svg version="1.1" id="Layer_1" xmlns="http://www.w3.org/2000/svg" xmlns:xlink="http://www.w3.org/1999/xlink" x="0px" y="0px"
	 width="687.336px" height="162.766px" viewBox="0 0 687.336 162.766" enable-background="new 0 0 687.336 162.766"
	 xml:space="preserve">
<g>
	<defs>
		<rect id="SVGID_1_" x="-56.164" y="-56.234" width="800" height="275"/>
	</defs>
	<clipPath id="SVGID_2_">
		<use xlink:href="#SVGID_1_"  overflow="visible"/>
	</clipPath>
	<path clip-path="url(#SVGID_2_)" fill-rule="evenodd" clip-rule="evenodd" fill="#394D54" d="M166.65,51.535h25.594v25.951h12.948
		c5.976,0,12.121-1.056,17.783-2.96c2.781-0.933,5.899-2.234,8.646-3.87c-3.614-4.68-5.458-10.588-6.002-16.41
		c-0.735-7.92,0.871-18.232,6.279-24.43l2.69-3.087l3.206,2.558c8.074,6.434,14.861,15.418,16.057,25.664
		c9.723-2.834,21.132-2.164,29.704,2.739l3.512,2.01l-1.851,3.582c-7.245,14.023-22.392,18.371-37.204,17.6
		c-22.161,54.74-70.408,80.656-128.908,80.656c-30.225,0-57.954-11.205-73.743-37.792l-0.26-0.439l-2.299-4.64
		c-5.337-11.707-7.111-24.532-5.907-37.344l0.359-3.837h21.89V51.535h25.595V26.154h51.192V0.766h30.719V51.535z"/>
	<path clip-path="url(#SVGID_2_)" fill="#00AADA" d="M249.582,61.137c1.716-13.23-8.266-23.621-14.459-28.552
		c-7.135,8.178-8.244,29.614,2.948,38.64c-6.245,5.502-19.404,10.49-32.879,10.49H41.142c-1.31,13.949,1.161,26.796,6.801,37.796
		l1.866,3.384c1.181,1.991,2.472,3.911,3.869,5.756c6.744,0.43,12.962,0.576,18.649,0.456h0.003
		c11.178-0.248,20.301-1.555,27.217-3.935c1.031-0.354,2.148,0.19,2.505,1.209c0.358,1.018-0.187,2.134-1.214,2.484
		c-0.918,0.317-1.879,0.609-2.869,0.896h-0.005c-5.443,1.541-11.281,2.579-18.811,3.036c0.444,0.009-0.464,0.068-0.468,0.068
		c-0.256,0.018-0.578,0.052-0.836,0.065c-2.965,0.168-6.163,0.203-9.434,0.203c-3.579,0-7.103-0.069-11.041-0.269l-0.101,0.065
		c13.671,15.238,35.041,24.373,61.831,24.373c56.696,0,104.788-24.922,126.081-80.883c15.109,1.538,29.631-2.28,36.238-15.068
		C270.9,55.333,257.37,57.253,249.582,61.137"/>
	<path clip-path="url(#SVGID_2_)" fill="#24B8EB" d="M249.582,61.137c1.716-13.23-8.266-23.621-14.459-28.552
		c-7.135,8.178-8.244,29.614,2.948,38.64c-6.245,5.502-19.404,10.49-32.879,10.49H50.856c-0.671,21.362,7.324,37.582,21.47,47.392
		h0.003c11.178-0.248,20.301-1.555,27.217-3.935c1.031-0.354,2.148,0.19,2.505,1.209c0.358,1.018-0.187,2.134-1.214,2.484
		c-0.918,0.317-1.879,0.609-2.869,0.896h-0.005c-5.443,1.541-11.78,2.71-19.312,3.17c-0.006,0-0.183-0.172-0.183-0.172
		c19.293,9.813,47.271,9.78,79.351-2.438c35.966-13.703,69.435-39.812,92.786-69.671C250.256,60.812,249.912,60.969,249.582,61.137"
		/>
	<path clip-path="url(#SVGID_2_)" fill="#008BB8" d="M41.451,98.665c1.017,7.476,3.222,14.473,6.492,20.847l1.866,3.383
		c1.181,1.992,2.472,3.912,3.869,5.757c6.744,0.43,12.962,0.576,18.652,0.456c11.178-0.248,20.301-1.555,27.217-3.935
		c1.03-0.354,2.148,0.19,2.505,1.209c0.358,1.018-0.187,2.134-1.214,2.485c-0.918,0.316-1.879,0.608-2.869,0.895h-0.005
		c-5.443,1.541-11.749,2.645-19.28,3.105c-0.255,0.017-0.707,0.02-0.969,0.032c-2.961,0.166-6.13,0.268-9.399,0.268
		c-3.578,0-7.237-0.067-11.176-0.268c13.67,15.238,35.174,24.405,61.964,24.405c48.54,0,90.765-18.27,115.276-58.64H41.451z"/>
	<path clip-path="url(#SVGID_2_)" fill="#039BC6" d="M52.334,98.665c2.901,13.124,9.875,23.422,19.996,30.442
		c11.178-0.248,20.301-1.555,27.217-3.935c1.03-0.354,2.147,0.19,2.504,1.209c0.359,1.018-0.187,2.134-1.213,2.485
		c-0.918,0.316-1.879,0.608-2.869,0.895h-0.005c-5.443,1.541-11.882,2.645-19.413,3.105c19.293,9.815,47.191,9.673,79.269-2.545
		c19.402-7.396,38.076-18.399,54.833-31.657H52.334z"/>
	<path clip-path="url(#SVGID_2_)" fill-rule="evenodd" clip-rule="evenodd" fill="#00ACD3" d="M81.991,57.6h1.754v18.336h-1.754
		V57.6z M78.63,57.6h1.821v18.336H78.63V57.6z M75.27,57.6h1.823v18.336H75.27V57.6z M71.908,57.6h1.821v18.336h-1.821V57.6z
		 M68.545,57.6h1.822v18.336h-1.822V57.6z M65.255,57.6h1.752v18.336h-1.752V57.6z M63.41,55.765h22.182v22.002H63.41V55.765z"/>
	<path clip-path="url(#SVGID_2_)" fill-rule="evenodd" clip-rule="evenodd" fill="#00ACD3" d="M107.589,32.214h1.753v18.334h-1.753
		V32.214z M104.23,32.214h1.821v18.334h-1.821V32.214z M100.868,32.214h1.819v18.334h-1.819V32.214z M97.502,32.214h1.823v18.334
		h-1.823V32.214z M94.147,32.214h1.82v18.334h-1.82V32.214z M90.854,32.214h1.75v18.334h-1.75V32.214z M89.003,30.381h22.186v22.001
		H89.003V30.381z"/>
	<path clip-path="url(#SVGID_2_)" fill-rule="evenodd" clip-rule="evenodd" fill="#20C2EF" d="M107.589,57.6h1.753v18.336h-1.753
		V57.6z M104.23,57.6h1.821v18.336h-1.821V57.6z M100.868,57.6h1.819v18.336h-1.819V57.6z M97.502,57.6h1.823v18.336h-1.823V57.6z
		 M94.147,57.6h1.82v18.336h-1.82V57.6z M90.854,57.6h1.75v18.336h-1.75V57.6z M89.003,55.765h22.186v22.002H89.003V55.765z"/>
	<path clip-path="url(#SVGID_2_)" fill-rule="evenodd" clip-rule="evenodd" fill="#00ACD3" d="M133.188,57.6h1.751v18.336h-1.751
		V57.6z M129.824,57.6h1.823v18.336h-1.823V57.6z M126.466,57.6h1.82v18.336h-1.82V57.6z M123.105,57.6h1.82v18.336h-1.82V57.6z
		 M119.741,57.6h1.821v18.336h-1.821V57.6z M116.449,57.6h1.752v18.336h-1.752V57.6z M114.604,55.765h22.185v22.002h-22.185V55.765z
		"/>
	<path clip-path="url(#SVGID_2_)" fill-rule="evenodd" clip-rule="evenodd" fill="#20C2EF" d="M133.188,32.214h1.751v18.334h-1.751
		V32.214z M129.824,32.214h1.823v18.334h-1.823V32.214z M126.466,32.214h1.82v18.334h-1.82V32.214z M123.105,32.214h1.82v18.334
		h-1.82V32.214z M119.741,32.214h1.821v18.334h-1.821V32.214z M116.449,32.214h1.752v18.334h-1.752V32.214z M114.604,30.381h22.185
		v22.001h-22.185V30.381z"/>
	<path clip-path="url(#SVGID_2_)" fill-rule="evenodd" clip-rule="evenodd" fill="#20C2EF" d="M158.786,57.6h1.754v18.336h-1.754
		V57.6z M155.424,57.6h1.822v18.336h-1.822V57.6z M152.063,57.6h1.82v18.336h-1.82V57.6z M148.703,57.6h1.82v18.336h-1.82V57.6z
		 M145.341,57.6h1.821v18.336h-1.821V57.6z M142.047,57.6h1.753v18.336h-1.753V57.6z M140.2,55.765h22.185v22.002H140.2V55.765z"/>
	<path clip-path="url(#SVGID_2_)" fill-rule="evenodd" clip-rule="evenodd" fill="#00ACD3" d="M158.786,32.214h1.754v18.334h-1.754
		V32.214z M155.424,32.214h1.822v18.334h-1.822V32.214z M152.063,32.214h1.82v18.334h-1.82V32.214z M148.703,32.214h1.82v18.334
		h-1.82V32.214z M145.341,32.214h1.821v18.334h-1.821V32.214z M142.047,32.214h1.753v18.334h-1.753V32.214z M140.2,30.381h22.185
		v22.001H140.2V30.381z"/>
	<path clip-path="url(#SVGID_2_)" fill-rule="evenodd" clip-rule="evenodd" fill="#20C2EF" d="M158.786,6.827h1.754v18.337h-1.754
		V6.827z M155.424,6.827h1.822v18.337h-1.822V6.827z M152.063,6.827h1.82v18.337h-1.82V6.827z M148.703,6.827h1.82v18.337h-1.82
		V6.827z M145.341,6.827h1.821v18.337h-1.821V6.827z M142.047,6.827h1.753v18.337h-1.753V6.827z M140.2,4.995h22.185v22.001H140.2
		V4.995z"/>
	<path clip-path="url(#SVGID_2_)" fill-rule="evenodd" clip-rule="evenodd" fill="#00ACD3" d="M184.381,57.6h1.751v18.336h-1.751
		V57.6z M181.021,57.6h1.82v18.336h-1.82V57.6z M177.657,57.6h1.821v18.336h-1.821V57.6z M174.298,57.6h1.821v18.336h-1.821V57.6z
		 M170.938,57.6h1.818v18.336h-1.818V57.6z M167.646,57.6h1.749v18.336h-1.749V57.6z M165.796,55.765h22.182v22.002h-22.182V55.765z
		"/>
	<path clip-path="url(#SVGID_2_)" fill-rule="evenodd" clip-rule="evenodd" fill="#D4EDF1" d="M109.802,113.439
		c3.38,0,6.122,2.717,6.122,6.066c0,3.355-2.742,6.07-6.122,6.07c-3.382,0-6.12-2.715-6.12-6.07
		C103.682,116.156,106.42,113.439,109.802,113.439"/>
	<path clip-path="url(#SVGID_2_)" fill-rule="evenodd" clip-rule="evenodd" fill="#394D54" d="M109.802,115.156
		c0.559,0,1.092,0.109,1.583,0.297c-0.531,0.306-0.892,0.881-0.892,1.536c0,0.979,0.8,1.773,1.789,1.773
		c0.677,0,1.265-0.37,1.567-0.924c0.216,0.515,0.333,1.075,0.333,1.667c0,2.401-1.961,4.35-4.38,4.35
		c-2.421,0-4.385-1.948-4.385-4.35C105.417,117.107,107.381,115.156,109.802,115.156"/>
	<path clip-path="url(#SVGID_2_)" fill-rule="evenodd" clip-rule="evenodd" fill="#394D54" d="M1.548,100.859h134.064h16.579h134.06
		c-6.202-1.561-19.616-3.665-17.402-11.723c-11.272,12.937-38.458,9.075-45.318,2.697c-7.637,10.989-52.114,6.812-55.214-1.75
		c-9.577,11.147-39.256,11.147-48.836,0c-3.103,8.562-47.574,12.739-55.214,1.75c-6.863,6.378-34.045,10.239-45.316-2.697
		C21.162,97.194,7.748,99.298,1.548,100.859"/>
	<path clip-path="url(#SVGID_2_)" fill="#BFDBE0" d="M126.072,157.175c-15.157-7.134-23.478-16.826-28.108-27.414
		c-5.629,1.594-12.396,2.611-20.26,3.05c-2.964,0.167-6.077,0.247-9.347,0.247c-3.771,0-7.743-0.111-11.91-0.329
		c13.898,13.777,30.995,24.384,62.657,24.575C121.439,157.304,123.763,157.262,126.072,157.175"/>
	<path clip-path="url(#SVGID_2_)" fill="#D4EDF1" d="M103.595,139.528c-2.098-2.822-4.13-6.37-5.626-9.767
		c-5.634,1.594-12.401,2.611-20.265,3.05C83.104,135.719,90.832,138.412,103.595,139.528"/>
	<path clip-path="url(#SVGID_2_)" fill-rule="evenodd" clip-rule="evenodd" fill="#394D54" d="M585.387,112.549
		c8.763-7.448,17.52-14.9,26.252-22.379c2.984-2.552,6.257-5.197,9.222-7.886c-2.378-2.965-6.349-5.109-9.72-6.384
		c-6.807-2.571-13.517-1.705-19.76,1.866c-8.169,4.676-11.653,12.129-11.348,21.4c0.124,3.649,1.112,7.167,3.068,10.275
		C583.789,110.539,584.56,111.568,585.387,112.549 M595.524,119.607c4.292,1.488,9.189,1.276,13.596,0.515
		c2.251-0.949,8.018-3.442,10.136-3.08l0.334,0.058l0.302,0.147c1.293,0.624,2.529,1.504,3.19,2.809
		c1.548,3.062,0.803,6.14-2.229,7.875l-1.011,0.583c-11.193,6.408-23.099,5.519-34.258-0.466
		c-5.335-2.859-9.414-7.107-12.426-12.284l-0.704-1.208c-7.187-12.339-6.216-25.323,1.89-37.059
		c2.796-4.056,6.451-7.192,10.726-9.642l1.619-0.926c10.544-6.035,21.841-5.623,32.669-0.326c5.82,2.849,10.533,7.096,13.782,12.677
		l0.587,1.003c2.36,4.062-0.698,7.596-3.855,10.015c-3.665,2.799-7.363,6.174-10.875,9.179
		C611.167,106.179,603.352,112.899,595.524,119.607 M679.396,63.461h1.17c3.539,0,5.903,2.367,5.903,5.857
		c0,4.846-4.67,6.086-8.709,6.086c-5.304,0-10.359,3.18-14.017,6.746c-4.556,4.458-6.549,10.158-6.549,16.432v28.329
		c0,3.251-2.047,5.856-5.433,5.856h-0.931c-3.394,0-5.438-2.605-5.438-5.856V96.955c0-11.505,5.646-20.892,15.061-27.482
		C666.079,65.537,672.51,63.461,679.396,63.461 M532.321,83.568c4.581-4.553,9.184-9.094,13.836-13.572
		c1.294-1.248,6.203-6.535,8.134-6.535h2.117l0.237,0.05c2.693,0.554,4.713,2.244,4.713,5.112v1.162c0,1.955-2.313,4.23-3.587,5.569
		c-2.713,2.85-5.566,5.606-8.343,8.398l-14.253,14.351c6.135,6.103,12.268,12.209,18.358,18.357
		c1.683,1.699,3.368,3.404,5.028,5.129c0.583,0.608,1.452,1.373,1.942,2.218c0.527,0.797,0.854,1.693,0.854,2.65v1.204l-0.071,0.28
		c-0.663,2.67-2.372,4.825-5.355,4.825h-0.938c-1.952,0-4.157-2.193-5.493-3.442c-2.755-2.577-5.419-5.288-8.123-7.918l-9.056-8.819
		v14.098c0,3.242-2.051,5.852-5.438,5.852h-0.932c-3.387,0-5.431-2.609-5.431-5.852V47.25c0-3.249,2.044-5.849,5.431-5.849h0.932
		c3.387,0,5.438,2.6,5.438,5.849V83.568z M494.039,75.642c-1.776-0.826-5.113-1.1-7.038-1.173
		c-9.858-0.369-16.992,5.138-21.18,13.762c-1.443,2.974-2.1,6.125-2.1,9.416c0,10.025,5.304,17.043,14.329,21.321
		c3.294,1.559,7.548,1.856,11.149,1.856c3.169,0,7.646-1.923,10.458-3.248l0.486-0.227h2.18l0.241,0.046
		c2.688,0.556,4.711,2.242,4.711,5.104v1.161c0,7.122-13.132,8.758-18.143,9.101c-17.68,1.215-30.901-8.415-35.945-25.139
		c-0.877-2.906-1.27-5.79-1.27-8.814v-2.319c0-12.688,6.347-22.742,17.324-29.206c5.109-3.007,10.75-4.516,16.679-4.516h2.339
		c6.288,0,12.084,1.771,17.275,5.289l0.43,0.292l0.265,0.439c0.562,0.923,1.046,1.99,1.046,3.088v1.158
		c0,2.988-2.255,4.592-4.976,5.112l-0.224,0.037h-0.696C499.618,78.182,495.616,76.378,494.039,75.642 M386.439,97.886
		c0,8.895,4.405,15.438,11.984,20.038c3.553,2.163,7.471,3.139,11.63,3.139c8.86,0,15.41-4.455,19.974-11.876
		c2.174-3.535,3.156-7.421,3.156-11.54c0-8.274-4.016-14.588-10.885-19.169c-3.763-2.512-7.952-3.769-12.484-3.769
		c-9.888,0-17.002,4.951-21.27,13.753C387.098,91.435,386.439,94.592,386.439,97.886 M408.645,62.996h1.637
		c13.673,0,24.069,6.579,30.659,18.416c2.635,4.734,4.044,9.902,4.044,15.314v2.322c0,12.685-6.307,22.796-17.334,29.213
		c-5.109,2.969-10.752,4.506-16.669,4.506h-2.337c-12.794,0-22.961-6.272-29.455-17.188c-3.014-5.066-4.548-10.655-4.548-16.53
		v-2.322c0-12.688,6.349-22.746,17.32-29.217C397.069,64.502,402.714,62.996,408.645,62.996 M309.162,97.886
		c0,9.167,4.48,16.051,12.579,20.449c3.273,1.773,6.828,2.728,10.565,2.728c9.069,0,15.796-4.241,20.437-11.866
		c2.156-3.545,3.164-7.425,3.164-11.55c0-7.943-3.794-14.142-10.249-18.744c-3.911-2.796-8.318-4.194-13.124-4.194
		c-9.886,0-17.002,4.951-21.273,13.753C309.821,91.435,309.162,94.592,309.162,97.886 M355.907,71.734V47.023
		c0-3.247,2.045-5.859,5.435-5.859h0.938c3.39,0,5.427,2.612,5.427,5.859v52.025c0,12.685-6.321,22.779-17.332,29.213
		c-5.107,2.975-10.752,4.506-16.673,4.506h-2.339c-12.792,0-22.959-6.272-29.451-17.188c-3.016-5.066-4.548-10.655-4.548-16.53
		v-2.322c0-12.688,6.321-22.775,17.328-29.219c5.111-2.992,10.746-4.511,16.671-4.511h2.339
		C342.362,62.996,349.711,66.324,355.907,71.734"/>
</g>
</svg>
