<?xml version="1.0" encoding="UTF-8" standalone="no"?>
<!-- Created with Inkscape (http://www.inkscape.org/) -->

<svg
   xmlns:dc="http://purl.org/dc/elements/1.1/"
   xmlns:cc="http://creativecommons.org/ns#"
   xmlns:rdf="http://www.w3.org/1999/02/22-rdf-syntax-ns#"
   xmlns:svg="http://www.w3.org/2000/svg"
   xmlns="http://www.w3.org/2000/svg"
   xmlns:sodipodi="http://sodipodi.sourceforge.net/DTD/sodipodi-0.dtd"
   xmlns:inkscape="http://www.inkscape.org/namespaces/inkscape"
   version="1.1"
   width="138"
   height="138"
   id="svg2"
   xml:space="preserve"
   inkscape:version="0.48.5 r10040"
   sodipodi:docname="kubernetes.svg"><sodipodi:namedview
     pagecolor="#ffffff"
     bordercolor="#666666"
     borderopacity="1"
     objecttolerance="10"
     gridtolerance="10"
     guidetolerance="10"
     inkscape:pageopacity="0"
     inkscape:pageshadow="2"
     inkscape:window-width="1918"
     inkscape:window-height="1054"
     id="namedview147"
     showgrid="false"
     fit-margin-top="0"
     fit-margin-left="0"
     fit-margin-right="0"
     fit-margin-bottom="0"
     inkscape:zoom="3.0970926"
     inkscape:cx="203.09647"
     inkscape:cy="61.870747"
     inkscape:window-x="0"
     inkscape:window-y="31"
     inkscape:window-maximized="0"
     inkscape:current-layer="svg2" /><metadata
     id="metadata8"><rdf:RDF><cc:Work
         rdf:about=""><dc:format>image/svg+xml</dc:format><dc:type
           rdf:resource="http://purl.org/dc/dcmitype/StillImage" /><dc:title /></cc:Work></rdf:RDF></metadata><defs
     id="defs6" /><g
     id="g12"
     transform="matrix(0,-0.23233006,0.22843688,0,307.56315,1453.1993)"><path
       inkscape:connector-curvature="0"
       style="fill:none;stroke:#ffffff;stroke-width:118.52590179;stroke-linecap:butt;stroke-linejoin:round;stroke-miterlimit:4;stroke-opacity:1;stroke-dasharray:none"
       id="path14"
       d="m 6196.6587,-1043.6173 -94.2902,-195.4939 -211.9113,-48.3046 -169.9617,135.2607 -0.025,216.9692 169.9297,135.2974 211.9254,-48.257 94.3336,-195.4718 z" /></g><path
     inkscape:connector-curvature="0"
     style="fill:#336ee5;fill-opacity:1;fill-rule:nonzero;stroke:none"
     id="path16"
     d="M 69.164415,13.544412 24.50791,35.450754 13.47369,84.683616 l 30.897917,39.486744 49.562617,0 L 124.84026,84.691321 113.81667,35.45512 69.164415,13.539019 z" /><g
     id="g18"
     transform="matrix(0,-0.23233006,0.22843688,0,307.56315,1453.1993)"><path
       inkscape:connector-curvature="0"
       style="fill:none;stroke:#336ee5;stroke-width:74.74790192;stroke-linecap:butt;stroke-linejoin:round;stroke-miterlimit:4;stroke-opacity:1;stroke-dasharray:none"
       id="path20"
       d="m 6196.6587,-1043.6173 -94.2902,-195.4939 -211.9113,-48.3046 -169.9617,135.2607 -0.025,216.9692 169.9297,135.2974 211.9254,-48.257 94.3336,-195.4718 z" /></g><g
     id="g22"
     transform="matrix(-0.22843688,0,0,-0.23468008,307.56315,1453.1993)"><path
       inkscape:connector-curvature="0"
       style="fill:none;stroke:#ffffff;stroke-width:30.78089905;stroke-linecap:butt;stroke-linejoin:round;stroke-miterlimit:4;stroke-opacity:1;stroke-dasharray:none"
       id="path24"
       d="m 1013.0746,6022.3961 c 73.5242,16.6963 146.8281,-29.4129 163.7263,-102.9867 16.9013,-73.5707 -29.0033,-146.7473 -102.5275,-163.4423 -73.5273,-16.6918 -146.8312,29.4174 -163.7308,102.9881 -16.8982,73.5738 29.0033,146.7505 102.532,163.4409 z" /></g><path
     inkscape:connector-curvature="0"
     style="fill:#ffffff;fill-opacity:1;fill-rule:nonzero;stroke:none"
     id="path26"
     d="m 72.040533,34.450779 -3.433866,0.01284 -0.21825,25.929869 5.082487,0.0488 -1.430371,-25.986244 z" /><g
     id="g28"
     transform="matrix(-0.21472442,0,0,-0.23468008,307.56315,1453.1993)"><path
       inkscape:connector-curvature="0"
       style="fill:none;stroke:#ffffff;stroke-width:0.41159999;stroke-linecap:butt;stroke-linejoin:miter;stroke-miterlimit:4;stroke-opacity:1;stroke-dasharray:none"
       id="path30"
       d="m 1096.8024,6045.6095 15.9899,-0.034 1.0191,-110.4911 -23.6699,-0.2094 6.6609,110.7345 z" /></g><path
     inkscape:connector-curvature="0"
     style="fill:#ffffff;fill-opacity:1;fill-rule:nonzero;stroke:none"
     id="path32"
     d="m 66.275173,34.450779 3.434616,0.01284 0.212499,25.929869 -5.081736,0.04751 1.434621,-25.985473 z" /><g
     id="g34"
     transform="matrix(-0.21472442,0,0,-0.23468008,307.56315,1453.1993)"><path
       inkscape:connector-curvature="0"
       style="fill:none;stroke:#ffffff;stroke-width:0.41159999;stroke-linecap:butt;stroke-linejoin:miter;stroke-miterlimit:4;stroke-opacity:1;stroke-dasharray:none"
       id="path36"
       d="m 1123.6518,6045.6098 -15.9947,-0.034 -0.9893,-110.4911 23.6664,-0.2029 -6.6824,110.7283 z" /></g><path
     inkscape:connector-curvature="0"
     style="fill:#ffffff;fill-opacity:1;fill-rule:nonzero;stroke:none"
     id="path38"
     d="m 66.486048,24.660222 c 0,1.684688 1.196246,3.050905 2.672367,3.050905 1.475746,0 2.672368,-1.366217 2.672368,-3.049749 0,-1.685074 -1.195497,-3.050777 -2.672368,-3.051933 -1.476121,0 -2.672367,1.365832 -2.672367,3.050777" /><g
     id="g40"
     transform="matrix(-0.20558695,-2.5683182e-5,2.4999933e-5,-0.23468008,307.56315,1453.1993)"><path
       inkscape:connector-curvature="0"
       style="fill:none;stroke:#ffffff;stroke-width:0.2744;stroke-linecap:butt;stroke-linejoin:miter;stroke-miterlimit:4;stroke-opacity:1;stroke-dasharray:none"
       id="path42"
       d="m 1173.5053,6087.183 c -8e-4,-7.1804 -5.8238,-12.9997 -13.0019,-12.9988 -7.1785,8e-4 -12.998,5.8229 -12.9986,12.9971 0,7.1802 5.8204,12.9994 13.0023,13.0031 7.1801,-6e-4 12.9994,-5.8212 12.9982,-13.0014 z" /></g><path
     inkscape:connector-curvature="0"
     style="fill:#ffffff;fill-opacity:1;fill-rule:nonzero;stroke:none"
     id="path44"
     d="m 71.829658,24.619899 c -6.25e-4,0.240909 0.01125,0.58853 0.0025,0.82045 -0.03575,0.97198 -0.242749,1.716663 -0.366749,2.612493 -0.224999,1.915837 -0.413874,3.504342 -0.297999,4.980482 0.106375,0.738906 0.522999,1.030538 0.869873,1.372253 l -4.215114,2.865601 0.633623,-12.630219 3.373491,-0.02055 z" /><g
     id="g46"
     transform="matrix(0,0.22059285,-0.22843688,0,307.56315,1453.1993)"><path
       inkscape:connector-curvature="0"
       style="fill:none;stroke:#ffffff;stroke-width:0.26840001;stroke-linecap:butt;stroke-linejoin:miter;stroke-miterlimit:4;stroke-opacity:1;stroke-dasharray:none"
       id="path48"
       d="m -6476.0579,1031.9675 c 1.0925,0 2.6683,-0.048 3.7194,-0.012 4.4045,0.1551 7.7839,1.0624 11.8431,1.6053 8.6848,0.9836 15.8877,1.8119 22.5774,1.3045 3.35,-0.4652 4.6718,-2.2896 6.2229,-3.8095 l 12.9884,18.4538 -57.2553,-2.7734 -0.096,-14.7685 z" /></g><path
     inkscape:connector-curvature="0"
     style="fill:#ffffff;fill-opacity:1;fill-rule:nonzero;stroke:none"
     id="path50"
     d="m 66.486048,24.619899 c 7.5e-4,0.240909 -0.01125,0.58853 -0.0025,0.82045 0.0355,0.97198 0.242749,1.716663 0.366374,2.612493 0.225374,1.915837 0.414249,3.504342 0.298374,4.980482 -0.10625,0.738906 -0.522999,1.030538 -0.869873,1.372253 l 4.215114,2.865601 -0.633499,-12.630219 -3.373615,-0.02055 z" /><g
     id="g52"
     transform="matrix(0,0.22059285,-0.22843688,0,307.56315,1453.1993)"><path
       inkscape:connector-curvature="0"
       style="fill:none;stroke:#ffffff;stroke-width:0.26840001;stroke-linecap:butt;stroke-linejoin:miter;stroke-miterlimit:4;stroke-opacity:1;stroke-dasharray:none"
       id="path54"
       d="m -6476.0579,1055.3604 c 1.0925,0 2.6683,0.048 3.7194,0.013 4.4045,-0.1551 7.7839,-1.0627 11.8431,-1.6056 8.6848,-0.985 15.8877,-1.8133 22.5774,-1.3059 3.35,0.4669 4.6718,2.291 6.2229,3.8095 l 12.9884,-18.4538 -57.2553,2.7748 -0.096,14.7685 z" /></g><g
     id="g56"
     transform="matrix(-0.22843688,0,0,-0.23468008,307.56315,1453.1993)"><path
       inkscape:connector-curvature="0"
       style="fill:none;stroke:#ffffff;stroke-width:30.34600067;stroke-linecap:butt;stroke-linejoin:miter;stroke-miterlimit:4;stroke-opacity:1;stroke-dasharray:none"
       id="path58"
       d="m 1073.7275,5865.2637 -30.1062,-14.4286 -30.1014,14.4363 -7.433,32.4408 20.8395,26.0096 33.4099,0 20.8321,-26.0158 -7.4409,-32.4374 z" /></g><path
     inkscape:connector-curvature="0"
     style="fill:#ffffff;fill-opacity:1;fill-rule:nonzero;stroke:none"
     id="path60"
     d="m 98.919585,50.580588 -2.146869,-2.752723 -19.869322,15.99189 3.131117,4.112262 18.885074,-17.351429 z" /><g
     id="g62"
     transform="matrix(-0.13387464,-0.17246257,0.17859952,-0.14631709,307.56315,1453.1993)"><path
       inkscape:connector-curvature="0"
       style="fill:none;stroke:#ffffff;stroke-width:0.41159999;stroke-linecap:butt;stroke-linejoin:miter;stroke-miterlimit:4;stroke-opacity:1;stroke-dasharray:none"
       id="path64"
       d="m 5577.0313,3012.37 15.9896,-0.035 1.0146,-110.4928 -23.6665,-0.2083 6.6623,110.7357 z" /></g><path
     inkscape:connector-curvature="0"
     style="fill:#ffffff;fill-opacity:1;fill-rule:nonzero;stroke:none"
     id="path66"
     d="M 95.325345,45.949654 97.459839,48.713549 77.859267,65.05152 74.654776,60.998971 95.325345,45.949654 z" /><g
     id="g68"
     transform="matrix(-0.13387464,-0.17246257,0.17859952,-0.14631709,307.56315,1453.1993)"><path
       inkscape:connector-curvature="0"
       style="fill:none;stroke:#ffffff;stroke-width:0.41159999;stroke-linecap:butt;stroke-linejoin:miter;stroke-miterlimit:4;stroke-opacity:1;stroke-dasharray:none"
       id="path70"
       d="m 5603.881,3012.3717 -15.9925,-0.037 -0.9946,-110.4931 23.6681,-0.201 -6.681,110.7309 z" /></g><path
     inkscape:connector-curvature="0"
     style="fill:#ffffff;fill-opacity:1;fill-rule:nonzero;stroke:none"
     id="path72"
     d="m 102.9072,40.014784 c -1.28224,1.050442 -1.57562,2.862904 -0.65588,4.04921 0.921,1.185279 2.70638,1.295203 3.98874,0.244633 1.28238,-1.050571 1.57575,-2.862905 0.65475,-4.048184 -0.91975,-1.18592 -2.70561,-1.295202 -3.98761,-0.245659" /><g
     id="g74"
     transform="matrix(-0.12816215,-0.16514286,0.17861202,-0.1462914,307.56315,1453.1993)"><path
       inkscape:connector-curvature="0"
       style="fill:none;stroke:#ffffff;stroke-width:0.2744;stroke-linecap:butt;stroke-linejoin:miter;stroke-miterlimit:4;stroke-opacity:1;stroke-dasharray:none"
       id="path76"
       d="m 5852.363,3053.3992 c 0,-7.181 -5.8201,-12.9999 -13.0023,-13.0013 -7.1801,0 -13.0011,5.8235 -12.9999,13.0033 0,7.1788 5.8212,12.9986 13.0013,12.9949 7.1799,0 12.998,-5.8198 13.0009,-12.9969 z" /></g><path
     inkscape:connector-curvature="0"
     style="fill:#ffffff;fill-opacity:1;fill-rule:nonzero;stroke:none"
     id="path78"
     d="m 106.26944,44.282045 c -0.18388,0.150375 -0.44,0.376001 -0.62288,0.514305 -0.76111,0.577358 -1.45736,0.87554 -2.21636,1.333856 -1.59837,1.013716 -2.92537,1.852785 -3.976241,2.8665 -0.496124,0.545383 -0.457749,1.061486 -0.501374,1.553704 l -4.808612,-1.598778 10.006227,-7.365423 2.11924,2.695836 z" /><g
     id="g80"
     transform="matrix(-0.16787455,0.13753344,-0.14242462,-0.18348065,307.56315,1453.1993)"><path
       inkscape:connector-curvature="0"
       style="fill:none;stroke:#ffffff;stroke-width:0.26840001;stroke-linecap:butt;stroke-linejoin:miter;stroke-miterlimit:4;stroke-opacity:1;stroke-dasharray:none"
       id="path82"
       d="m -3249.2313,5243.3223 c 1.0933,0 2.664,-0.052 3.7219,-0.013 4.403,0.1539 7.7794,1.0602 11.8409,1.6067 8.6825,0.9833 15.8867,1.8108 22.5788,1.3017 3.3474,-0.4627 4.6661,-2.2856 6.2166,-3.8075 l 12.9912,18.4521 -57.2539,-2.7749 -0.095,-14.7648 z" /></g><path
     inkscape:connector-curvature="0"
     style="fill:#ffffff;fill-opacity:1;fill-rule:nonzero;stroke:none"
     id="path84"
     d="m 102.93845,39.99 c -0.18388,0.151402 -0.455,0.357381 -0.62613,0.509939 -0.71749,0.634118 -1.15586,1.265025 -1.75999,1.923157 -1.317746,1.375206 -2.408993,2.51708 -3.604865,3.344079 -0.628248,0.37613 -1.109122,0.222416 -1.58637,0.156539 L 95.808968,51.09605 105.02582,42.713573 102.93845,39.99 z" /><g
     id="g86"
     transform="matrix(-0.16787455,0.13753344,-0.14242462,-0.18348065,307.56315,1453.1993)"><path
       inkscape:connector-curvature="0"
       style="fill:none;stroke:#ffffff;stroke-width:0.26840001;stroke-linecap:butt;stroke-linejoin:miter;stroke-miterlimit:4;stroke-opacity:1;stroke-dasharray:none"
       id="path88"
       d="m -3249.2339,5266.7135 c 1.0976,0 2.668,0.05 3.7202,0.011 4.4071,-0.1545 7.7848,-1.0607 11.8446,-1.6044 8.6862,-0.9839 15.8862,-1.8108 22.578,-1.302 3.3491,0.4632 4.668,2.287 6.2194,3.8072 l 12.9861,-18.4518 -57.2505,2.7689 -0.098,14.771 z" /></g><path
     inkscape:connector-curvature="0"
     style="fill:#ffffff;fill-opacity:1;fill-rule:nonzero;stroke:none"
     id="path90"
     d="m 103.34907,82.246154 0.7565,-3.441418 -24.558183,-5.988805 -1.176746,5.079492 24.978429,4.350731 z" /><g
     id="g92"
     transform="matrix(-0.04778737,0.21505812,-0.2226994,-0.05222675,307.56315,1453.1993)"><path
       inkscape:connector-curvature="0"
       style="fill:none;stroke:#ffffff;stroke-width:0.41159999;stroke-linecap:butt;stroke-linejoin:miter;stroke-miterlimit:4;stroke-opacity:1;stroke-dasharray:none"
       id="path94"
       d="m -5847.3578,2171.5747 -15.9939,0.032 -1.0168,110.4913 23.6687,0.207 -6.658,-110.7301 z" /></g><path
     inkscape:connector-curvature="0"
     style="fill:#ffffff;fill-opacity:1;fill-rule:nonzero;stroke:none"
     id="path96"
     d="m 104.63282,76.471804 -0.77237,3.437694 -24.654687,-5.556942 1.085622,-5.10068 24.341435,7.219928 z" /><g
     id="g98"
     transform="matrix(-0.04778737,0.21505812,-0.2226994,-0.05222675,307.56315,1453.1993)"><path
       inkscape:connector-curvature="0"
       style="fill:none;stroke:#ffffff;stroke-width:0.41159999;stroke-linecap:butt;stroke-linejoin:miter;stroke-miterlimit:4;stroke-opacity:1;stroke-dasharray:none"
       id="path100"
       d="m -5874.2073,2171.5679 15.9931,0.04 0.9907,110.4919 -23.6673,0.203 6.6835,-110.7352 z" /></g><path
     inkscape:connector-curvature="0"
     style="fill:#ffffff;fill-opacity:1;fill-rule:nonzero;stroke:none"
     id="path102"
     d="m 113.87654,78.861881 c -1.59836,-0.376002 -3.16161,0.518672 -3.49011,1.997381 -0.32813,1.477553 0.70162,2.980148 2.30062,3.355122 1.59812,0.376002 3.16062,-0.519057 3.48987,-1.997766 0.32812,-1.477553 -0.70163,-2.979763 -2.30038,-3.354737" /><g
     id="g104"
     transform="matrix(-0.04577488,0.20590207,-0.2226994,-0.05225243,307.56315,1453.1993)"><path
       inkscape:connector-curvature="0"
       style="fill:none;stroke:#ffffff;stroke-width:0.2744;stroke-linecap:butt;stroke-linejoin:miter;stroke-miterlimit:4;stroke-opacity:1;stroke-dasharray:none"
       id="path106"
       d="m -6133.9467,2130.5761 c 0,7.1785 5.8181,13 13.0008,12.9983 7.1756,0 12.9951,-5.8181 12.9934,-13 0.01,-7.177 -5.8169,-12.9952 -12.9988,-12.9988 -7.177,0 -12.9963,5.8218 -12.9954,13.0005 z" /></g><path
     inkscape:connector-curvature="0"
     style="fill:#ffffff;fill-opacity:1;fill-rule:nonzero;stroke:none"
     id="path108"
     d="m 112.72543,84.222731 c -0.22825,-0.05393 -0.56063,-0.120711 -0.77925,-0.179782 -0.9145,-0.251952 -1.57575,-0.625 -2.39738,-0.948608 -1.76886,-0.651968 -3.23399,-1.194782 -4.66048,-1.406283 -0.72462,-0.05907 -1.09312,0.293431 -1.49562,0.565672 l -1.78124,-4.859515 11.84483,3.443858 -0.73086,3.384658 z" /><g
     id="g110"
     transform="matrix(-0.20933694,-0.0490934,0.05083736,-0.22878579,307.56315,1453.1993)"><path
       inkscape:connector-curvature="0"
       style="fill:none;stroke:#ffffff;stroke-width:0.26840001;stroke-linecap:butt;stroke-linejoin:miter;stroke-miterlimit:4;stroke-opacity:1;stroke-dasharray:none"
       id="path112"
       d="m 2265.6285,5497.4356 c 1.0922,0 2.6646,-0.046 3.7191,-0.012 4.4067,0.157 7.7848,1.0615 11.842,1.6055 8.6871,0.9856 15.8868,1.813 22.5785,1.3017 3.3494,-0.4609 4.6676,-2.2825 6.219,-3.8053 l 12.9892,18.4519 -57.2525,-2.7689 -0.095,-14.773 z" /></g><path
     inkscape:connector-curvature="0"
     style="fill:#ffffff;fill-opacity:1;fill-rule:nonzero;stroke:none"
     id="path114"
     d="m 113.91479,78.870998 c -0.22925,-0.05393 -0.55587,-0.142285 -0.778,-0.186074 -0.93086,-0.18081 -1.68386,-0.13869 -2.56111,-0.213556 -1.86837,-0.201741 -3.41749,-0.365857 -4.79237,-0.81069 -0.67811,-0.270187 -0.86136,-0.752388 -1.10836,-1.176931 l -3.65737,3.584088 12.12621,2.177548 0.771,-3.374385 z" /><g
     id="g116"
     transform="matrix(-0.20933694,-0.0490934,0.05083736,-0.22878579,307.56315,1453.1993)"><path
       inkscape:connector-curvature="0"
       style="fill:none;stroke:#ffffff;stroke-width:0.26840001;stroke-linecap:butt;stroke-linejoin:miter;stroke-miterlimit:4;stroke-opacity:1;stroke-dasharray:none"
       id="path118"
       d="m 2265.6266,5520.8273 c 1.0955,0 2.6674,0.048 3.7204,0.015 4.4087,-0.1554 7.7848,-1.0642 11.8437,-1.6076 8.6865,-0.9822 15.8857,-1.8093 22.5766,-1.3005 3.3519,0.4629 4.6701,2.2867 6.2195,3.8092 l 12.9914,-18.4544 -57.255,2.7686 -0.097,14.7696 z" /></g><path
     inkscape:connector-curvature="0"
     style="fill:#ffffff;fill-opacity:1;fill-rule:nonzero;stroke:none"
     id="path120"
     d="M 82.060256,105.57792 85.151372,104.04 74.396776,80.580728 l -4.599487,2.22121 12.262967,22.775982 z" /><g
     id="g122"
     transform="matrix(-0.19346198,0.09570838,-0.09911223,-0.2114368,307.56315,1453.1993)"><path
       inkscape:connector-curvature="0"
       style="fill:none;stroke:#ffffff;stroke-width:0.41159999;stroke-linecap:butt;stroke-linejoin:miter;stroke-miterlimit:4;stroke-opacity:1;stroke-dasharray:none"
       id="path124"
       d="m -1704.3131,5602.1797 -15.9959,0.035 -1.0163,110.4899 23.6696,0.2089 -6.6574,-110.7337 z" /></g><path
     inkscape:connector-curvature="0"
     style="fill:#ffffff;fill-opacity:1;fill-rule:nonzero;stroke:none"
     id="path126"
     d="m 87.255492,103.00832 -3.098367,1.52274 -11.14222,-23.266646 4.558863,-2.308276 9.681724,24.052182 z" /><g
     id="g128"
     transform="matrix(-0.19346198,0.09570838,-0.09911223,-0.2114368,307.56315,1453.1993)"><path
       inkscape:connector-curvature="0"
       style="fill:none;stroke:#ffffff;stroke-width:0.41159999;stroke-linecap:butt;stroke-linejoin:miter;stroke-miterlimit:4;stroke-opacity:1;stroke-dasharray:none"
       id="path130"
       d="m -1731.1657,5602.1774 15.9936,0.038 0.9913,110.4894 -23.6685,0.2032 6.6836,-110.7309 z" /></g><path
     inkscape:connector-curvature="0"
     style="fill:#ffffff;fill-opacity:1;fill-rule:nonzero;stroke:none"
     id="path132"
     d="m 91.200231,111.92345 c -0.712248,-1.518 -2.366619,-2.21581 -3.69674,-1.55832 -1.329872,0.65813 -1.831245,2.42179 -1.120122,3.93967 0.711248,1.51826 2.366619,2.21582 3.696115,1.55756 1.330496,-0.65698 1.83187,-2.42103 1.120747,-3.93891" /><g
     id="g134"
     transform="matrix(-0.185237,0.09161191,-0.09907473,-0.21144964,307.56315,1453.1993)"><path
       inkscape:connector-curvature="0"
       style="fill:none;stroke:#ffffff;stroke-width:0.2744;stroke-linecap:butt;stroke-linejoin:miter;stroke-miterlimit:4;stroke-opacity:1;stroke-dasharray:none"
       id="path136"
       d="m -1806.2385,5560.6793 c 0,7.1805 5.8215,13.0009 13.0028,13.0031 7.1782,0 12.9977,-5.8221 12.9983,-13.0005 0,-7.1799 -5.8204,-13.0003 -13,-12.9986 -7.1804,0 -13.0005,5.8176 -13.0011,12.996 z" /></g><path
     inkscape:connector-curvature="0"
     style="fill:#ffffff;fill-opacity:1;fill-rule:nonzero;stroke:none"
     id="path138"
     d="m 86.402244,114.3405 c -0.10175,-0.21728 -0.258999,-0.5242 -0.348999,-0.73787 -0.379124,-0.8907 -0.506749,-1.65439 -0.772873,-2.51606 -0.606623,-1.82698 -1.107247,-3.34241 -1.83537,-4.62002 -0.407499,-0.61883 -0.905748,-0.69601 -1.363496,-0.84933 l 2.587618,-4.46028 4.763362,11.66119 -3.030242,1.52237 z" /><g
     id="g140"
     transform="matrix(-0.09316225,-0.1987493,0.20581194,-0.10182098,307.56315,1453.1993)"><path
       inkscape:connector-curvature="0"
       style="fill:none;stroke:#ffffff;stroke-width:0.26840001;stroke-linecap:butt;stroke-linejoin:miter;stroke-miterlimit:4;stroke-opacity:1;stroke-dasharray:none"
       id="path142"
       d="m 5915.2105,1602.9556 c 1.093,5e-4 2.6634,-0.051 3.7187,-0.013 4.4056,0.1519 7.7811,1.0601 11.8386,1.6055 8.6885,0.9839 15.8874,1.8114 22.5786,1.3023 3.3522,-0.4658 4.6717,-2.2873 6.222,-3.8084 l 12.9909,18.4516 -57.2525,-2.7717 -0.096,-14.7668 z" /></g><path
     inkscape:connector-curvature="0"
     style="fill:#ffffff;fill-opacity:1;fill-rule:nonzero;stroke:none"
     id="path144"
     d="m 91.216106,111.95915 c -0.101625,-0.2174 -0.238124,-0.53445 -0.343374,-0.74044 -0.442499,-0.86013 -0.943873,-1.43864 -1.433871,-2.19026 -1.011998,-1.62613 -1.852495,-2.97296 -2.371869,-4.35433 -0.216874,-0.71309 0.03575,-1.16049 0.205125,-1.6242 l -5.008487,-0.70218 5.904609,11.09655 3.047867,-1.48514 z" /><g
     id="g146"
     transform="matrix(-0.09316225,-0.1987493,0.20581194,-0.10182098,307.56315,1453.1993)"><path
       inkscape:connector-curvature="0"
       style="fill:none;stroke:#ffffff;stroke-width:0.26840001;stroke-linecap:butt;stroke-linejoin:miter;stroke-miterlimit:4;stroke-opacity:1;stroke-dasharray:none"
       id="path148"
       d="m 5915.2102,1626.3454 c 1.093,5e-4 2.6634,0.049 3.719,0.015 4.4068,-0.1576 7.7814,-1.0642 11.8418,-1.6073 8.6876,-0.9845 15.8853,-1.8102 22.5771,-1.3051 3.3508,0.4632 4.6675,2.2868 6.2209,3.8126 l 12.9861,-18.4566 -57.2525,2.7734 -0.092,14.7677 z" /></g><path
     inkscape:connector-curvature="0"
     style="fill:#ffffff;fill-opacity:1;fill-rule:nonzero;stroke:none"
     id="path150"
     d="m 51.046089,102.96363 3.097242,1.52339 11.148595,-23.264855 -4.558738,-2.309303 -9.687099,24.050768 z" /><g
     id="g152"
     transform="matrix(-0.19346198,-0.09572122,0.09912473,-0.2114368,307.56315,1453.1993)"><path
       inkscape:connector-curvature="0"
       style="fill:none;stroke:#ffffff;stroke-width:0.41159999;stroke-linecap:butt;stroke-linejoin:miter;stroke-miterlimit:4;stroke-opacity:1;stroke-dasharray:none"
       id="path154"
       d="m 3732.2325,4696.5302 -15.9925,0.033 -1.0145,110.4942 23.669,0.2069 -6.662,-110.7343 z" /></g><path
     inkscape:connector-curvature="0"
     style="fill:#ffffff;fill-opacity:1;fill-rule:nonzero;stroke:none"
     id="path156"
     d="M 56.2402,105.53387 53.149459,103.9948 63.90968,80.538479 68.508542,82.761615 56.2402,105.53387 z" /><g
     id="g158"
     transform="matrix(-0.19346198,-0.09572122,0.09912473,-0.2114368,307.56315,1453.1993)"><path
       inkscape:connector-curvature="0"
       style="fill:none;stroke:#ffffff;stroke-width:0.41159999;stroke-linecap:butt;stroke-linejoin:miter;stroke-miterlimit:4;stroke-opacity:1;stroke-dasharray:none"
       id="path160"
       d="m 3705.3831,4696.5288 15.9973,0.037 0.9887,110.4928 -23.6687,0.2009 6.6827,-110.7306 z" /></g><path
     inkscape:connector-curvature="0"
     style="fill:#ffffff;fill-opacity:1;fill-rule:nonzero;stroke:none"
     id="path162"
     d="m 51.915337,114.26076 c 0.712123,-1.51788 0.210374,-3.2827 -1.118997,-3.93967 -1.329496,-0.65814 -2.984492,0.0385 -3.697115,1.55652 -0.711123,1.51788 -0.210125,3.28154 1.119372,3.94006 1.330121,0.65813 2.984492,-0.0398 3.69674,-1.55691" /><g
     id="g164"
     transform="matrix(-0.185212,-0.09166328,0.09914973,-0.21142395,307.56315,1453.1993)"><path
       inkscape:connector-curvature="0"
       style="fill:none;stroke:#ffffff;stroke-width:0.2744;stroke-linecap:butt;stroke-linejoin:miter;stroke-miterlimit:4;stroke-opacity:1;stroke-dasharray:none"
       id="path166"
       d="m 3871.7606,4654.3567 c 8e-4,7.181 5.8243,13.003 13.0011,13.0008 7.1782,5e-4 12.9991,-5.8187 12.9997,-13.0006 0,-7.1784 -5.8195,-12.9982 -12.9994,-12.9982 -7.1819,-6e-4 -12.9974,5.8215 -13.0014,12.998 z" /></g><path
     inkscape:connector-curvature="0"
     style="fill:#ffffff;fill-opacity:1;fill-rule:nonzero;stroke:none"
     id="path168"
     d="m 47.08435,111.91511 c 0.10175,-0.21805 0.237374,-0.53549 0.343374,-0.74161 0.442874,-0.85973 0.944247,-1.43812 1.433996,-2.18987 1.011872,-1.62639 1.85237,-2.97219 2.371869,-4.35471 0.216874,-0.71309 -0.03588,-1.16049 -0.204125,-1.62305 l 5.007362,-0.70334 -5.904109,11.09656 -3.048367,-1.48398 z" /><g
     id="g170"
     transform="matrix(-0.09317475,0.1987493,-0.20581194,-0.10183382,307.56315,1453.1993)"><path
       inkscape:connector-curvature="0"
       style="fill:none;stroke:#ffffff;stroke-width:0.26840001;stroke-linecap:butt;stroke-linejoin:miter;stroke-miterlimit:4;stroke-opacity:1;stroke-dasharray:none"
       id="path172"
       d="m -4951.7391,3507.378 c -1.0975,0 -2.6668,0.053 -3.7224,0.017 -4.4065,-0.1571 -7.7837,-1.0644 -11.8432,-1.6058 -8.6862,-0.9848 -15.8811,-1.8114 -22.5771,-1.304 -3.3491,0.4626 -4.6666,2.2847 -6.2161,3.8075 l -12.992,-18.4507 57.2536,2.7686 0.097,14.7677 z" /></g><path
     inkscape:connector-curvature="0"
     style="fill:#ffffff;fill-opacity:1;fill-rule:nonzero;stroke:none"
     id="path174"
     d="m 51.897212,114.29685 c 0.10275,-0.21742 0.258999,-0.52575 0.350124,-0.73788 0.378374,-0.89223 0.506624,-1.65593 0.772373,-2.5176 0.606998,-1.82697 1.107622,-3.34125 1.83587,-4.62001 0.407749,-0.61885 0.905248,-0.69487 1.362996,-0.84781 l -2.587618,-4.46092 -4.763612,11.66043 3.029867,1.52379 z" /><g
     id="g176"
     transform="matrix(-0.09317475,0.1987493,-0.20581194,-0.10183382,307.56315,1453.1993)"><path
       inkscape:connector-curvature="0"
       style="fill:none;stroke:#ffffff;stroke-width:0.26840001;stroke-linecap:butt;stroke-linejoin:miter;stroke-miterlimit:4;stroke-opacity:1;stroke-dasharray:none"
       id="path178"
       d="m -4951.7379,3483.9904 c -1.0962,0 -2.6697,-0.048 -3.7205,-0.015 -4.4084,0.1573 -7.7868,1.0636 -11.8437,1.607 -8.6876,0.9856 -15.8839,1.8108 -22.5782,1.3033 -3.3517,-0.4643 -4.6684,-2.2869 -6.2195,-3.8094 l -12.989,18.4538 57.2514,-2.7692 0.1,-14.7702 z" /></g><path
     inkscape:connector-curvature="0"
     style="fill:#ffffff;fill-opacity:1;fill-rule:nonzero;stroke:none"
     id="path180"
     d="m 33.681885,76.408495 0.771618,3.437694 24.65644,-5.550521 -1.084998,-5.101579 -24.34306,7.214406 z" /><g
     id="g182"
     transform="matrix(-0.04777487,-0.21505812,0.2226994,-0.05221391,307.56315,1453.1993)"><path
       inkscape:connector-curvature="0"
       style="fill:none;stroke:#ffffff;stroke-width:0.41159999;stroke-linecap:butt;stroke-linejoin:miter;stroke-miterlimit:4;stroke-opacity:1;stroke-dasharray:none"
       id="path184"
       d="m 6368.633,136.4414 -15.9914,0.0349 -1.0179,110.4945 23.6696,0.2061 -6.6603,-110.7355 z" /></g><path
     inkscape:connector-curvature="0"
     style="fill:#ffffff;fill-opacity:1;fill-rule:nonzero;stroke:none"
     id="path186"
     d="m 34.964132,82.183101 -0.755748,-3.441289 24.560059,-5.98264 1.175997,5.079491 -24.980308,4.344438 z" /><g
     id="g188"
     transform="matrix(-0.04777487,-0.21505812,0.2226994,-0.05221391,307.56315,1453.1993)"><path
       inkscape:connector-curvature="0"
       style="fill:none;stroke:#ffffff;stroke-width:0.41159999;stroke-linecap:butt;stroke-linejoin:miter;stroke-miterlimit:4;stroke-opacity:1;stroke-dasharray:none"
       id="path190"
       d="m 6341.7858,136.44 15.9911,0.0369 0.9918,110.4913 -23.6678,0.2033 6.6849,-110.7315 z" /></g><path
     inkscape:connector-curvature="0"
     style="fill:#ffffff;fill-opacity:1;fill-rule:nonzero;stroke:none"
     id="path192"
     d="m 25.626907,84.150305 c 1.598996,-0.374975 2.628743,-1.876542 2.300244,-3.355123 -0.328499,-1.47858 -1.890745,-2.373383 -3.488741,-1.998408 -1.599116,0.373819 -2.629493,1.876413 -2.301364,3.355122 0.328499,1.478581 1.890735,2.372998 3.489861,1.998409" /><g
     id="g194"
     transform="matrix(-0.04571238,-0.20591491,0.2227119,-0.05217538,307.56315,1453.1993)"><path
       inkscape:connector-curvature="0"
       style="fill:none;stroke:#ffffff;stroke-width:0.2744;stroke-linecap:butt;stroke-linejoin:miter;stroke-miterlimit:4;stroke-opacity:1;stroke-dasharray:none"
       id="path196"
       d="m 6624.6812,93.8699 c 0,7.1801 5.8189,12.9977 12.9999,12.9968 7.1805,6e-4 13.0009,-5.8207 12.9983,-12.9966 0,-7.1795 -5.8178,-13.0025 -12.9991,-12.9999 -7.1805,-6e-4 -13.0006,5.8209 -12.9991,12.9997 z" /></g><path
     inkscape:connector-curvature="0"
     style="fill:#ffffff;fill-opacity:1;fill-rule:nonzero;stroke:none"
     id="path198"
     d="m 24.39978,78.806534 c 0.22863,-0.05265 0.555249,-0.1419 0.778508,-0.184919 0.929748,-0.18158 1.682746,-0.139332 2.559993,-0.214327 1.868365,-0.20097 3.418241,-0.365214 4.793357,-0.809662 0.677128,-0.270444 0.861128,-0.752774 1.108377,-1.177188 l 3.65636,3.5855 -12.125587,2.17498 -0.771008,-3.374384 z" /><g
     id="g200"
     transform="matrix(-0.20934944,0.04908056,-0.05082486,-0.22879863,307.56315,1453.1993)"><path
       inkscape:connector-curvature="0"
       style="fill:none;stroke:#ffffff;stroke-width:0.26840001;stroke-linecap:butt;stroke-linejoin:miter;stroke-miterlimit:4;stroke-opacity:1;stroke-dasharray:none"
       id="path202"
       d="m -100.5077,5985.5958 c -1.0914,0 -2.6643,0.049 -3.7197,0.011 -4.4061,-0.1513 -7.7822,-1.0601 -11.8411,-1.603 -8.686,-0.985 -15.8899,-1.8127 -22.5805,-1.3053 -3.3472,0.464 -4.6684,2.2887 -6.2178,3.8114 l -12.987,-18.4558 57.2485,2.7726 0.0976,14.7696 z" /></g><path
     inkscape:connector-curvature="0"
     style="fill:#ffffff;fill-opacity:1;fill-rule:nonzero;stroke:none"
     id="path204"
     d="m 25.588537,84.158652 c 0.229249,-0.05394 0.560618,-0.119427 0.779988,-0.179782 0.913747,-0.251182 1.574996,-0.624359 2.396623,-0.947967 1.768496,-0.651967 3.233622,-1.194653 4.660488,-1.406154 0.724628,-0.05907 1.093877,0.29343 1.495616,0.565287 l 1.780875,-4.85913 -11.843468,3.443858 0.729878,3.383888 z" /><g
     id="g206"
     transform="matrix(-0.20934944,0.04908056,-0.05082486,-0.22879863,307.56315,1453.1993)"><path
       inkscape:connector-curvature="0"
       style="fill:none;stroke:#ffffff;stroke-width:0.26840001;stroke-linecap:butt;stroke-linejoin:miter;stroke-miterlimit:4;stroke-opacity:1;stroke-dasharray:none"
       id="path208"
       d="m -100.5077,5962.2049 c -1.0956,0 -2.6652,-0.052 -3.7219,-0.014 -4.4028,0.1551 -7.7792,1.0599 -11.8381,1.6036 -8.687,0.9862 -15.8862,1.8125 -22.5785,1.3028 -3.3494,-0.4606 -4.6721,-2.2844 -6.2206,-3.8052 l -12.9884,18.4524 57.2491,-2.772 0.0984,-14.7674 z" /></g><path
     inkscape:connector-curvature="0"
     style="fill:#ffffff;fill-opacity:1;fill-rule:nonzero;stroke:none"
     id="path210"
     d="M 43.009986,45.898287 40.874742,48.661155 60.471689,65.004263 63.67693,60.953126 43.009986,45.898287 z" /><g
     id="g212"
     transform="matrix(-0.13388714,0.17246257,-0.17858702,-0.14632993,307.56315,1453.1993)"><path
       inkscape:connector-curvature="0"
       style="fill:none;stroke:#ffffff;stroke-width:0.41159999;stroke-linecap:butt;stroke-linejoin:miter;stroke-miterlimit:4;stroke-opacity:1;stroke-dasharray:none"
       id="path214"
       d="m -4219.3791,4644.5956 15.993,-0.032 1.0131,-110.4936 -23.6625,-0.2061 6.6564,110.7318 z" /></g><path
     inkscape:connector-curvature="0"
     style="fill:#ffffff;fill-opacity:1;fill-rule:nonzero;stroke:none"
     id="path216"
     d="M 39.414246,50.52858 41.56249,47.775856 61.427311,63.772112 58.29532,67.883219 39.414246,50.52858 z" /><g
     id="g218"
     transform="matrix(-0.13388714,0.17246257,-0.17858702,-0.14632993,307.56315,1453.1993)"><path
       inkscape:connector-curvature="0"
       style="fill:none;stroke:#ffffff;stroke-width:0.41159999;stroke-linecap:butt;stroke-linejoin:miter;stroke-miterlimit:4;stroke-opacity:1;stroke-dasharray:none"
       id="path220"
       d="m -4192.5257,4644.6018 -15.9973,-0.04 -0.9896,-110.4882 23.665,-0.2044 -6.6781,110.7329 z" /></g><path
     inkscape:connector-curvature="0"
     style="fill:#ffffff;fill-opacity:1;fill-rule:nonzero;stroke:none"
     id="path222"
     d="m 32.095139,44.254692 c 1.282377,1.050185 3.068122,0.941417 3.98799,-0.243862 0.920497,-1.18515 0.627128,-2.998768 -0.654119,-4.04921 -1.282246,-1.050571 -3.067751,-0.941417 -3.988619,0.243861 -0.920247,1.185536 -0.627248,2.998384 0.654748,4.049211" /><g
     id="g224"
     transform="matrix(-0.12821215,0.16510434,-0.17857452,-0.14635561,307.56315,1453.1993)"><path
       inkscape:connector-curvature="0"
       style="fill:none;stroke:#ffffff;stroke-width:0.2744;stroke-linecap:butt;stroke-linejoin:miter;stroke-miterlimit:4;stroke-opacity:1;stroke-dasharray:none"
       id="path226"
       d="m -4379.2058,4686.834 c -3e-4,-7.1787 -5.8215,-12.9999 -12.9986,-12.9979 -7.179,-6e-4 -13.0014,5.8226 -13.0031,12.9988 0,7.1802 5.8215,13 13.0009,13.0005 7.1793,0 13.0022,-5.8192 13.0008,-13.0014 z" /></g><path
     inkscape:connector-curvature="0"
     style="fill:#ffffff;fill-opacity:1;fill-rule:nonzero;stroke:none"
     id="path228"
     d="m 35.39676,39.937863 c 0.18387,0.150375 0.454989,0.35751 0.626499,0.508527 0.717498,0.634503 1.155487,1.266052 1.758495,1.923542 1.319242,1.375976 2.40949,2.518236 3.605361,3.345234 0.628249,0.375617 1.108997,0.222416 1.586371,0.156539 l -0.447874,5.171951 -9.215846,-8.383248 2.086994,-2.722545 z" /><g
     id="g230"
     transform="matrix(-0.16787455,-0.13754628,0.14243712,-0.18346781,307.56315,1453.1993)"><path
       inkscape:connector-curvature="0"
       style="fill:none;stroke:#ffffff;stroke-width:0.26840001;stroke-linecap:butt;stroke-linejoin:miter;stroke-miterlimit:4;stroke-opacity:1;stroke-dasharray:none"
       id="path232"
       d="m 4985.5952,3965.326 c -1.0933,0 -2.6668,0.051 -3.7182,0.016 -4.4047,-0.1539 -7.7865,-1.065 -11.8409,-1.607 -8.6896,-0.985 -15.8882,-1.8124 -22.5799,-1.3033 -3.3489,0.4609 -4.6664,2.2841 -6.2192,3.8072 l -12.9867,-18.4533 57.2485,2.7743 0.096,14.7662 z" /></g><path
     inkscape:connector-curvature="0"
     style="fill:#ffffff;fill-opacity:1;fill-rule:nonzero;stroke:none"
     id="path234"
     d="m 32.065019,44.22888 c 0.18387,0.150375 0.440739,0.376002 0.622869,0.514434 0.761128,0.577615 1.457746,0.875412 2.216374,1.33437 1.597996,1.014229 2.924992,1.852913 3.97636,2.866629 0.495999,0.545382 0.457374,1.061871 0.501374,1.55396 l 4.808612,-1.598649 -10.005594,-7.366579 -2.119995,2.695835 z" /><g
     id="g236"
     transform="matrix(-0.16787455,-0.13754628,0.14243712,-0.18346781,307.56315,1453.1993)"><path
       inkscape:connector-curvature="0"
       style="fill:none;stroke:#ffffff;stroke-width:0.26840001;stroke-linecap:butt;stroke-linejoin:miter;stroke-miterlimit:4;stroke-opacity:1;stroke-dasharray:none"
       id="path238"
       d="m 4985.5975,3941.9365 c -1.0933,3e-4 -2.6654,-0.049 -3.7205,-0.014 -4.4053,0.154 -7.7836,1.0656 -11.8429,1.6047 -8.6839,0.9848 -15.887,1.8114 -22.5788,1.3028 -3.3485,-0.4637 -4.6672,-2.2867 -6.2183,-3.8063 l -12.9901,18.4504 57.2505,-2.7686 0.1001,-14.7688 z" /></g><path
     inkscape:connector-curvature="0"
     style="fill:#ffffff;fill-opacity:1;fill-rule:nonzero;stroke:none"
     id="path240"
     d="m 73.354779,57.337705 c 0.0535,1.289039 1.085247,2.317393 2.352994,2.317393 0.519498,0 0.998497,-0.171435 1.387621,-0.463067 l 0.611248,0.299209 -1.251121,2.65731 -5.482236,-2.716253 1.244747,-2.657696 1.136747,0.563104 z" /><path
     inkscape:connector-curvature="0"
     style="fill:#ffffff;fill-opacity:1;fill-rule:nonzero;stroke:none"
     id="path242"
     d="m 82.303005,65.916787 c -0.947873,0.846389 -1.086747,2.317778 -0.297374,3.335089 0.323874,0.417223 0.753373,0.694987 1.218246,0.825971 l 0.153375,0.677779 -2.802742,0.651583 -1.350997,-6.096802 2.799118,-0.657361 0.280374,1.263741 z" /><path
     inkscape:connector-curvature="0"
     style="fill:#ffffff;fill-opacity:1;fill-rule:nonzero;stroke:none"
     id="path244"
     d="m 81.362632,78.447226 c -1.234246,-0.233589 -2.440618,0.571194 -2.722742,1.840842 -0.115875,0.519827 -0.0595,1.038885 0.131124,1.49322 l -0.420248,0.545639 -2.243994,-1.844437 3.798489,-4.885841 2.244994,1.837889 -0.787623,1.012688 z" /><path
     inkscape:connector-curvature="0"
     style="fill:#ffffff;fill-opacity:1;fill-rule:nonzero;stroke:none"
     id="path246"
     d="m 71.240035,85.50047 c -0.591624,-1.137637 -1.95687,-1.6043 -3.097867,-1.039656 -0.467749,0.231149 -0.827373,0.599831 -1.055122,1.035932 l -0.677123,0 0.005,-2.951768 6.087483,0 0,2.94997 -1.261871,-0.001 z" /><path
     inkscape:connector-curvature="0"
     style="fill:#ffffff;fill-opacity:1;fill-rule:nonzero;stroke:none"
     id="path248"
     d="m 59.572316,81.726711 c 0.496124,-1.185664 7.5e-4,-2.572556 -1.141247,-3.137457 -0.467748,-0.231534 -0.971872,-0.290477 -1.445621,-0.200586 l -0.423874,-0.542685 2.248619,-1.836862 3.792365,4.891234 -2.244244,1.840072 -0.785998,-1.013716 z" /><path
     inkscape:connector-curvature="0"
     style="fill:#ffffff;fill-opacity:1;fill-rule:nonzero;stroke:none"
     id="path250"
     d="m 55.117078,70.006576 c 1.210622,-0.34043 1.957245,-1.602373 1.675621,-2.87215 -0.11525,-0.519827 -0.384874,-0.961707 -0.748748,-1.286727 l 0.148124,-0.67855 2.800243,0.6607 -1.358122,6.09616 -2.799242,-0.655306 0.282124,-1.264127 z" /><path
     inkscape:connector-curvature="0"
     style="fill:#ffffff;fill-opacity:1;fill-rule:nonzero;stroke:none"
     id="path252"
     d="m 61.258562,59.140664 c 1.013747,0.760094 2.440368,0.572992 3.230491,-0.445089 0.323499,-0.416453 0.492499,-0.908671 0.512999,-1.403715 l 0.608498,-0.304217 1.241872,2.661933 -5.484986,2.709705 -1.246621,-2.657568 1.137747,-0.561049 z" /></svg>