<?xml version="1.0" encoding="UTF-8" standalone="no"?>
<!-- Created with Inkscape (http://www.inkscape.org/) -->

<svg
   xmlns:dc="http://purl.org/dc/elements/1.1/"
   xmlns:cc="http://creativecommons.org/ns#"
   xmlns:rdf="http://www.w3.org/1999/02/22-rdf-syntax-ns#"
   xmlns:svg="http://www.w3.org/2000/svg"
   xmlns="http://www.w3.org/2000/svg"
   xmlns:sodipodi="http://sodipodi.sourceforge.net/DTD/sodipodi-0.dtd"
   xmlns:inkscape="http://www.inkscape.org/namespaces/inkscape"
   version="1.1"
   width="138.30937"
   height="134.62993"
   id="svg2"
   xml:space="preserve"
   inkscape:version="0.48.5 r10040"
   sodipodi:docname="titlelogo.svg"><sodipodi:namedview
     pagecolor="#ffffff"
     bordercolor="#666666"
     borderopacity="1"
     objecttolerance="10"
     gridtolerance="10"
     guidetolerance="10"
     inkscape:pageopacity="0"
     inkscape:pageshadow="2"
     inkscape:window-width="1918"
     inkscape:window-height="1054"
     id="namedview147"
     showgrid="false"
     fit-margin-top="0"
     fit-margin-left="0"
     fit-margin-right="0"
     fit-margin-bottom="0"
     inkscape:zoom="3.0970926"
     inkscape:cx="292.37098"
     inkscape:cy="61.870747"
     inkscape:window-x="0"
     inkscape:window-y="24"
     inkscape:window-maximized="0"
     inkscape:current-layer="svg2" /><metadata
     id="metadata8"><rdf:RDF><cc:Work
         rdf:about=""><dc:format>image/svg+xml</dc:format><dc:type
           rdf:resource="http://purl.org/dc/dcmitype/StillImage" /><dc:title></dc:title></cc:Work></rdf:RDF></metadata><defs
     id="defs6" /><g
     id="g12"
     transform="matrix(0,-0.22615,-0.2284375,0,-169.2546,1414.8444)"><path
       inkscape:connector-curvature="0"
       style="fill:none;stroke:#ffffff;stroke-width:118.52590179;stroke-linecap:butt;stroke-linejoin:round;stroke-miterlimit:4;stroke-opacity:1;stroke-dasharray:none"
       id="path14"
       d="m 6196.6587,-1043.6173 -94.2902,-195.4939 -211.9113,-48.3046 -169.9617,135.2607 -0.025,216.9692 169.9297,135.2974 211.9254,-48.257 94.3336,-195.4718 z" /></g><path
     inkscape:connector-curvature="0"
     style="fill:#336ee5;fill-opacity:1;fill-rule:nonzero;stroke:none"
     id="path16"
     d="m 69.144774,13.484906 44.656626,21.323625 11.03425,47.92325 -30.898001,38.436379 -49.56275,0 -30.906125,-38.428879 11.023625,-47.9265 44.652375,-21.333125 z" /><g
     id="g18"
     transform="matrix(0,-0.22615,-0.2284375,0,-169.2546,1414.8444)"><path
       inkscape:connector-curvature="0"
       style="fill:none;stroke:#336ee5;stroke-width:74.74790192;stroke-linecap:butt;stroke-linejoin:round;stroke-miterlimit:4;stroke-opacity:1;stroke-dasharray:none"
       id="path20"
       d="m 6196.6587,-1043.6173 -94.2902,-195.4939 -211.9113,-48.3046 -169.9617,135.2607 -0.025,216.9692 169.9297,135.2974 211.9254,-48.257 94.3336,-195.4718 z" /></g><g
     id="g22"
     transform="matrix(0.2284375,0,0,-0.2284375,-169.2546,1414.8444)"><path
       inkscape:connector-curvature="0"
       style="fill:none;stroke:#ffffff;stroke-width:30.78089905;stroke-linecap:butt;stroke-linejoin:round;stroke-miterlimit:4;stroke-opacity:1;stroke-dasharray:none"
       id="path24"
       d="m 1013.0746,6022.3961 c 73.5242,16.6963 146.8281,-29.4129 163.7263,-102.9867 16.9013,-73.5707 -29.0033,-146.7473 -102.5275,-163.4423 -73.5273,-16.6918 -146.8312,29.4174 -163.7308,102.9881 -16.8982,73.5738 29.0033,146.7505 102.532,163.4409 z" /></g><path
     inkscape:connector-curvature="0"
     style="fill:#ffffff;fill-opacity:1;fill-rule:nonzero;stroke:none"
     id="path26"
     d="m 66.268649,33.835156 3.433875,0.0125 0.21825,25.240125 -5.0825,0.0475 1.430375,-25.295 z" /><g
     id="g28"
     transform="matrix(0.214725,0,0,-0.2284375,-169.2546,1414.8444)"><path
       inkscape:connector-curvature="0"
       style="fill:none;stroke:#ffffff;stroke-width:0.41159999;stroke-linecap:butt;stroke-linejoin:miter;stroke-miterlimit:4;stroke-opacity:1;stroke-dasharray:none"
       id="path30"
       d="m 1096.8024,6045.6095 15.9899,-0.034 1.0191,-110.4911 -23.6699,-0.2094 6.6609,110.7345 z" /></g><path
     inkscape:connector-curvature="0"
     style="fill:#ffffff;fill-opacity:1;fill-rule:nonzero;stroke:none"
     id="path32"
     d="m 72.034024,33.835156 -3.434625,0.0125 -0.2125,25.240125 5.08175,0.04625 -1.434625,-25.29425 z" /><g
     id="g34"
     transform="matrix(0.214725,0,0,-0.2284375,-169.2546,1414.8444)"><path
       inkscape:connector-curvature="0"
       style="fill:none;stroke:#ffffff;stroke-width:0.41159999;stroke-linecap:butt;stroke-linejoin:miter;stroke-miterlimit:4;stroke-opacity:1;stroke-dasharray:none"
       id="path36"
       d="m 1123.6518,6045.6098 -15.9947,-0.034 -0.9893,-110.4911 23.6664,-0.2029 -6.6824,110.7283 z" /></g><path
     inkscape:connector-curvature="0"
     style="fill:#ffffff;fill-opacity:1;fill-rule:nonzero;stroke:none"
     id="path38"
     d="m 71.823149,24.305031 c 0,1.639875 -1.19625,2.96975 -2.672375,2.96975 -1.47575,0 -2.672375,-1.329875 -2.672375,-2.968625 0,-1.64025 1.1955,-2.969625 2.672375,-2.97075 1.476125,0 2.672375,1.3295 2.672375,2.969625" /><g
     id="g40"
     transform="matrix(0.2055875,-2.5e-5,-2.5e-5,-0.2284375,-169.2546,1414.8444)"><path
       inkscape:connector-curvature="0"
       style="fill:none;stroke:#ffffff;stroke-width:0.2744;stroke-linecap:butt;stroke-linejoin:miter;stroke-miterlimit:4;stroke-opacity:1;stroke-dasharray:none"
       id="path42"
       d="m 1173.5053,6087.183 c -8e-4,-7.1804 -5.8238,-12.9997 -13.0019,-12.9988 -7.1785,8e-4 -12.998,5.8229 -12.9986,12.9971 0,7.1802 5.8204,12.9994 13.0023,13.0031 7.1801,-6e-4 12.9994,-5.8212 12.9982,-13.0014 z" /></g><path
     inkscape:connector-curvature="0"
     style="fill:#ffffff;fill-opacity:1;fill-rule:nonzero;stroke:none"
     id="path44"
     d="m 66.479524,24.265781 c 6.25e-4,0.2345 -0.01125,0.572875 -0.0025,0.798625 0.03575,0.946125 0.24275,1.671 0.36675,2.543 0.225,1.864875 0.413875,3.411125 0.298,4.848 -0.106375,0.71925 -0.523,1.003125 -0.869875,1.33575 l 4.215125,2.789375 -0.633625,-12.29425 -3.3735,-0.02 z" /><g
     id="g46"
     transform="matrix(0,0.214725,0.2284375,0,-169.2546,1414.8444)"><path
       inkscape:connector-curvature="0"
       style="fill:none;stroke:#ffffff;stroke-width:0.26840001;stroke-linecap:butt;stroke-linejoin:miter;stroke-miterlimit:4;stroke-opacity:1;stroke-dasharray:none"
       id="path48"
       d="m -6476.0579,1031.9675 c 1.0925,0 2.6683,-0.048 3.7194,-0.012 4.4045,0.1551 7.7839,1.0624 11.8431,1.6053 8.6848,0.9836 15.8877,1.8119 22.5774,1.3045 3.35,-0.4652 4.6718,-2.2896 6.2229,-3.8095 l 12.9884,18.4538 -57.2553,-2.7734 -0.096,-14.7685 z" /></g><path
     inkscape:connector-curvature="0"
     style="fill:#ffffff;fill-opacity:1;fill-rule:nonzero;stroke:none"
     id="path50"
     d="m 71.823149,24.265781 c -7.5e-4,0.2345 0.01125,0.572875 0.0025,0.798625 -0.0355,0.946125 -0.24275,1.671 -0.366375,2.543 -0.225375,1.864875 -0.41425,3.411125 -0.298375,4.848 0.10625,0.71925 0.523,1.003125 0.869875,1.33575 l -4.215125,2.789375 0.6335,-12.29425 3.373625,-0.02 z" /><g
     id="g52"
     transform="matrix(0,0.214725,0.2284375,0,-169.2546,1414.8444)"><path
       inkscape:connector-curvature="0"
       style="fill:none;stroke:#ffffff;stroke-width:0.26840001;stroke-linecap:butt;stroke-linejoin:miter;stroke-miterlimit:4;stroke-opacity:1;stroke-dasharray:none"
       id="path54"
       d="m -6476.0579,1055.3604 c 1.0925,0 2.6683,0.048 3.7194,0.013 4.4045,-0.1551 7.7839,-1.0627 11.8431,-1.6056 8.6848,-0.985 15.8877,-1.8133 22.5774,-1.3059 3.35,0.4669 4.6718,2.291 6.2229,3.8095 l 12.9884,-18.4538 -57.2553,2.7748 -0.096,14.7685 z" /></g><g
     id="g56"
     transform="matrix(0.2284375,0,0,-0.2284375,-169.2546,1414.8444)"><path
       inkscape:connector-curvature="0"
       style="fill:none;stroke:#ffffff;stroke-width:30.34600067;stroke-linecap:butt;stroke-linejoin:miter;stroke-miterlimit:4;stroke-opacity:1;stroke-dasharray:none"
       id="path58"
       d="m 1073.7275,5865.2637 -30.1062,-14.4286 -30.1014,14.4363 -7.433,32.4408 20.8395,26.0096 33.4099,0 20.8321,-26.0158 -7.4409,-32.4374 z" /></g><path
     inkscape:connector-curvature="0"
     style="fill:#ffffff;fill-opacity:1;fill-rule:nonzero;stroke:none"
     id="path60"
     d="m 39.389524,49.535906 2.146875,-2.6795 19.869375,15.5665 -3.131125,4.002875 -18.885125,-16.889875 z" /><g
     id="g62"
     transform="matrix(0.133875,-0.167875,-0.1786,-0.142425,-169.2546,1414.8444)"><path
       inkscape:connector-curvature="0"
       style="fill:none;stroke:#ffffff;stroke-width:0.41159999;stroke-linecap:butt;stroke-linejoin:miter;stroke-miterlimit:4;stroke-opacity:1;stroke-dasharray:none"
       id="path64"
       d="m 5577.0313,3012.37 15.9896,-0.035 1.0146,-110.4928 -23.6665,-0.2083 6.6623,110.7357 z" /></g><path
     inkscape:connector-curvature="0"
     style="fill:#ffffff;fill-opacity:1;fill-rule:nonzero;stroke:none"
     id="path66"
     d="m 42.983774,45.028156 -2.1345,2.690375 19.600625,15.903375 3.2045,-3.94475 -20.670625,-14.649 z" /><g
     id="g68"
     transform="matrix(0.133875,-0.167875,-0.1786,-0.142425,-169.2546,1414.8444)"><path
       inkscape:connector-curvature="0"
       style="fill:none;stroke:#ffffff;stroke-width:0.41159999;stroke-linecap:butt;stroke-linejoin:miter;stroke-miterlimit:4;stroke-opacity:1;stroke-dasharray:none"
       id="path70"
       d="m 5603.881,3012.3717 -15.9925,-0.037 -0.9946,-110.4931 23.6681,-0.201 -6.681,110.7309 z" /></g><path
     inkscape:connector-curvature="0"
     style="fill:#ffffff;fill-opacity:1;fill-rule:nonzero;stroke:none"
     id="path72"
     d="m 35.401899,39.251156 c 1.28225,1.0225 1.575625,2.78675 0.655875,3.9415 -0.921,1.15375 -2.706375,1.26075 -3.98875,0.238125 -1.282375,-1.022625 -1.57575,-2.78675 -0.65475,-3.9405 0.91975,-1.154375 2.705625,-1.26075 3.987625,-0.239125" /><g
     id="g74"
     transform="matrix(0.1281625,-0.16075,-0.1786125,-0.1424,-169.2546,1414.8444)"><path
       inkscape:connector-curvature="0"
       style="fill:none;stroke:#ffffff;stroke-width:0.2744;stroke-linecap:butt;stroke-linejoin:miter;stroke-miterlimit:4;stroke-opacity:1;stroke-dasharray:none"
       id="path76"
       d="m 5852.363,3053.3992 c 0,-7.181 -5.8201,-12.9999 -13.0023,-13.0013 -7.1801,0 -13.0011,5.8235 -12.9999,13.0033 0,7.1788 5.8212,12.9986 13.0013,12.9949 7.1799,0 12.998,-5.8198 13.0009,-12.9969 z" /></g><path
     inkscape:connector-curvature="0"
     style="fill:#ffffff;fill-opacity:1;fill-rule:nonzero;stroke:none"
     id="path78"
     d="m 32.039649,43.404906 c 0.183875,0.146375 0.44,0.366 0.622875,0.500625 0.761125,0.562 1.457375,0.85225 2.216375,1.298375 1.598375,0.98675 2.925375,1.8035 3.97625,2.79025 0.496125,0.530875 0.45775,1.03325 0.501375,1.512375 l 4.808625,-1.55625 -10.00625,-7.1695 -2.11925,2.624125 z" /><g
     id="g80"
     transform="matrix(0.167875,0.133875,0.142425,-0.1786,-169.2546,1414.8444)"><path
       inkscape:connector-curvature="0"
       style="fill:none;stroke:#ffffff;stroke-width:0.26840001;stroke-linecap:butt;stroke-linejoin:miter;stroke-miterlimit:4;stroke-opacity:1;stroke-dasharray:none"
       id="path82"
       d="m -3249.2313,5243.3223 c 1.0933,0 2.664,-0.052 3.7219,-0.013 4.403,0.1539 7.7794,1.0602 11.8409,1.6067 8.6825,0.9833 15.8867,1.8108 22.5788,1.3017 3.3474,-0.4627 4.6661,-2.2856 6.2166,-3.8075 l 12.9912,18.4521 -57.2539,-2.7749 -0.095,-14.7648 z" /></g><path
     inkscape:connector-curvature="0"
     style="fill:#ffffff;fill-opacity:1;fill-rule:nonzero;stroke:none"
     id="path84"
     d="m 35.370649,39.227031 c 0.183875,0.147375 0.455,0.347875 0.626125,0.496375 0.7175,0.61725 1.155875,1.231375 1.76,1.872 1.31775,1.338625 2.409,2.450125 3.604875,3.255125 0.62825,0.366125 1.109125,0.2165 1.586375,0.152375 l -0.447875,5.03475 -9.216875,-8.1595 2.087375,-2.651125 z" /><g
     id="g86"
     transform="matrix(0.167875,0.133875,0.142425,-0.1786,-169.2546,1414.8444)"><path
       inkscape:connector-curvature="0"
       style="fill:none;stroke:#ffffff;stroke-width:0.26840001;stroke-linecap:butt;stroke-linejoin:miter;stroke-miterlimit:4;stroke-opacity:1;stroke-dasharray:none"
       id="path88"
       d="m -3249.2339,5266.7135 c 1.0976,0 2.668,0.05 3.7202,0.011 4.4071,-0.1545 7.7848,-1.0607 11.8446,-1.6044 8.6862,-0.9839 15.8862,-1.8108 22.578,-1.302 3.3491,0.4632 4.668,2.287 6.2194,3.8072 l 12.9861,-18.4518 -57.2505,2.7689 -0.098,14.771 z" /></g><path
     inkscape:connector-curvature="0"
     style="fill:#ffffff;fill-opacity:1;fill-rule:nonzero;stroke:none"
     id="path90"
     d="m 34.960024,80.359156 -0.7565,-3.349875 24.55825,-5.8295 1.17675,4.944375 -24.9785,4.235 z" /><g
     id="g92"
     transform="matrix(0.0477875,0.2093375,0.2227,-0.0508375,-169.2546,1414.8444)"><path
       inkscape:connector-curvature="0"
       style="fill:none;stroke:#ffffff;stroke-width:0.41159999;stroke-linecap:butt;stroke-linejoin:miter;stroke-miterlimit:4;stroke-opacity:1;stroke-dasharray:none"
       id="path94"
       d="m -5847.3578,2171.5747 -15.9939,0.032 -1.0168,110.4913 23.6687,0.207 -6.658,-110.7301 z" /></g><path
     inkscape:connector-curvature="0"
     style="fill:#ffffff;fill-opacity:1;fill-rule:nonzero;stroke:none"
     id="path96"
     d="m 33.676274,74.738406 0.772375,3.34625 24.65475,-5.409125 -1.085625,-4.965 -24.3415,7.027875 z" /><g
     id="g98"
     transform="matrix(0.0477875,0.2093375,0.2227,-0.0508375,-169.2546,1414.8444)"><path
       inkscape:connector-curvature="0"
       style="fill:none;stroke:#ffffff;stroke-width:0.41159999;stroke-linecap:butt;stroke-linejoin:miter;stroke-miterlimit:4;stroke-opacity:1;stroke-dasharray:none"
       id="path100"
       d="m -5874.2073,2171.5679 15.9931,0.04 0.9907,110.4919 -23.6673,0.203 6.6835,-110.7352 z" /></g><path
     inkscape:connector-curvature="0"
     style="fill:#ffffff;fill-opacity:1;fill-rule:nonzero;stroke:none"
     id="path102"
     d="m 24.432524,77.064906 c 1.598375,-0.366 3.161625,0.504875 3.490125,1.94425 0.328125,1.43825 -0.701625,2.900875 -2.300625,3.265875 -1.598125,0.366 -3.160625,-0.50525 -3.489875,-1.944625 -0.328125,-1.43825 0.701625,-2.9005 2.300375,-3.2655" /><g
     id="g104"
     transform="matrix(0.045775,0.200425,0.2227,-0.0508625,-169.2546,1414.8444)"><path
       inkscape:connector-curvature="0"
       style="fill:none;stroke:#ffffff;stroke-width:0.2744;stroke-linecap:butt;stroke-linejoin:miter;stroke-miterlimit:4;stroke-opacity:1;stroke-dasharray:none"
       id="path106"
       d="m -6133.9467,2130.5761 c 0,7.1785 5.8181,13 13.0008,12.9983 7.1756,0 12.9951,-5.8181 12.9934,-13 0.01,-7.177 -5.8169,-12.9952 -12.9988,-12.9988 -7.177,0 -12.9963,5.8218 -12.9954,13.0005 z" /></g><path
     inkscape:connector-curvature="0"
     style="fill:#ffffff;fill-opacity:1;fill-rule:nonzero;stroke:none"
     id="path108"
     d="m 25.583649,82.283156 c 0.22825,-0.0525 0.560625,-0.1175 0.77925,-0.175 0.9145,-0.24525 1.57575,-0.608375 2.397375,-0.923375 1.768875,-0.634625 3.234,-1.163 4.6605,-1.368875 0.724625,-0.0575 1.093125,0.285625 1.495625,0.550625 l 1.78125,-4.73025 -11.844875,3.35225 0.730875,3.294625 z" /><g
     id="g110"
     transform="matrix(0.2093375,-0.0477875,-0.0508375,-0.2227,-169.2546,1414.8444)"><path
       inkscape:connector-curvature="0"
       style="fill:none;stroke:#ffffff;stroke-width:0.26840001;stroke-linecap:butt;stroke-linejoin:miter;stroke-miterlimit:4;stroke-opacity:1;stroke-dasharray:none"
       id="path112"
       d="m 2265.6285,5497.4356 c 1.0922,0 2.6646,-0.046 3.7191,-0.012 4.4067,0.157 7.7848,1.0615 11.842,1.6055 8.6871,0.9856 15.8868,1.813 22.5785,1.3017 3.3494,-0.4609 4.6676,-2.2825 6.219,-3.8053 l 12.9892,18.4519 -57.2525,-2.7689 -0.095,-14.773 z" /></g><path
     inkscape:connector-curvature="0"
     style="fill:#ffffff;fill-opacity:1;fill-rule:nonzero;stroke:none"
     id="path114"
     d="m 24.394274,77.073781 c 0.22925,-0.0525 0.555875,-0.1385 0.778,-0.181125 0.930875,-0.176 1.683875,-0.135 2.561125,-0.207875 1.868375,-0.196375 3.4175,-0.356125 4.792375,-0.789125 0.678125,-0.263 0.861375,-0.732375 1.108375,-1.145625 l 3.657375,3.48875 -12.12625,2.119625 -0.771,-3.284625 z" /><g
     id="g116"
     transform="matrix(0.2093375,-0.0477875,-0.0508375,-0.2227,-169.2546,1414.8444)"><path
       inkscape:connector-curvature="0"
       style="fill:none;stroke:#ffffff;stroke-width:0.26840001;stroke-linecap:butt;stroke-linejoin:miter;stroke-miterlimit:4;stroke-opacity:1;stroke-dasharray:none"
       id="path118"
       d="m 2265.6266,5520.8273 c 1.0955,0 2.6674,0.048 3.7204,0.015 4.4087,-0.1554 7.7848,-1.0642 11.8437,-1.6076 8.6865,-0.9822 15.8857,-1.8093 22.5766,-1.3005 3.3519,0.4629 4.6701,2.2867 6.2195,3.8092 l 12.9914,-18.4544 -57.255,2.7686 -0.097,14.7696 z" /></g><path
     inkscape:connector-curvature="0"
     style="fill:#ffffff;fill-opacity:1;fill-rule:nonzero;stroke:none"
     id="path120"
     d="m 56.248899,103.07029 -3.091125,-1.49701 10.754625,-22.835249 4.5995,2.162125 -12.263,22.170134 z" /><g
     id="g122"
     transform="matrix(0.1934625,0.0931625,0.0991125,-0.2058125,-169.2546,1414.8444)"><path
       inkscape:connector-curvature="0"
       style="fill:none;stroke:#ffffff;stroke-width:0.41159999;stroke-linecap:butt;stroke-linejoin:miter;stroke-miterlimit:4;stroke-opacity:1;stroke-dasharray:none"
       id="path124"
       d="m -1704.3131,5602.1797 -15.9959,0.035 -1.0163,110.4899 23.6696,0.2089 -6.6574,-110.7337 z" /></g><path
     inkscape:connector-curvature="0"
     style="fill:#ffffff;fill-opacity:1;fill-rule:nonzero;stroke:none"
     id="path126"
     d="m 51.053649,100.56904 3.098375,1.48224 11.14225,-22.647749 -4.558875,-2.246875 -9.68175,23.412384 z" /><g
     id="g128"
     transform="matrix(0.1934625,0.0931625,0.0991125,-0.2058125,-169.2546,1414.8444)"><path
       inkscape:connector-curvature="0"
       style="fill:none;stroke:#ffffff;stroke-width:0.41159999;stroke-linecap:butt;stroke-linejoin:miter;stroke-miterlimit:4;stroke-opacity:1;stroke-dasharray:none"
       id="path130"
       d="m -1731.1657,5602.1774 15.9936,0.038 0.9913,110.4894 -23.6685,0.2032 6.6836,-110.7309 z" /></g><path
     inkscape:connector-curvature="0"
     style="fill:#ffffff;fill-opacity:1;fill-rule:nonzero;stroke:none"
     id="path132"
     d="m 47.108899,109.24703 c 0.71225,-1.47762 2.366625,-2.15687 3.69675,-1.51687 1.329875,0.64062 1.83125,2.35737 1.120125,3.83487 -0.71125,1.47788 -2.366625,2.15688 -3.696125,1.51613 -1.3305,-0.6395 -1.831875,-2.35663 -1.12075,-3.83413" /><g
     id="g134"
     transform="matrix(0.1852375,0.089175,0.099075,-0.205825,-169.2546,1414.8444)"><path
       inkscape:connector-curvature="0"
       style="fill:none;stroke:#ffffff;stroke-width:0.2744;stroke-linecap:butt;stroke-linejoin:miter;stroke-miterlimit:4;stroke-opacity:1;stroke-dasharray:none"
       id="path136"
       d="m -1806.2385,5560.6793 c 0,7.1805 5.8215,13.0009 13.0028,13.0031 7.1782,0 12.9977,-5.8221 12.9983,-13.0005 0,-7.1799 -5.8204,-13.0003 -13,-12.9986 -7.1804,0 -13.0005,5.8176 -13.0011,12.996 z" /></g><path
     inkscape:connector-curvature="0"
     style="fill:#ffffff;fill-opacity:1;fill-rule:nonzero;stroke:none"
     id="path138"
     d="m 51.906899,111.59978 c 0.10175,-0.2115 0.259,-0.51025 0.349,-0.71824 0.379125,-0.86701 0.50675,-1.61038 0.772875,-2.44913 0.606625,-1.77838 1.10725,-3.2535 1.835375,-4.49713 0.4075,-0.60237 0.90575,-0.67749 1.3635,-0.82674 l -2.587625,-4.341634 -4.763375,11.351004 3.03025,1.48187 z" /><g
     id="g140"
     transform="matrix(0.0931625,-0.1934625,-0.2058125,-0.0991125,-169.2546,1414.8444)"><path
       inkscape:connector-curvature="0"
       style="fill:none;stroke:#ffffff;stroke-width:0.26840001;stroke-linecap:butt;stroke-linejoin:miter;stroke-miterlimit:4;stroke-opacity:1;stroke-dasharray:none"
       id="path142"
       d="m 5915.2105,1602.9556 c 1.093,5e-4 2.6634,-0.051 3.7187,-0.013 4.4056,0.1519 7.7811,1.0601 11.8386,1.6055 8.6885,0.9839 15.8874,1.8114 22.5786,1.3023 3.3522,-0.4658 4.6717,-2.2873 6.222,-3.8084 l 12.9909,18.4516 -57.2525,-2.7717 -0.096,-14.7668 z" /></g><path
     inkscape:connector-curvature="0"
     style="fill:#ffffff;fill-opacity:1;fill-rule:nonzero;stroke:none"
     id="path144"
     d="m 47.093024,109.28178 c 0.101625,-0.21162 0.238125,-0.52024 0.343375,-0.72075 0.4425,-0.83725 0.943875,-1.40037 1.433875,-2.132 1.012,-1.58287 1.8525,-2.89387 2.371875,-4.2385 0.216875,-0.69412 -0.03575,-1.12962 -0.205125,-1.58099 l 5.0085,-0.683509 -5.904625,10.801379 -3.047875,-1.44563 z" /><g
     id="g146"
     transform="matrix(0.0931625,-0.1934625,-0.2058125,-0.0991125,-169.2546,1414.8444)"><path
       inkscape:connector-curvature="0"
       style="fill:none;stroke:#ffffff;stroke-width:0.26840001;stroke-linecap:butt;stroke-linejoin:miter;stroke-miterlimit:4;stroke-opacity:1;stroke-dasharray:none"
       id="path148"
       d="m 5915.2102,1626.3454 c 1.093,5e-4 2.6634,0.049 3.719,0.015 4.4068,-0.1576 7.7814,-1.0642 11.8418,-1.6073 8.6876,-0.9845 15.8853,-1.8102 22.5771,-1.3051 3.3508,0.4632 4.6675,2.2868 6.2209,3.8126 l 12.9861,-18.4566 -57.2525,2.7734 -0.092,14.7677 z" /></g><path
     inkscape:connector-curvature="0"
     style="fill:#ffffff;fill-opacity:1;fill-rule:nonzero;stroke:none"
     id="path150"
     d="m 87.263149,100.52554 -3.09725,1.48287 -11.148625,-22.646004 4.55875,-2.247875 9.687125,23.411009 z" /><g
     id="g152"
     transform="matrix(0.1934625,-0.093175,-0.099125,-0.2058125,-169.2546,1414.8444)"><path
       inkscape:connector-curvature="0"
       style="fill:none;stroke:#ffffff;stroke-width:0.41159999;stroke-linecap:butt;stroke-linejoin:miter;stroke-miterlimit:4;stroke-opacity:1;stroke-dasharray:none"
       id="path154"
       d="m 3732.2325,4696.5302 -15.9925,0.033 -1.0145,110.4942 23.669,0.2069 -6.662,-110.7343 z" /></g><path
     inkscape:connector-curvature="0"
     style="fill:#ffffff;fill-opacity:1;fill-rule:nonzero;stroke:none"
     id="path156"
     d="m 82.069024,103.02741 3.09075,-1.49813 -10.76025,-22.832374 -4.598875,2.164 12.268375,22.166504 z" /><g
     id="g158"
     transform="matrix(0.1934625,-0.093175,-0.099125,-0.2058125,-169.2546,1414.8444)"><path
       inkscape:connector-curvature="0"
       style="fill:none;stroke:#ffffff;stroke-width:0.41159999;stroke-linecap:butt;stroke-linejoin:miter;stroke-miterlimit:4;stroke-opacity:1;stroke-dasharray:none"
       id="path160"
       d="m 3705.3831,4696.5288 15.9973,0.037 0.9887,110.4928 -23.6687,0.2009 6.6827,-110.7306 z" /></g><path
     inkscape:connector-curvature="0"
     style="fill:#ffffff;fill-opacity:1;fill-rule:nonzero;stroke:none"
     id="path162"
     d="m 86.393899,111.52216 c -0.712125,-1.4775 -0.210375,-3.19538 1.119,-3.83487 1.3295,-0.64063 2.9845,0.0375 3.697125,1.51512 0.711125,1.4775 0.210125,3.19425 -1.119375,3.83525 -1.330125,0.64062 -2.9845,-0.0387 -3.69675,-1.5155" /><g
     id="g164"
     transform="matrix(0.1852125,-0.089225,-0.09915,-0.2058,-169.2546,1414.8444)"><path
       inkscape:connector-curvature="0"
       style="fill:none;stroke:#ffffff;stroke-width:0.2744;stroke-linecap:butt;stroke-linejoin:miter;stroke-miterlimit:4;stroke-opacity:1;stroke-dasharray:none"
       id="path166"
       d="m 3871.7606,4654.3567 c 8e-4,7.181 5.8243,13.003 13.0011,13.0008 7.1782,5e-4 12.9991,-5.8187 12.9997,-13.0006 0,-7.1784 -5.8195,-12.9982 -12.9994,-12.9982 -7.1819,-6e-4 -12.9974,5.8215 -13.0014,12.998 z" /></g><path
     inkscape:connector-curvature="0"
     style="fill:#ffffff;fill-opacity:1;fill-rule:nonzero;stroke:none"
     id="path168"
     d="m 91.224899,109.23891 c -0.10175,-0.21225 -0.237375,-0.52125 -0.343375,-0.72188 -0.442875,-0.83687 -0.94425,-1.39987 -1.434,-2.13162 -1.011875,-1.58313 -1.852375,-2.89313 -2.371875,-4.23888 -0.216875,-0.69412 0.03588,-1.12962 0.204125,-1.57987 l -5.007375,-0.684629 5.904125,10.801379 3.048375,-1.4445 z" /><g
     id="g170"
     transform="matrix(0.093175,0.1934625,0.2058125,-0.099125,-169.2546,1414.8444)"><path
       inkscape:connector-curvature="0"
       style="fill:none;stroke:#ffffff;stroke-width:0.26840001;stroke-linecap:butt;stroke-linejoin:miter;stroke-miterlimit:4;stroke-opacity:1;stroke-dasharray:none"
       id="path172"
       d="m -4951.7391,3507.378 c -1.0975,0 -2.6668,0.053 -3.7224,0.017 -4.4065,-0.1571 -7.7837,-1.0644 -11.8432,-1.6058 -8.6862,-0.9848 -15.8811,-1.8114 -22.5771,-1.304 -3.3491,0.4626 -4.6666,2.2847 -6.2161,3.8075 l -12.992,-18.4507 57.2536,2.7686 0.097,14.7677 z" /></g><path
     inkscape:connector-curvature="0"
     style="fill:#ffffff;fill-opacity:1;fill-rule:nonzero;stroke:none"
     id="path174"
     d="m 86.412024,111.55729 c -0.10275,-0.21163 -0.259,-0.51176 -0.350125,-0.71825 -0.378375,-0.8685 -0.506625,-1.61188 -0.772375,-2.45063 -0.607,-1.77837 -1.107625,-3.25237 -1.835875,-4.49712 -0.40775,-0.60238 -0.90525,-0.67638 -1.363,-0.82525 l 2.587625,-4.342259 4.763625,11.350259 -3.029875,1.48325 z" /><g
     id="g176"
     transform="matrix(0.093175,0.1934625,0.2058125,-0.099125,-169.2546,1414.8444)"><path
       inkscape:connector-curvature="0"
       style="fill:none;stroke:#ffffff;stroke-width:0.26840001;stroke-linecap:butt;stroke-linejoin:miter;stroke-miterlimit:4;stroke-opacity:1;stroke-dasharray:none"
       id="path178"
       d="m -4951.7379,3483.9904 c -1.0962,0 -2.6697,-0.048 -3.7205,-0.015 -4.4084,0.1573 -7.7868,1.0636 -11.8437,1.607 -8.6876,0.9856 -15.8839,1.8108 -22.5782,1.3033 -3.3517,-0.4643 -4.6684,-2.2869 -6.2195,-3.8094 l -12.989,18.4538 57.2514,-2.7692 0.1,-14.7702 z" /></g><path
     inkscape:connector-curvature="0"
     style="fill:#ffffff;fill-opacity:1;fill-rule:nonzero;stroke:none"
     id="path180"
     d="m 104.6274,74.676781 -0.77162,3.34625 -24.656506,-5.402875 1.085,-4.965875 24.343126,7.0225 z" /><g
     id="g182"
     transform="matrix(0.047775,-0.2093375,-0.2227,-0.050825,-169.2546,1414.8444)"><path
       inkscape:connector-curvature="0"
       style="fill:none;stroke:#ffffff;stroke-width:0.41159999;stroke-linecap:butt;stroke-linejoin:miter;stroke-miterlimit:4;stroke-opacity:1;stroke-dasharray:none"
       id="path184"
       d="m 6368.633,136.4414 -15.9914,0.0349 -1.0179,110.4945 23.6696,0.2061 -6.6603,-110.7355 z" /></g><path
     inkscape:connector-curvature="0"
     style="fill:#ffffff;fill-opacity:1;fill-rule:nonzero;stroke:none"
     id="path186"
     d="m 103.34515,80.297781 0.75575,-3.34975 -24.560126,-5.8235 -1.176,4.944375 24.980376,4.228875 z" /><g
     id="g188"
     transform="matrix(0.047775,-0.2093375,-0.2227,-0.050825,-169.2546,1414.8444)"><path
       inkscape:connector-curvature="0"
       style="fill:none;stroke:#ffffff;stroke-width:0.41159999;stroke-linecap:butt;stroke-linejoin:miter;stroke-miterlimit:4;stroke-opacity:1;stroke-dasharray:none"
       id="path190"
       d="m 6341.7858,136.44 15.9911,0.0369 0.9918,110.4913 -23.6678,0.2033 6.6849,-110.7315 z" /></g><path
     inkscape:connector-curvature="0"
     style="fill:#ffffff;fill-opacity:1;fill-rule:nonzero;stroke:none"
     id="path192"
     d="m 112.6824,82.212656 c -1.599,-0.365 -2.62875,-1.826625 -2.30025,-3.265875 0.3285,-1.43925 1.89075,-2.31025 3.48875,-1.94525 1.59912,0.363875 2.6295,1.8265 2.30137,3.265875 -0.3285,1.43925 -1.89074,2.309875 -3.48987,1.94525" /><g
     id="g194"
     transform="matrix(0.0457125,-0.2004375,-0.2227125,-0.0507875,-169.2546,1414.8444)"><path
       inkscape:connector-curvature="0"
       style="fill:none;stroke:#ffffff;stroke-width:0.2744;stroke-linecap:butt;stroke-linejoin:miter;stroke-miterlimit:4;stroke-opacity:1;stroke-dasharray:none"
       id="path196"
       d="m 6624.6812,93.8699 c 0,7.1801 5.8189,12.9977 12.9999,12.9968 7.1805,6e-4 13.0009,-5.8207 12.9983,-12.9966 0,-7.1795 -5.8178,-13.0025 -12.9991,-12.9999 -7.1805,-6e-4 -13.0006,5.8209 -12.9991,12.9997 z" /></g><path
     inkscape:connector-curvature="0"
     style="fill:#ffffff;fill-opacity:1;fill-rule:nonzero;stroke:none"
     id="path198"
     d="m 113.90953,77.011031 c -0.22863,-0.05125 -0.55525,-0.138125 -0.77851,-0.18 -0.92975,-0.17675 -1.68275,-0.135625 -2.56,-0.208625 -1.86837,-0.195625 -3.41825,-0.3555 -4.79337,-0.788125 -0.67713,-0.26325 -0.86113,-0.73275 -1.10838,-1.145875 l -3.65637,3.490125 12.12562,2.117125 0.77101,-3.284625 z" /><g
     id="g200"
     transform="matrix(0.20935,0.047775,0.050825,-0.2227125,-169.2546,1414.8444)"><path
       inkscape:connector-curvature="0"
       style="fill:none;stroke:#ffffff;stroke-width:0.26840001;stroke-linecap:butt;stroke-linejoin:miter;stroke-miterlimit:4;stroke-opacity:1;stroke-dasharray:none"
       id="path202"
       d="m -100.5077,5985.5958 c -1.0914,0 -2.6643,0.049 -3.7197,0.011 -4.4061,-0.1513 -7.7822,-1.0601 -11.8411,-1.603 -8.686,-0.985 -15.8899,-1.8127 -22.5805,-1.3053 -3.3472,0.464 -4.6684,2.2887 -6.2178,3.8114 l -12.987,-18.4558 57.2485,2.7726 0.0976,14.7696 z" /></g><path
     inkscape:connector-curvature="0"
     style="fill:#ffffff;fill-opacity:1;fill-rule:nonzero;stroke:none"
     id="path204"
     d="m 112.72077,82.220781 c -0.22925,-0.0525 -0.56062,-0.11625 -0.77999,-0.175 -0.91375,-0.2445 -1.575,-0.60775 -2.39663,-0.92275 -1.7685,-0.634625 -3.23363,-1.162875 -4.6605,-1.36875 -0.72463,-0.0575 -1.09388,0.285625 -1.49562,0.55025 l -1.78088,-4.729875 11.8435,3.35225 -0.72988,3.293875 z" /><g
     id="g206"
     transform="matrix(0.20935,0.047775,0.050825,-0.2227125,-169.2546,1414.8444)"><path
       inkscape:connector-curvature="0"
       style="fill:none;stroke:#ffffff;stroke-width:0.26840001;stroke-linecap:butt;stroke-linejoin:miter;stroke-miterlimit:4;stroke-opacity:1;stroke-dasharray:none"
       id="path208"
       d="m -100.5077,5962.2049 c -1.0956,0 -2.6652,-0.052 -3.7219,-0.014 -4.4028,0.1551 -7.7792,1.0599 -11.8381,1.6036 -8.687,0.9862 -15.8862,1.8125 -22.5785,1.3028 -3.3494,-0.4606 -4.6721,-2.2844 -6.2206,-3.8052 l -12.9884,18.4524 57.2491,-2.772 0.0984,-14.7674 z" /></g><path
     inkscape:connector-curvature="0"
     style="fill:#ffffff;fill-opacity:1;fill-rule:nonzero;stroke:none"
     id="path210"
     d="m 95.299274,44.978156 2.13525,2.689375 -19.597,15.908375 -3.20525,-3.943375 20.667,-14.654375 z" /><g
     id="g212"
     transform="matrix(0.1338875,0.167875,0.1785875,-0.1424375,-169.2546,1414.8444)"><path
       inkscape:connector-curvature="0"
       style="fill:none;stroke:#ffffff;stroke-width:0.41159999;stroke-linecap:butt;stroke-linejoin:miter;stroke-miterlimit:4;stroke-opacity:1;stroke-dasharray:none"
       id="path214"
       d="m -4219.3791,4644.5956 15.993,-0.032 1.0131,-110.4936 -23.6625,-0.2061 6.6564,110.7318 z" /></g><path
     inkscape:connector-curvature="0"
     style="fill:#ffffff;fill-opacity:1;fill-rule:nonzero;stroke:none"
     id="path216"
     d="m 98.895024,49.485281 -2.14825,-2.6795 -19.864875,15.57075 3.132,4.00175 18.881125,-16.893 z" /><g
     id="g218"
     transform="matrix(0.1338875,0.167875,0.1785875,-0.1424375,-169.2546,1414.8444)"><path
       inkscape:connector-curvature="0"
       style="fill:none;stroke:#ffffff;stroke-width:0.41159999;stroke-linecap:butt;stroke-linejoin:miter;stroke-miterlimit:4;stroke-opacity:1;stroke-dasharray:none"
       id="path220"
       d="m -4192.5257,4644.6018 -15.9973,-0.04 -0.9896,-110.4882 23.665,-0.2044 -6.6781,110.7329 z" /></g><path
     inkscape:connector-curvature="0"
     style="fill:#ffffff;fill-opacity:1;fill-rule:nonzero;stroke:none"
     id="path222"
     d="m 106.21415,43.378281 c -1.28238,1.02225 -3.06813,0.916375 -3.988,-0.237375 -0.9205,-1.153625 -0.62713,-2.919 0.65412,-3.9415 1.28225,-1.022625 3.06776,-0.916375 3.98863,0.237375 0.92025,1.154 0.62725,2.918625 -0.65475,3.9415" /><g
     id="g224"
     transform="matrix(0.1282125,0.1607125,0.178575,-0.1424625,-169.2546,1414.8444)"><path
       inkscape:connector-curvature="0"
       style="fill:none;stroke:#ffffff;stroke-width:0.2744;stroke-linecap:butt;stroke-linejoin:miter;stroke-miterlimit:4;stroke-opacity:1;stroke-dasharray:none"
       id="path226"
       d="m -4379.2058,4686.834 c -3e-4,-7.1787 -5.8215,-12.9999 -12.9986,-12.9979 -7.179,-6e-4 -13.0014,5.8226 -13.0031,12.9988 0,7.1802 5.8215,13 13.0009,13.0005 7.1793,0 13.0022,-5.8192 13.0008,-13.0014 z" /></g><path
     inkscape:connector-curvature="0"
     style="fill:#ffffff;fill-opacity:1;fill-rule:nonzero;stroke:none"
     id="path228"
     d="m 102.91252,39.176281 c -0.18387,0.146375 -0.45499,0.348 -0.6265,0.495 -0.7175,0.617625 -1.15549,1.232375 -1.7585,1.872375 -1.319246,1.339375 -2.409496,2.45125 -3.605371,3.25625 -0.62825,0.365625 -1.109,0.2165 -1.586375,0.152375 l 0.447875,5.034375 9.215871,-8.16025 -2.087,-2.650125 z" /><g
     id="g230"
     transform="matrix(0.167875,-0.1338875,-0.1424375,-0.1785875,-169.2546,1414.8444)"><path
       inkscape:connector-curvature="0"
       style="fill:none;stroke:#ffffff;stroke-width:0.26840001;stroke-linecap:butt;stroke-linejoin:miter;stroke-miterlimit:4;stroke-opacity:1;stroke-dasharray:none"
       id="path232"
       d="m 4985.5952,3965.326 c -1.0933,0 -2.6668,0.051 -3.7182,0.016 -4.4047,-0.1539 -7.7865,-1.065 -11.8409,-1.607 -8.6896,-0.985 -15.8882,-1.8124 -22.5799,-1.3033 -3.3489,0.4609 -4.6664,2.2841 -6.2192,3.8072 l -12.9867,-18.4533 57.2485,2.7743 0.096,14.7662 z" /></g><path
     inkscape:connector-curvature="0"
     style="fill:#ffffff;fill-opacity:1;fill-rule:nonzero;stroke:none"
     id="path234"
     d="m 106.24427,43.353156 c -0.18387,0.146375 -0.44074,0.366 -0.62287,0.50075 -0.76113,0.56225 -1.45775,0.852125 -2.21638,1.298875 -1.598,0.98725 -2.925,1.803625 -3.976371,2.790375 -0.496,0.530875 -0.457375,1.033625 -0.501375,1.512625 l -4.808625,-1.556125 10.005621,-7.170625 2.12,2.624125 z" /><g
     id="g236"
     transform="matrix(0.167875,-0.1338875,-0.1424375,-0.1785875,-169.2546,1414.8444)"><path
       inkscape:connector-curvature="0"
       style="fill:none;stroke:#ffffff;stroke-width:0.26840001;stroke-linecap:butt;stroke-linejoin:miter;stroke-miterlimit:4;stroke-opacity:1;stroke-dasharray:none"
       id="path238"
       d="m 4985.5975,3941.9365 c -1.0933,3e-4 -2.6654,-0.049 -3.7205,-0.014 -4.4053,0.154 -7.7836,1.0656 -11.8429,1.6047 -8.6839,0.9848 -15.887,1.8114 -22.5788,1.3028 -3.3485,-0.4637 -4.6672,-2.2867 -6.2183,-3.8063 l -12.9901,18.4504 57.2505,-2.7686 0.1001,-14.7688 z" /></g><path
     inkscape:connector-curvature="0"
     style="fill:#ffffff;fill-opacity:1;fill-rule:nonzero;stroke:none"
     id="path240"
     d="m 64.954399,56.113281 c -0.0535,1.25475 -1.08525,2.25575 -2.353,2.25575 -0.5195,0 -0.9985,-0.166875 -1.387625,-0.45075 l -0.61125,0.29125 1.251125,2.586625 5.48225,-2.644 -1.24475,-2.587 -1.13675,0.548125 z" /><path
     inkscape:connector-curvature="0"
     style="fill:#ffffff;fill-opacity:1;fill-rule:nonzero;stroke:none"
     id="path242"
     d="m 56.006149,64.464156 c 0.947875,0.823875 1.08675,2.256125 0.297375,3.246375 -0.323875,0.406125 -0.753375,0.6765 -1.21825,0.804 l -0.153375,0.65975 2.80275,0.63425 1.351,-5.934625 -2.799125,-0.639875 -0.280375,1.230125 z" /><path
     inkscape:connector-curvature="0"
     style="fill:#ffffff;fill-opacity:1;fill-rule:nonzero;stroke:none"
     id="path244"
     d="m 56.946524,76.661281 c 1.23425,-0.227375 2.440625,0.556 2.72275,1.791875 0.115875,0.506 0.0595,1.01125 -0.131125,1.4535 l 0.42025,0.531125 2.244,-1.795375 -3.7985,-4.755875 -2.245,1.789 0.787625,0.98575 z" /><path
     inkscape:connector-curvature="0"
     style="fill:#ffffff;fill-opacity:1;fill-rule:nonzero;stroke:none"
     id="path246"
     d="m 67.069149,83.526906 c 0.591625,-1.107375 1.956875,-1.561625 3.097875,-1.012 0.46775,0.225 0.827375,0.583875 1.055125,1.008375 l 0.677125,0 -0.005,-2.87325 -6.0875,0 0,2.8715 1.261875,-10e-4 z" /><path
     inkscape:connector-curvature="0"
     style="fill:#ffffff;fill-opacity:1;fill-rule:nonzero;stroke:none"
     id="path248"
     d="m 78.736899,79.853531 c -0.496125,-1.154125 -7.5e-4,-2.504125 1.14125,-3.054 0.46775,-0.225375 0.971875,-0.28275 1.445625,-0.19525 l 0.423875,-0.52825 -2.248625,-1.788 -3.792375,4.761125 2.24425,1.791125 0.786,-0.98675 z" /><path
     inkscape:connector-curvature="0"
     style="fill:#ffffff;fill-opacity:1;fill-rule:nonzero;stroke:none"
     id="path250"
     d="m 83.192149,68.445156 c -1.210625,-0.331375 -1.95725,-1.55975 -1.675625,-2.79575 0.11525,-0.506 0.384875,-0.936125 0.74875,-1.2525 l -0.148125,-0.6605 -2.80025,0.643125 1.358125,5.934 2.79925,-0.637875 -0.282125,-1.2305 z" /><path
     inkscape:connector-curvature="0"
     style="fill:#ffffff;fill-opacity:1;fill-rule:nonzero;stroke:none"
     id="path252"
     d="m 77.050649,57.868281 c -1.01375,0.739875 -2.440375,0.55775 -3.2305,-0.43325 -0.3235,-0.405375 -0.4925,-0.8845 -0.513,-1.366375 l -0.6085,-0.296125 -1.241875,2.591125 5.485,2.637625 1.246625,-2.586875 -1.13775,-0.546125 z" /></svg>