<?xml version="1.0" encoding="utf-8"?>
<!-- Generator: Adobe Illustrator 24.2.1, SVG Export Plug-In . SVG Version: 6.00 Build 0)  -->
<svg version="1.1" id="Layer_1" xmlns="http://www.w3.org/2000/svg" xmlns:xlink="http://www.w3.org/1999/xlink" x="0px" y="0px"
	 viewBox="0 0 400 400" style="enable-background:new 0 0 400 400;" xml:space="preserve">
<style type="text/css">
	.st0{fill-rule:evenodd;clip-rule:evenodd;fill:#0A4E9B;}
	.st1{fill:#0A4E9B;}
</style>
<g>
	<g>
		<path class="st0" d="M45,290.5c4.5,4.1,13,7.9,18.4,11.1l112.3,64.8c5.4,3.1,12.9,8.3,18.8,10.3v-32.8L73.8,273.7V134.4
			c-8.5-2.2-21.6-14.2-28.9-15L45,290.5z"/>
		<path class="st0" d="M355.2,290.5l-0.3-171.6c-7.7,2.6-20.5,13.4-28.6,15.4l-0.1,139.4c-4.2,4.3-25.6,15.3-31.8,18.9l-63.7,36.7
			c-26.5,15.8-24.9,10.3-24.9,25.6L206,377L355.2,290.5z"/>
		<path class="st0" d="M79.2,124.9c9.7-3.8,22.2-12.5,31.1-17.5c9.9-5.6,19.6-11.6,29.6-17.1c10.9-6,19.4-11.4,30.4-17.5
			c8.7-4.9,21.2-13.3,29.8-16.8l74.4,42.7c12.3,7.3,24.7,13.9,37.2,21.4c10.8,6.4,8.5,5.4,19-0.6c5.4-3.2,14.1-7.2,17.8-11
			C344.5,104.8,200.9,23,199.9,23c-1.1,0-144.2,81.3-148.8,85.9L79.2,124.9z"/>
	</g>
	<path class="st1" d="M200,72L89.2,136v128L200,328l110.8-64V136L200,72z M238.7,222.9c0,9.6-2.4,18.5-7.2,26.6
		c-4.7,8.1-11.3,14.7-19.6,19.4c-8.3,4.7-17.3,7.1-27.1,7.1c-9.7,0-18.8-2.3-27.1-7.1c-8.3-4.7-14.9-11.2-19.6-19.4
		c-4.7-8.1-7.2-17.1-7.2-26.6h35.6c0,4.7,1.8,8.9,5.4,12.3c3.6,3.4,7.9,5.2,13,5.2s9.4-1.7,13-5.2c3.6-3.4,5.4-7.5,5.4-12.3V169
		h-33.4v-35.6h68.9V222.9z"/>
</g>
</svg>
