<?xml version="1.0" encoding="utf-8"?>
<!-- Generator: Adobe Illustrator 15.0.2, SVG Export Plug-In  -->
<!DOCTYPE svg PUBLIC "-//W3C//DTD SVG 1.1//EN" "http://www.w3.org/Graphics/SVG/1.1/DTD/svg11.dtd" [
	<!ENTITY ns_flows "http://ns.adobe.com/Flows/1.0/">
]>
<svg version="1.1"
	 xmlns="http://www.w3.org/2000/svg" xmlns:xlink="http://www.w3.org/1999/xlink" xmlns:a="http://ns.adobe.com/AdobeSVGViewerExtensions/3.0/"
	 x="0px" y="0px" width="256px" height="256px" viewBox="-0.15 -18.265 256 256"
	 overflow="visible" enable-background="new -0.15 -18.265 256 256" xml:space="preserve">
<defs>
</defs>
<path fill="#E25027" d="M256.223,83.482l-4.303-21.775c-0.343-1.699-1.496-3.065-2.857-3.347l-12.653-2.585
	c2.942,5.984,5.169,12.438,6.483,19.305c1.299,6.722,1.629,13.403,1.165,19.92l10.795-7.327
	C256.004,86.893,256.555,85.191,256.223,83.482z"/>
<path fill-rule="evenodd" clip-rule="evenodd" fill="#E25027" d="M243.125,73.941c-8.598-41.616-49.305-68.382-90.922-59.785
	c-41.617,8.6-68.382,49.308-59.783,90.925c7.534,36.469,39.731,61.531,75.584,61.384c-25.45-4.179-46.911-23.562-52.441-50.326
	c-7.169-34.702,15.146-68.645,49.848-75.814c34.7-7.172,68.642,15.146,75.811,49.848c1.285,6.213,1.608,12.402,1.1,18.419
	C245.144,97.596,245.578,85.809,243.125,73.941z"/>
<path fill="#E25027" d="M91.417,82.735l-12.84,8.487c-1.167,0.772-1.727,2.462-1.407,4.17l4.135,21.809
	c0.323,1.71,1.476,3.086,2.838,3.386l15.095,3.269c-3.076-6.134-5.393-12.775-6.752-19.845
	C91.103,96.825,90.796,89.682,91.417,82.735z"/>
<path fill="#E25027" d="M173.196,13.178l-7.88-11.699c-0.78-1.156-2.482-1.714-4.192-1.385l-21.784,4.23
	c-1.713,0.333-3.074,1.482-3.36,2.85l-2.922,14.074c6.229-3.156,12.98-5.523,20.175-6.911
	C159.968,13.042,166.662,12.708,173.196,13.178z"/>
<path fill="#E25027" d="M117.997,31.299l-14.426-2.819c-1.367-0.262-2.968,0.548-3.94,1.986L87.216,48.863
	c-0.976,1.447-1.129,3.229-0.363,4.388l8.116,12.38C99.362,52.312,107.337,40.412,117.997,31.299z"/>
<path fill="#E25027" d="M108.693,138.321l-2.995,14.911c-0.271,1.367,0.533,2.958,1.98,3.939l18.378,12.438
	c1.445,0.976,3.226,1.123,4.394,0.367l12.375-8.02C129.516,157.371,117.688,149.178,108.693,138.321z"/>
<path fill="#E25027" d="M225.256,39.108l2.601-12.946c0.276-1.356-0.531-2.958-1.977-3.933L207.499,9.793
	c-1.44-0.97-3.226-1.123-4.394-0.372l-11.459,7.43C204.628,21.14,216.247,28.842,225.256,39.108z"/>
<path fill="#EB8467" d="M217.446,105.942c0.171-15.034-12.232-23.705-23.896-26.809c-3.379-0.898-6.8-1.285-10.167-1.147
	c-14.227,0.584-25.921,10.364-29.792,24.917c-2.409,9.052-1.388,18.198,2.868,25.75c4.211,7.471,11.277,12.848,19.888,15.137
	c3.611,0.96,7.246,1.376,10.805,1.23c5.535-0.228,13.123-1.942,19.621-8.412l-32.08-8.536c-1.416-0.376-2.261-1.83-1.883-3.246
	l3.67-13.793c0.378-1.414,1.828-2.254,3.245-1.881l52.006,13.837c1.158-4.35,1.711-8.9,1.598-13.541l-13.394-0.83
	C218.524,108.532,217.429,107.354,217.446,105.942z"/>
<path fill="#669EB2" d="M104.985,166.501l-8.114-5.525c-0.009-0.115-0.011-0.235-0.021-0.351c-0.266-2.754-0.795-5.455-1.548-8.067
	c-0.033-0.112-0.076-0.222-0.107-0.334l5.53-8.32c0.462-0.689,0.382-1.757-0.182-2.622l-7.21-11.043
	c-0.564-0.865-1.503-1.358-2.312-1.207l-9.771,1.847c-0.089-0.074-0.171-0.156-0.261-0.23c-2.016-1.67-4.184-3.176-6.5-4.478
	c-0.1-0.055-0.205-0.1-0.304-0.155l-1.983-9.958c-0.165-0.814-0.966-1.509-1.974-1.716l-12.853-2.613
	c-1.006-0.205-2.013,0.119-2.479,0.804l-5.547,8.229c-0.114,0.006-0.229,0.009-0.345,0.02c-2.752,0.26-5.45,0.785-8.065,1.543
	c-0.115,0.034-0.228,0.079-0.343,0.112l-8.229-5.498c-0.686-0.456-1.742-0.374-2.601,0.202l-10.954,7.336
	c-0.86,0.576-1.349,1.526-1.195,2.342l1.781,9.551c-0.074,0.086-0.158,0.168-0.23,0.258c-1.799,2.168-3.408,4.52-4.787,7.035
	c-0.056,0.103-0.102,0.209-0.158,0.31l-9.747,1.933c-0.811,0.158-1.504,0.967-1.715,1.98l-2.699,12.986
	c-0.209,1.015,0.107,2.035,0.783,2.51l8.157,5.705c0.009,0.117,0.01,0.234,0.021,0.349c0.258,2.825,0.789,5.591,1.56,8.269
	c0.032,0.114,0.075,0.225,0.109,0.335l-5.499,8.272c-0.458,0.69-0.382,1.754,0.184,2.623l7.208,11.04
	c0.563,0.865,1.503,1.359,2.313,1.208l9.679-1.827c0.091,0.073,0.173,0.156,0.264,0.237c2.174,1.805,4.531,3.415,7.054,4.791
	c0.102,0.058,0.211,0.102,0.31,0.155l1.868,9.668c0.159,0.818,0.959,1.513,1.969,1.711l12.845,2.635
	c1.011,0.207,2.018-0.123,2.49-0.807l5.638-8.26c0.114-0.014,0.238-0.014,0.352-0.024c1.855-0.195,3.682-0.519,5.476-0.947
	c-2.619,0.275-5.306,0.273-8.032-0.114c-17.937-2.546-30.411-19.152-27.862-37.086c2.546-17.938,19.15-30.415,37.09-27.865
	c17.934,2.546,30.408,19.15,27.862,37.088c-0.586,4.122-1.942,7.937-3.858,11.365c1.315-1.751,2.547-3.581,3.605-5.538
	c0.056-0.106,0.102-0.216,0.159-0.322l9.68-2.035c0.806-0.173,1.496-0.989,1.7-2.004l2.597-13.002
	C105.99,167.979,105.668,166.966,104.985,166.501z"/>
</svg>
